<svg width="16" height="16" viewBox="0 0 16 16" fill="none" xmlns="http://www.w3.org/2000/svg">
<g id="Group 66">
<rect id="Rectangle 120" width="16" height="16" rx="4" fill="#159C2A"/>
<path id="Vector" d="M11.4456 4.25369C11.6184 4.08917 11.8483 3.99822 12.0869 4.00003C12.3255 4.00183 12.5541 4.09625 12.7244 4.26336C12.8947 4.43048 12.9934 4.65721 12.9997 4.89572C13.006 5.13423 12.9194 5.36586 12.7582 5.54174L7.86357 11.663C7.7794 11.7537 7.67782 11.8265 7.5649 11.8769C7.45198 11.9274 7.33003 11.9547 7.20636 11.9569C7.08268 11.9592 6.95981 11.9366 6.8451 11.8903C6.73038 11.844 6.62618 11.7751 6.53872 11.6876L3.29283 8.44169C3.20243 8.35747 3.12993 8.25589 3.07965 8.14304C3.02936 8.03018 3.00232 7.90835 3.00014 7.78482C2.99796 7.66128 3.02069 7.53858 3.06696 7.42401C3.11323 7.30945 3.18211 7.20539 3.26947 7.11802C3.35684 7.03066 3.4609 6.96178 3.57547 6.91551C3.69003 6.86924 3.81273 6.84651 3.93627 6.84869C4.0598 6.85087 4.18163 6.87791 4.29449 6.9282C4.40734 6.97848 4.50892 7.05098 4.59315 7.14138L7.16189 9.70889L11.4223 4.28068L11.4456 4.25369Z" fill="white"/>
</g>
</svg>
