<svg width="26" height="27" viewBox="0 0 26 27" fill="none" xmlns="http://www.w3.org/2000/svg">
<g id="a" clip-path="url(#clip0_681_5941)">
<path id="Vector" d="M9.06287 24.7266C8.76148 24.6289 8.43887 24.7987 8.34548 25.1044C8.31153 25.2147 8.31153 25.3294 8.34124 25.4312C8.38793 25.5925 8.4983 25.7241 8.65536 25.7963C8.67659 25.7963 8.69781 25.7963 8.71904 25.7963H8.72753C8.92279 25.7963 9.10957 25.6987 9.21569 25.5246L9.2454 25.4737L9.27512 25.427H9.27936L9.61471 24.8794C9.42793 24.8285 9.2454 24.7775 9.06287 24.7223V24.7266ZM17.2555 0.989108L16.7164 1.62584L16.6782 1.66829L16.7207 1.62584L17.4211 0.853271C17.3616 0.887231 17.3022 0.933925 17.2555 0.989108Z" fill="#159C2A"/>
<path id="Vector_2" d="M25.8769 11.2787C25.826 10.9094 25.7623 10.5443 25.6817 10.1877C25.2996 8.4728 24.595 6.86822 23.5805 5.4292C22.3876 3.73124 20.8255 2.34316 19.0172 1.36683C18.6606 1.17157 18.2913 0.993282 17.9178 0.831976C17.888 0.819242 17.8626 0.810752 17.8329 0.806507C17.7904 0.772548 17.7437 0.751323 17.6928 0.730099C17.6546 0.717364 17.6121 0.704629 17.5739 0.691895L17.4211 0.853201L16.7207 1.62577L16.6782 1.66822V1.67671L14.1398 4.67361C13.987 4.8519 13.9615 5.10235 14.0676 5.31035C14.178 5.5141 14.3987 5.6372 14.6322 5.61173L16.3556 5.44194L13.6983 9.5977C13.5243 9.86512 13.6049 10.2217 13.8681 10.3915C14.1356 10.5613 14.4921 10.4849 14.6619 10.2175L17.9645 5.06839C18.0833 4.88161 18.0833 4.64814 17.9687 4.45712C17.8541 4.27035 17.6418 4.16422 17.4211 4.18545L15.9269 4.33402L17.8498 2.05875C19.7685 2.96292 21.4156 4.34675 22.6423 6.09141C23.5422 7.36912 24.179 8.79116 24.5313 10.3108H22.9777C22.5702 10.3108 22.2009 10.5613 22.0438 10.9348C21.3094 10.2981 21.0675 9.61467 19.9468 9.61892H17.4636C16.8523 9.61892 16.3132 10.0264 16.1434 10.6122H15.0737C14.9336 10.6122 14.7978 10.6377 14.6662 10.6801C13.9785 10.9094 13.6049 11.648 13.8299 12.3399C13.6262 12.4545 13.4521 12.6286 13.3333 12.8323C12.9555 13.4775 13.1762 14.3053 13.8214 14.6788C13.6049 15.358 13.9658 16.0881 14.6365 16.3301C14.6067 16.4362 14.5898 16.5466 14.5898 16.657C14.5855 17.3913 15.1756 17.9856 15.9057 17.9899H17.4126C17.4593 17.9941 19.9596 17.9856 19.968 17.9941C20.9147 17.9941 21.3858 17.2852 22.0353 16.9117C22.1839 17.3022 22.5574 17.5569 22.9777 17.5569H24.0007C22.1754 22.1796 17.6546 25.2699 12.6711 25.2699C11.6353 25.2699 10.608 25.1383 9.61474 24.8836L9.27939 25.4269H9.27515L9.01196 25.9066C10.1963 26.2462 11.4273 26.416 12.6711 26.416C18.2022 26.416 23.2196 22.9352 25.1553 17.7606C25.2869 17.4126 25.4058 17.0475 25.5076 16.6867C25.8345 15.5236 26 14.3095 26 13.087C26 12.48 25.9576 11.873 25.8769 11.2787ZM15.0779 11.665H16.0925V12.1956H15.0779C14.9336 12.1913 14.819 12.0767 14.819 11.9366C14.8147 11.7881 14.9294 11.6692 15.0779 11.665ZM14.4369 13.7789C14.2969 13.7704 14.1865 13.6601 14.1822 13.52C14.1738 13.3757 14.2884 13.2526 14.4369 13.2441H16.0925C16.084 13.4224 16.0925 13.6006 16.1264 13.7747C15.7231 13.7747 14.8275 13.7789 14.4369 13.7789ZM14.8062 15.0906C14.8062 14.9548 14.9124 14.8401 15.0482 14.8274H17.4763C17.6206 14.8232 17.7437 14.9378 17.748 15.0864C17.748 15.2307 17.6334 15.3538 17.489 15.358H15.9057C15.5151 15.3198 14.802 15.5066 14.8062 15.0906ZM17.489 16.9371H15.9057C15.7614 16.9371 15.6467 16.8225 15.6467 16.6782C15.6425 16.5339 15.7571 16.4108 15.9057 16.4065H17.489C17.6334 16.4065 17.7522 16.5254 17.7522 16.6739C17.7522 16.8225 17.6334 16.9371 17.489 16.9371ZM21.9631 15.8165C21.1396 15.982 20.6345 16.9499 19.8747 16.9414H18.7752C18.8516 16.5721 18.7667 16.1858 18.5375 15.8844C18.8941 15.4047 18.8856 14.7552 18.5248 14.2841C18.9323 13.8723 18.7752 12.7517 18.8049 12.2083C18.8007 11.9239 18.5715 11.6989 18.2913 11.6947C17.9984 11.6862 17.7607 11.9154 17.7522 12.2083V13.4224C17.7522 13.4224 17.7565 13.4521 17.7565 13.4648C17.7565 13.6346 17.6206 13.7704 17.4508 13.7704C17.281 13.7747 17.1409 13.6346 17.1409 13.4648V10.99C17.1409 10.8117 17.2853 10.6717 17.4636 10.6717H19.9468C20.227 10.6674 20.4987 10.7948 20.6769 11.0112C20.9656 11.5037 21.424 11.8687 21.9631 12.0385V15.8165ZM24.404 16.3768C24.387 16.4277 24.37 16.4829 24.353 16.5339L23.0159 16.5466V16.3301C23.0159 16.2834 23.0116 11.6352 23.0159 11.5801C23.0159 11.5121 23.0031 11.4442 22.9777 11.3848L24.7266 11.3593C24.7266 11.3848 24.7351 11.406 24.7393 11.4315C24.8157 11.9748 24.8497 12.5352 24.8497 13.087C24.8497 14.2077 24.7011 15.3113 24.404 16.3768Z" fill="#159C2A"/>
<path id="Vector_3" d="M24.8497 13.087C24.8497 14.2077 24.7011 15.3114 24.4039 16.3768C24.387 16.4278 24.37 16.483 24.353 16.5339L23.0159 16.5466V16.3302C23.0159 16.2835 23.0116 11.6353 23.0159 11.5801C23.0159 11.5122 23.0031 11.4443 22.9777 11.3848L24.7266 11.3594C24.7266 11.3848 24.735 11.4061 24.7393 11.4315C24.8157 11.9749 24.8497 12.5352 24.8497 13.087Z" fill="#E8F6EA"/>
<path id="Vector_4" d="M21.9631 12.0386V15.8165C21.1396 15.9821 20.6344 16.9499 19.8746 16.9414H18.7752C18.8516 16.5721 18.7667 16.1859 18.5374 15.8845C18.894 15.4048 18.8855 14.7553 18.5247 14.2841C18.9322 13.8724 18.7752 12.7517 18.8049 12.2084C18.8006 11.924 18.5714 11.699 18.2912 11.6948C17.9983 11.6863 17.7606 11.9155 17.7521 12.2084V13.4224C17.7521 13.4224 17.7564 13.4521 17.7564 13.4649C17.7564 13.6347 17.6205 13.7705 17.4507 13.7705C17.281 13.7748 17.1409 13.6347 17.1409 13.4649V10.9901C17.1409 10.8118 17.2852 10.6717 17.4635 10.6717H19.9467C20.2269 10.6675 20.4986 10.7948 20.6769 11.0113C20.9655 11.5037 21.424 11.8688 21.9631 12.0386Z" fill="#E8F6EA"/>
<path id="Vector_5" d="M16.0924 11.665V12.1957H15.0779C14.9336 12.1914 14.819 12.0768 14.819 11.9367C14.8147 11.7881 14.9293 11.6693 15.0779 11.665H16.0924Z" fill="#E8F6EA"/>
<path id="Vector_6" d="M16.1264 13.7748C15.7231 13.7748 14.8274 13.779 14.4369 13.779C14.2968 13.7705 14.1865 13.6601 14.1822 13.5201C14.1737 13.3757 14.2883 13.2526 14.4369 13.2441H16.0924C16.0839 13.4224 16.0924 13.6007 16.1264 13.7748Z" fill="#E8F6EA"/>
<path id="Vector_7" d="M17.7522 16.6739C17.7522 16.8225 17.6333 16.9371 17.489 16.9371H15.9057C15.7613 16.9371 15.6467 16.8225 15.6467 16.6782C15.6425 16.5338 15.7571 16.4107 15.9057 16.4065H17.489C17.6333 16.4065 17.7522 16.5254 17.7522 16.6739Z" fill="#E8F6EA"/>
<path id="Vector_8" d="M17.7479 15.0864C17.7479 15.2308 17.6333 15.3539 17.4889 15.3581H15.9056C15.5151 15.3199 14.8019 15.5067 14.8062 15.0907C14.8062 14.9549 14.9123 14.8402 15.0481 14.8275H17.4762C17.6205 14.8233 17.7436 14.9379 17.7479 15.0864Z" fill="#E8F6EA"/>
<path id="Vector_9" d="M16.9329 0.492408C15.7655 0.165551 14.5558 0 13.329 0C7.1569 0 1.82955 4.18547 0.377796 10.175C0.292898 10.5231 0.220735 10.8882 0.161306 11.2617C0.0551837 11.9409 0 12.6371 0 13.329C0 14.4624 0.144327 15.583 0.42449 16.6697C0.42449 16.6825 0.42449 16.6952 0.43298 16.7079C0.526367 17.0602 0.63249 17.4126 0.751347 17.7479C0.857469 18.0536 0.980571 18.3592 1.11216 18.6648C2.49175 21.8145 5.05567 24.3275 8.23086 25.6307C8.31575 25.6689 8.43461 25.7156 8.51951 25.7496C8.54498 25.758 8.60441 25.7793 8.65535 25.7962C8.68506 25.809 8.71477 25.8175 8.72326 25.8217C8.8209 25.8514 8.91428 25.8811 9.01192 25.9066L9.2751 25.4312H9.27935L9.61469 24.8836L12.1192 20.817C12.2465 20.609 12.2295 20.3458 12.081 20.1548C11.9833 20.0359 11.8433 19.9595 11.6947 19.9425H11.6565C11.6565 19.9425 11.631 19.9383 11.614 19.9383C11.5589 19.9425 11.4952 19.951 11.44 19.968L8.99069 20.7958L9.73355 19.5011C9.89061 19.2251 9.79722 18.8771 9.52131 18.72C9.24539 18.5629 8.89731 18.6563 8.74024 18.9322L7.2418 21.5429C7.12294 21.7509 7.14416 22.0098 7.29698 22.1923C7.44555 22.3791 7.696 22.447 7.92522 22.3749L10.2981 21.5683L8.4898 24.5058C5.68392 23.2875 3.39592 21.0122 2.16914 18.2021C2.16065 18.1851 2.15216 18.1724 2.13943 18.1554C2.05453 17.9559 1.97812 17.7564 1.90596 17.5569H3.23886C3.6591 17.5569 4.03265 17.3022 4.18547 16.9117C4.83069 17.2852 5.30188 17.9941 6.25273 17.9941C6.26122 17.9856 8.75722 17.9941 8.80392 17.9899H10.3109C11.041 17.9856 11.631 17.3913 11.6268 16.657C11.6268 16.5466 11.6098 16.4362 11.5843 16.3301C12.255 16.0882 12.6116 15.358 12.3951 14.6789C13.0403 14.3053 13.2568 13.4776 12.8875 12.8323C12.7687 12.6286 12.5946 12.4545 12.3866 12.3399C12.6116 11.648 12.2423 10.9094 11.5546 10.6802C11.423 10.6377 11.2829 10.6122 11.1429 10.6122H10.0731C9.90335 10.0265 9.36424 9.61894 8.75298 9.61894H6.26971C5.14906 9.61894 4.9071 10.2981 4.17698 10.9349C4.01567 10.5613 3.65061 10.3109 3.23886 10.3109H1.52816C2.90351 4.91135 7.7342 1.15037 13.329 1.15037C14.4496 1.15037 15.5575 1.29894 16.623 1.59608C16.6527 1.60457 16.6824 1.61731 16.7164 1.6258H16.7207L17.4211 0.853225L17.5739 0.691918C17.3616 0.619755 17.1494 0.551837 16.9329 0.492408ZM10.3109 16.9371H8.72751C8.58318 16.9371 8.46433 16.8225 8.46433 16.674C8.46433 16.5254 8.58318 16.4065 8.72751 16.4065H10.3109C10.4594 16.4065 10.574 16.5339 10.5698 16.6782C10.5655 16.8225 10.4552 16.9371 10.3109 16.9371ZM10.1241 11.665H11.1429C11.2872 11.6692 11.4018 11.7881 11.3976 11.9367C11.3976 12.0767 11.2829 12.1913 11.1429 12.1956H10.1241V11.665ZM10.1241 13.2441H11.7796C11.9282 13.2526 12.0428 13.3757 12.0385 13.52C12.0343 13.6601 11.9197 13.7704 11.7796 13.7789C11.3891 13.7789 10.4934 13.7747 10.0901 13.7747C10.1241 13.6007 10.1326 13.4224 10.1241 13.2441ZM11.1683 14.8274C11.3042 14.8402 11.406 14.9548 11.4103 15.0906C11.4145 15.5066 10.7014 15.3198 10.3109 15.358H8.72751C8.58318 15.3538 8.46433 15.2307 8.46857 15.0864C8.47282 14.9378 8.59592 14.8232 8.74024 14.8274H11.1683ZM4.25339 12.0385C4.79249 11.8687 5.25518 11.5037 5.53959 11.0113C5.71788 10.7948 5.98955 10.6674 6.26971 10.6717H8.75298C8.93126 10.6717 9.07559 10.8118 9.07559 10.99V13.4648C9.07559 13.6346 8.93551 13.7747 8.76571 13.7704C8.59592 13.7704 8.46008 13.6346 8.46008 13.4648C8.46008 13.4521 8.46008 13.4351 8.46008 13.4224V12.2083C8.45159 11.9154 8.21388 11.6862 7.92522 11.6947C7.64082 11.6989 7.41584 11.9239 7.40735 12.2083C7.43706 12.7517 7.28424 13.8723 7.68751 14.2841C7.32669 14.7553 7.3182 15.4047 7.67478 15.8844C7.44555 16.1858 7.36065 16.5721 7.43706 16.9414H6.33763C5.5778 16.9499 5.07265 15.982 4.24914 15.8165V12.0385H4.25339ZM3.23886 11.3848C3.21339 11.4442 3.20065 11.5122 3.20065 11.5801V16.5466L1.5791 16.5339C1.56637 16.4829 1.54939 16.4362 1.53665 16.3853L1.52392 16.3471C1.27347 15.3665 1.15037 14.352 1.15037 13.329C1.15037 12.6922 1.19706 12.0598 1.29469 11.44C1.29894 11.4103 1.30318 11.3848 1.30743 11.3551L3.23886 11.3848Z" fill="#232323"/>
<path id="Vector_10" d="M11.3975 11.9367C11.3975 12.0768 11.2829 12.1914 11.1428 12.1957H10.124V11.665H11.1428C11.2871 11.6693 11.4017 11.7881 11.3975 11.9367Z" fill="#E7E7E7"/>
<path id="Vector_11" d="M12.0385 13.5201C12.0343 13.6601 11.9196 13.7705 11.7796 13.779C11.389 13.779 10.4934 13.7748 10.0901 13.7748C10.124 13.6007 10.1325 13.4224 10.124 13.2441H11.7796C11.9281 13.2526 12.0427 13.3757 12.0385 13.5201Z" fill="#E7E7E7"/>
<path id="Vector_12" d="M10.5698 16.6782C10.5656 16.8225 10.4552 16.9371 10.3109 16.9371H8.72754C8.58321 16.9371 8.46436 16.8225 8.46436 16.6739C8.46436 16.5254 8.58321 16.4065 8.72754 16.4065H10.3109C10.4595 16.4065 10.5741 16.5338 10.5698 16.6782Z" fill="#E7E7E7"/>
<path id="Vector_13" d="M11.4103 15.0907C11.4146 15.5067 10.7014 15.3199 10.3109 15.3581H8.72755C8.58323 15.3539 8.46437 15.2308 8.46862 15.0864C8.47286 14.9379 8.59596 14.8233 8.74029 14.8275H11.1684C11.3042 14.8402 11.4061 14.9549 11.4103 15.0907Z" fill="#E7E7E7"/>
<path id="Vector_14" d="M9.07559 10.9901V13.4649C9.07559 13.6347 8.93551 13.7748 8.76572 13.7705C8.59592 13.7705 8.46008 13.6347 8.46008 13.4649C8.46008 13.4521 8.46008 13.4352 8.46008 13.4224V12.2084C8.45159 11.9155 8.21388 11.6863 7.92523 11.6948C7.64082 11.699 7.41584 11.924 7.40735 12.2084C7.43706 12.7517 7.28425 13.8724 7.68751 14.2841C7.3267 14.7553 7.31821 15.4048 7.67478 15.8845C7.44555 16.1859 7.36066 16.5721 7.43706 16.9414H6.33764C5.5778 16.9499 5.07266 15.9821 4.24915 15.8165V12.0386C4.78825 11.8688 5.25094 11.5037 5.53535 11.0113C5.71364 10.7948 5.98531 10.6675 6.26547 10.6717H8.74874C8.92702 10.6717 9.07135 10.8118 9.07135 10.9901H9.07559Z" fill="#E7E7E7"/>
<path id="Vector_15" d="M3.23888 11.3849C3.21341 11.4444 3.20068 11.5123 3.20068 11.5802V16.5467L1.57913 16.534C1.56639 16.4831 1.54941 16.4364 1.53668 16.3854L1.52394 16.3472C1.27349 15.3667 1.15039 14.3521 1.15039 13.3291C1.15039 12.6924 1.19708 12.0599 1.29472 11.4401C1.29896 11.4104 1.30321 11.3849 1.30745 11.3552L3.23888 11.3849Z" fill="#E7E7E7"/>
</g>
<defs>
<clipPath id="clip0_681_5941">
<rect width="26" height="26.416" fill="white"/>
</clipPath>
</defs>
</svg>
