<svg width="21" height="9" viewBox="0 0 21 9" fill="none" xmlns="http://www.w3.org/2000/svg">
<g id="Group 82">
<path id="Vector" d="M8.32699 0H4.66585C3.42839 1.77842e-08 2.24161 0.474106 1.3666 1.31802C0.491579 2.16193 0 3.30653 0 4.5C0 5.69347 0.491579 6.83807 1.3666 7.68198C2.24161 8.52589 3.42839 9 4.66585 9H9.3317C10.0784 9.00038 10.8142 8.82793 11.4774 8.49715C12.1406 8.16636 12.7119 7.6869 13.1431 7.09904C13.5743 6.51118 13.853 5.83209 13.9557 5.11882C14.0583 4.40555 13.982 3.67893 13.7332 3H12.4423C12.3075 3 12.1779 3.0155 12.0534 3.0465C12.3157 3.50326 12.4499 4.01813 12.4426 4.54022C12.4354 5.06231 12.287 5.57353 12.0121 6.02334C11.7372 6.47315 11.3453 6.84598 10.8752 7.10496C10.4051 7.36394 9.87308 7.50011 9.3317 7.5H4.66585C3.84088 7.5 3.04969 7.18393 2.46635 6.62132C1.883 6.05871 1.55528 5.29565 1.55528 4.5C1.55528 3.70435 1.883 2.94129 2.46635 2.37868C3.04969 1.81607 3.84088 1.5 4.66585 1.5H7.05321C7.39226 0.936 7.82152 0.429 8.32699 0Z" fill="#8B928C"/>
<path id="Vector_2" d="M12.3348 6.18722e-07C11.6415 -0.000376965 10.9582 0.17207 10.3424 0.502855C9.72656 0.833639 9.19614 1.3131 8.7957 1.90096C8.39526 2.48882 8.1365 3.16791 8.04116 3.88118C7.94582 4.59445 8.01668 5.32107 8.24779 6H9.83351C9.58 5.54395 9.44654 5.02662 9.44654 4.50002C9.44653 3.97342 9.57999 3.45609 9.83349 3.00003C10.087 2.54398 10.4516 2.16526 10.8907 1.90195C11.3298 1.63864 11.8278 1.50001 12.3348 1.5H16.6674C17.4335 1.5 18.1681 1.81607 18.7098 2.37868C19.2515 2.94129 19.5558 3.70435 19.5558 4.5C19.5558 5.29565 19.2515 6.05871 18.7098 6.62132C18.1681 7.18393 17.4335 7.5 16.6674 7.5H14.4506C14.1368 8.06341 13.7368 8.57003 13.2664 9H16.6674C17.2364 9 17.7998 8.8836 18.3254 8.65746C18.8511 8.43131 19.3287 8.09984 19.731 7.68198C20.1333 7.26412 20.4525 6.76804 20.6702 6.22208C20.8879 5.67611 21 5.09095 21 4.5C21 3.90905 20.8879 3.32389 20.6702 2.77792C20.4525 2.23196 20.1333 1.73588 19.731 1.31802C19.3287 0.900157 18.8511 0.568689 18.3254 0.342543C17.7998 0.116397 17.2364 6.09917e-07 16.6674 6.18722e-07H12.3348Z" fill="#8B928C"/>
</g>
</svg>
