<svg width="15" height="19" viewBox="0 0 15 19" fill="none" xmlns="http://www.w3.org/2000/svg">
<path fill-rule="evenodd" clip-rule="evenodd" d="M14.0553 5.0125C14.0543 4.92993 14.0281 4.84837 13.9714 4.7839L10.5008 0.818509C10.5003 0.817842 10.4998 0.817446 10.4992 0.817018L10.498 0.816024C10.4773 0.792913 10.4536 0.773855 10.428 0.757053C10.4205 0.752149 10.4128 0.747736 10.4049 0.743258C10.3825 0.731293 10.3594 0.721356 10.3353 0.714099C10.3323 0.713237 10.3295 0.712214 10.3267 0.711194C10.3233 0.709969 10.3199 0.70875 10.3163 0.707822C10.2898 0.701481 10.2629 0.697754 10.2354 0.697754H1.70588C1.31673 0.697754 1 1.01461 1 1.40388V17.997C1 18.3865 1.31673 18.7032 1.70588 18.7032H13.3529C13.7424 18.7032 14.0588 18.3865 14.0588 17.997V5.05206C14.0588 5.04221 14.0576 5.03251 14.0565 5.02275L14.0553 5.0125ZM4.73378 17.0724C4.31502 17.4206 3.67806 17.5857 2.89937 17.5857C2.4333 17.5857 2.1031 17.5561 1.87915 17.5267V13.6215C2.20934 13.5684 2.63993 13.5388 3.09418 13.5388C3.84891 13.5388 4.33842 13.6747 4.72172 13.9636C5.13472 14.2704 5.39423 14.76 5.39423 15.4619C5.3941 16.223 5.11708 16.7479 4.73378 17.0724ZM7.67102 17.6095C6.49158 17.6095 5.80155 16.7186 5.80155 15.5859C5.80155 14.3942 6.56233 13.5035 7.73583 13.5035C8.95661 13.5035 9.62324 14.418 9.62324 15.515C9.62327 16.819 8.83291 17.6095 7.67102 17.6095ZM12.2479 16.8603C12.5191 16.8603 12.8201 16.801 12.9969 16.7305L13.1326 17.4325C12.9675 17.5154 12.596 17.6036 12.1124 17.6036C10.7382 17.6036 10.0306 16.7481 10.0306 15.6155C10.0306 14.2588 10.9978 13.5037 12.2006 13.5037C12.6667 13.5037 13.0206 13.598 13.1799 13.6807L12.9968 14.3944C12.8143 14.3178 12.5604 14.2468 12.2421 14.2468C11.5287 14.2468 10.974 14.6776 10.974 15.5624C10.974 16.3587 11.4458 16.8603 12.2479 16.8603ZM1.70588 12.6867V1.40388H9.88242V5.01655C9.88242 5.21142 10.0403 5.3696 10.2354 5.3696H13.3529L13.3533 12.6867H1.70588ZM12.9736 4.65177L10.588 1.90669V4.65177H12.9736ZM4.73709 6.03999L4.95363 5.1597C5.00902 4.94601 5.04529 4.76552 5.07876 4.56558H5.08418C5.10624 4.76816 5.13957 4.94601 5.18673 5.1597L5.38137 6.03999H5.7481L6.25029 4.16852H5.9032L5.70889 5.01538C5.65892 5.24319 5.61425 5.45672 5.58111 5.66251H5.57532C5.54774 5.45976 5.50879 5.25149 5.46166 5.02934L5.27562 4.16872H4.91745L4.71503 5.01558L4.69144 5.11972C4.64661 5.31699 4.60431 5.50314 4.57863 5.67081H4.57346C4.54294 5.48486 4.49833 5.24591 4.45101 5.01826L4.27327 4.16872H3.90948L4.36771 6.04018H4.73709V6.03999ZM6.6347 5.57129H9.20306C9.33198 5.57129 9.43675 5.46669 9.43675 5.33754C9.43675 5.20839 9.33198 5.10368 9.20306 5.10368H6.6347C6.50552 5.10368 6.40117 5.20839 6.40117 5.33754C6.40101 5.46669 6.50525 5.57129 6.6347 5.57129ZM6.7504 15.5682C6.7504 14.7958 7.10445 14.2178 7.71167 14.2178C8.33105 14.2178 8.67297 14.8309 8.67297 15.5447C8.67297 16.3171 8.3252 16.8951 7.71755 16.8951C7.11608 16.8951 6.7504 16.3467 6.7504 15.5682ZM2.78135 14.2647C2.85786 14.2471 2.98779 14.2295 3.18841 14.2295C3.96083 14.2295 4.44455 14.6659 4.43834 15.4917C4.43834 16.4409 3.90753 16.8894 3.09387 16.8835C2.98194 16.8835 2.85786 16.8835 2.78135 16.8655V14.2647ZM4.05717 6.94161H10.4467C10.5762 6.94161 10.6808 7.04625 10.6808 7.17537C10.6808 7.30461 10.576 7.40906 10.4467 7.40906H4.05717C3.92802 7.40906 3.82315 7.30461 3.82315 7.17537C3.82315 7.04622 3.92802 6.94161 4.05717 6.94161ZM4.06894 8.83253H10.4585C10.5879 8.83253 10.6925 8.93713 10.6925 9.06638C10.6925 9.19553 10.5877 9.30014 10.4585 9.30014H4.06894C3.93979 9.30014 3.83493 9.19553 3.83493 9.06638C3.83493 8.93713 3.93979 8.83253 4.06894 8.83253ZM10.4585 10.7342H4.06894C3.93979 10.7342 3.83493 10.839 3.83493 10.9683C3.83493 11.0973 3.93979 11.202 4.06894 11.202H10.4585C10.5877 11.202 10.6925 11.0973 10.6925 10.9683C10.6925 10.839 10.5879 10.7342 10.4585 10.7342Z" fill="#4181ED"/>
<path d="M10.3222 0.714099C10.3466 0.721356 10.3696 0.731293 10.3915 0.743258M10.3222 0.714099L10.3662 0.570694C10.3666 0.570809 10.3669 0.570908 10.3671 0.570981M10.3222 0.714099C10.3196 0.713308 10.3171 0.712382 10.3145 0.711447C10.3108 0.710139 10.3071 0.708814 10.3034 0.707822L10.3671 0.570981M10.3222 0.714099L10.3651 0.570355C10.3657 0.570543 10.3664 0.570733 10.367 0.570924M10.3915 0.743258L10.3673 0.57103C10.3677 0.571168 10.3676 0.571126 10.3671 0.570981M10.3915 0.743258L10.3935 0.744399L10.3915 0.743258ZM10.3671 0.570981L10.367 0.570924M10.367 0.570924L10.3634 0.569643L10.3634 0.569625C10.3597 0.568328 10.3513 0.565316 10.3413 0.562694L10.3413 0.562673L10.3388 0.562076C10.3029 0.553323 10.2638 0.547754 10.2231 0.547754H1.732C1.26107 0.547754 0.879297 0.932461 0.879297 1.40388V17.997C0.879297 18.4686 1.26109 18.8532 1.732 18.8532H13.3266C13.7975 18.8532 14.1793 18.4687 14.1793 17.997L14.1793 5.05205L14.1793 5.05169C14.1793 5.0334 14.1768 5.01185 14.1757 5.00214C14.1726 4.89228 14.1366 4.77815 14.0552 4.68519C14.0552 4.68515 14.0552 4.68512 14.0552 4.68509L10.6004 0.71997L10.5946 0.713385L10.5907 0.709785C10.5609 0.677694 10.5287 0.652493 10.4976 0.631936L10.4976 0.631932L10.4966 0.631262C10.4857 0.624214 10.475 0.618165 10.4684 0.614406L10.4674 0.613862L10.4674 0.613846L10.4654 0.61272L10.4654 0.612703L10.4633 0.611539C10.4338 0.595489 10.4018 0.581462 10.367 0.570924Z" stroke="#4181ED" stroke-width="0.3"/>
</svg>
