<svg width="44" height="39" viewBox="0 0 44 39" fill="none" xmlns="http://www.w3.org/2000/svg">
<rect x="0.0280971" y="0.0280971" width="43.9438" height="38.7178" rx="2.9719" fill="white"/>
<rect x="0.0280971" y="0.0280971" width="43.9438" height="38.7178" rx="2.9719" fill="#E8E8E8" fill-opacity="0.75"/>
<rect x="0.0280971" y="0.0280971" width="43.9438" height="38.7178" rx="2.9719" stroke="#D2DAD2" stroke-width="0.0561941"/>
<rect width="35.4023" height="11.188" transform="translate(4.29883 1.34766)" fill="white"/>
<path d="M19.5827 3.53987V3.49158H19.7058C19.737 3.49158 19.7612 3.48353 19.7783 3.46744C19.7954 3.45114 19.8039 3.4287 19.8039 3.40013V3.39953C19.8039 3.37075 19.7954 3.34832 19.7783 3.33222C19.7612 3.31612 19.737 3.30807 19.7058 3.30807H19.5827V3.25978H19.7197C19.7471 3.25978 19.7712 3.26562 19.7922 3.27729C19.8131 3.28896 19.8295 3.30526 19.8414 3.32618C19.8534 3.34711 19.8595 3.37135 19.8595 3.39892V3.39953C19.8595 3.42709 19.8534 3.45144 19.8414 3.47257C19.8295 3.49369 19.8131 3.51019 19.7922 3.52207C19.7712 3.53394 19.7471 3.53987 19.7197 3.53987H19.5827ZM19.5555 3.69531V3.25978H19.6099V3.69531H19.5555ZM20.1314 3.70557C20.0898 3.70557 20.054 3.69632 20.0243 3.67781C19.9945 3.65909 19.9715 3.63263 19.9555 3.59843C19.9396 3.56422 19.9316 3.52398 19.9316 3.4777V3.47709C19.9316 3.43041 19.9397 3.39007 19.9558 3.35606C19.9721 3.32206 19.9951 3.2958 20.0249 3.27729C20.0549 3.25877 20.0904 3.24952 20.1314 3.24952C20.1727 3.24952 20.2082 3.25877 20.238 3.27729C20.2679 3.2958 20.291 3.32216 20.3071 3.35636C20.3232 3.39037 20.3312 3.43061 20.3312 3.47709V3.4777C20.3312 3.52398 20.3232 3.56422 20.3071 3.59843C20.2912 3.63243 20.2682 3.65879 20.2383 3.6775C20.2085 3.69622 20.1729 3.70557 20.1314 3.70557ZM20.1314 3.65547C20.1612 3.65547 20.1869 3.64813 20.2084 3.63344C20.2299 3.61875 20.2465 3.59813 20.2582 3.57156C20.2699 3.5448 20.2757 3.51351 20.2757 3.4777V3.47709C20.2757 3.44087 20.2699 3.40949 20.2582 3.38292C20.2465 3.35636 20.2299 3.33584 20.2084 3.32135C20.1869 3.30687 20.1612 3.29962 20.1314 3.29962C20.1018 3.29962 20.0763 3.30687 20.0548 3.32135C20.0332 3.33584 20.0165 3.35636 20.0046 3.38292C19.993 3.40949 19.9871 3.44087 19.9871 3.47709V3.4777C19.9871 3.51351 19.9929 3.5448 20.0043 3.57156C20.0158 3.59813 20.0323 3.61875 20.0538 3.63344C20.0754 3.64813 20.1012 3.65547 20.1314 3.65547ZM20.4975 3.69531L20.3789 3.25978H20.4357L20.5223 3.61382H20.5259L20.6234 3.25978H20.6783L20.7758 3.61382H20.7794L20.8661 3.25978H20.9228L20.8042 3.69531H20.7529L20.6527 3.35154H20.649L20.5488 3.69531H20.4975ZM21.0055 3.69531V3.25978H21.2753V3.30868H21.0598V3.44842H21.2642V3.49671H21.0598V3.64642H21.2753V3.69531H21.0055ZM21.3737 3.69531V3.25978H21.54C21.568 3.25978 21.5923 3.26521 21.6131 3.27608C21.634 3.28674 21.6502 3.30173 21.6617 3.32105C21.6731 3.34037 21.6789 3.3631 21.6789 3.38926V3.38987C21.6789 3.42005 21.6711 3.44621 21.6556 3.46834C21.6401 3.49047 21.6187 3.50587 21.5913 3.51452L21.6921 3.69531H21.6285L21.5352 3.52297C21.5348 3.52297 21.5343 3.52297 21.5337 3.52297C21.5331 3.52297 21.5326 3.52297 21.5322 3.52297H21.4281V3.69531H21.3737ZM21.4281 3.47468H21.5352C21.5632 3.47468 21.5847 3.46754 21.5998 3.45325C21.6151 3.43876 21.6227 3.41824 21.6227 3.39168V3.39107C21.6227 3.36512 21.6148 3.34479 21.5989 3.33011C21.583 3.31542 21.561 3.30807 21.5328 3.30807H21.4281V3.47468ZM21.7776 3.69531V3.25978H22.0474V3.30868H21.8319V3.44842H22.0362V3.49671H21.8319V3.64642H22.0474V3.69531H21.7776ZM22.1458 3.69531V3.25978H22.2952C22.3383 3.25978 22.3751 3.26843 22.4057 3.28574C22.4364 3.30284 22.46 3.32759 22.4763 3.35999C22.4926 3.39238 22.5007 3.43142 22.5007 3.47709V3.4777C22.5007 3.52337 22.4926 3.56251 22.4763 3.59511C22.46 3.6275 22.4365 3.65235 22.406 3.66966C22.3754 3.68676 22.3385 3.69531 22.2952 3.69531H22.1458ZM22.2001 3.64642H22.2916C22.324 3.64642 22.3516 3.63978 22.3746 3.6265C22.3975 3.61322 22.415 3.594 22.4271 3.56885C22.4392 3.5437 22.4452 3.51351 22.4452 3.4783V3.4777C22.4452 3.44228 22.4391 3.412 22.4268 3.38685C22.4147 3.3615 22.3972 3.34218 22.3743 3.3289C22.3513 3.31542 22.3238 3.30868 22.2916 3.30868H22.2001V3.64642ZM22.7959 3.69531V3.64732H22.9305C22.9633 3.64732 22.9882 3.64078 23.0051 3.6277C23.022 3.61462 23.0304 3.59561 23.0304 3.57066V3.57006C23.0304 3.55335 23.0265 3.53937 23.0187 3.5281C23.0108 3.51683 22.999 3.50838 22.9833 3.50275C22.9679 3.49711 22.9485 3.4943 22.9254 3.4943H22.7959V3.44752H22.91C22.943 3.44752 22.9678 3.44168 22.9843 3.43001C23.001 3.41834 23.0093 3.40103 23.0093 3.3781V3.37749C23.0093 3.35536 23.0018 3.33825 22.9867 3.32618C22.9718 3.31391 22.9509 3.30777 22.9239 3.30777H22.7959V3.25978H22.9354C22.9621 3.25978 22.9851 3.26421 23.0042 3.27306C23.0235 3.28191 23.0383 3.29449 23.0485 3.31079C23.059 3.32689 23.0642 3.346 23.0642 3.36814V3.36874C23.0642 3.38383 23.0608 3.39802 23.054 3.4113C23.0473 3.42458 23.0384 3.43574 23.0271 3.4448C23.0158 3.45385 23.0032 3.45969 22.9891 3.4623V3.46713C23.009 3.46955 23.0262 3.47548 23.0407 3.48494C23.0552 3.4944 23.0664 3.50667 23.0742 3.52176C23.0822 3.53665 23.0863 3.55366 23.0863 3.57277V3.57338C23.0863 3.59873 23.0803 3.62056 23.0685 3.63887C23.0568 3.65698 23.04 3.67097 23.0181 3.68082C22.9961 3.69048 22.9697 3.69531 22.9387 3.69531H22.7959ZM22.7688 3.69531V3.25978H22.8231V3.69531H22.7688ZM23.2828 3.69531V3.50788L23.1282 3.25978H23.1901L23.3075 3.45325H23.3123L23.4297 3.25978H23.4916L23.3371 3.50788V3.69531H23.2828Z" fill="#232323" fill-opacity="0.8"/>
<path d="M15.4395 4.25781H16.1137V6.24779H15.4395V4.25781Z" fill="#159C2A"/>
<path d="M15.4395 4.25781H17.537V4.92114H15.4395V4.25781Z" fill="#159C2A"/>
<path d="M17.6869 4.25781H18.5858V7.50074H17.6869V4.25781Z" fill="#159C2A"/>
<path d="M15.4395 6.39518H17.537V7.50073H15.4395V6.39518Z" fill="#232323"/>
<path d="M20.2481 5.56938H19.9418V6.61751H19.7255V5.56938H19.6054V5.37116H19.7255V4.83358C19.7255 4.71946 19.7345 4.5753 19.8457 4.4822C19.9057 4.43114 19.9958 4.40111 20.0949 4.40111C20.173 4.40111 20.2241 4.41913 20.2481 4.42814V4.63837C20.203 4.62035 20.152 4.61134 20.1069 4.61134C20.0589 4.61134 20.0018 4.62335 19.9688 4.67741C19.9418 4.72246 19.9418 4.79153 19.9418 4.85761V5.37116H20.2481V5.56938Z" fill="#232323"/>
<path d="M20.5371 5.37116V6.09795C20.5371 6.18504 20.5371 6.28715 20.5972 6.36524C20.6302 6.40728 20.6963 6.46134 20.8164 6.46134C20.9365 6.46134 21.0026 6.40728 21.0357 6.36524C21.0957 6.28715 21.0957 6.18504 21.0957 6.09795V5.37116H21.3119V6.12198C21.3119 6.27514 21.2969 6.38927 21.1978 6.49738C21.0867 6.61451 20.9395 6.65355 20.8164 6.65355C20.6933 6.65355 20.5461 6.61451 20.435 6.49738C20.3359 6.38927 20.3209 6.27514 20.3209 6.12198V5.37116H20.5371Z" fill="#232323"/>
<path d="M21.4195 6.61751V5.37116H21.6358V5.51532C21.6748 5.46426 21.7859 5.34113 21.9931 5.34113C22.1403 5.34113 22.2755 5.40119 22.3505 5.51231C22.4136 5.60542 22.4226 5.70753 22.4226 5.84568V6.61751H22.2064V5.85168C22.2064 5.7766 22.2004 5.68951 22.1493 5.62344C22.1073 5.56938 22.0412 5.53334 21.9451 5.53334C21.87 5.53334 21.7889 5.55436 21.7259 5.62944C21.6418 5.72855 21.6358 5.87571 21.6358 5.96581V6.61751H21.4195Z" fill="#232323"/>
<path d="M23.575 5.54835V4.42814H23.7913V6.61751H23.575V6.44332C23.503 6.53642 23.3678 6.65355 23.1486 6.65355C22.8332 6.65355 22.5419 6.43131 22.5419 5.99284C22.5419 5.56337 22.8302 5.34113 23.1486 5.34113C23.3888 5.34113 23.518 5.47327 23.575 5.54835ZM23.1726 5.53334C22.9594 5.53334 22.7642 5.68951 22.7642 5.99284C22.7642 6.26013 22.9143 6.46134 23.1726 6.46134C23.4369 6.46134 23.5871 6.24211 23.5871 5.99584C23.5871 5.67449 23.3648 5.53334 23.1726 5.53334Z" fill="#232323"/>
<path d="M24.6513 5.56637L24.4741 5.65947C24.4441 5.5874 24.381 5.53334 24.2999 5.53334C24.2218 5.53334 24.1498 5.57839 24.1498 5.67449C24.1498 5.76459 24.2098 5.79162 24.351 5.85168C24.5312 5.92676 24.6153 5.98383 24.6633 6.04389C24.7174 6.10996 24.7294 6.17603 24.7294 6.24511C24.7294 6.50639 24.5402 6.65355 24.2999 6.65355C24.2489 6.65355 23.9696 6.64755 23.8645 6.33521L24.0507 6.25712C24.0747 6.32319 24.1468 6.46134 24.3029 6.46134C24.4441 6.46134 24.5072 6.35623 24.5072 6.26313C24.5072 6.146 24.4231 6.10696 24.3059 6.0559C24.1558 5.98983 24.0597 5.94178 24.0026 5.87271C23.9546 5.81264 23.9455 5.75258 23.9455 5.68951C23.9455 5.47027 24.0987 5.34113 24.3089 5.34113C24.375 5.34113 24.5522 5.35314 24.6513 5.56637Z" fill="#232323"/>
<path d="M24.8062 6.61751V4.42814H25.0224V5.51532C25.0614 5.46426 25.1726 5.34113 25.3798 5.34113C25.5269 5.34113 25.6621 5.40119 25.7372 5.51231C25.8002 5.60542 25.8093 5.70753 25.8093 5.84568V6.61751H25.593V5.85168C25.593 5.7766 25.587 5.68951 25.536 5.62344C25.4939 5.56938 25.4278 5.53334 25.3317 5.53334C25.2567 5.53334 25.1756 5.55436 25.1125 5.62944C25.0284 5.72855 25.0224 5.87571 25.0224 5.96581V6.61751H24.8062Z" fill="#232323"/>
<path d="M26.5592 6.65355C26.1808 6.65355 25.8985 6.37725 25.8985 5.99884C25.8985 5.62043 26.1778 5.34113 26.5592 5.34113C26.9407 5.34113 27.22 5.62043 27.22 5.99884C27.22 6.37725 26.9377 6.65355 26.5592 6.65355ZM26.5592 5.53334C26.331 5.53334 26.1208 5.69551 26.1208 5.99884C26.1208 6.30517 26.337 6.46134 26.5592 6.46134C26.7845 6.46134 26.9977 6.30217 26.9977 5.99884C26.9977 5.69251 26.7875 5.53334 26.5592 5.53334Z" fill="#232323"/>
<path d="M27.5275 6.44332V7.32027H27.3113V5.37116H27.5275V5.54535C27.6747 5.36215 27.8639 5.34113 27.954 5.34113C28.3444 5.34113 28.5607 5.66548 28.5607 6.00185C28.5607 6.34422 28.3414 6.65355 27.963 6.65355C27.7618 6.65355 27.6206 6.56345 27.5275 6.44332ZM27.933 6.46134C28.1853 6.46134 28.3384 6.25112 28.3384 6.00185C28.3384 5.69551 28.1312 5.53334 27.93 5.53334C27.7288 5.53334 27.5155 5.69852 27.5155 5.99884C27.5155 6.25412 27.6777 6.46134 27.933 6.46134Z" fill="#232323"/>
<path d="M19.866 7.15608L19.8479 7.16807C19.8451 7.16254 19.8405 7.15639 19.8359 7.1527C19.8319 7.14963 19.8245 7.14563 19.8128 7.14563C19.7925 7.14563 19.7784 7.15823 19.7784 7.1773C19.7784 7.18529 19.7806 7.1899 19.7861 7.19513C19.7922 7.20128 19.7999 7.20466 19.8076 7.20805L19.8273 7.21665C19.8393 7.22188 19.8503 7.22742 19.859 7.23603C19.8694 7.24648 19.8737 7.25847 19.8737 7.27323C19.8737 7.31105 19.8457 7.33626 19.8088 7.33626C19.7953 7.33626 19.7784 7.3335 19.7643 7.31966C19.7541 7.30982 19.748 7.29568 19.7452 7.28338L19.7673 7.27723C19.7689 7.28799 19.7738 7.29721 19.7796 7.30336C19.7885 7.31228 19.7987 7.31474 19.8091 7.31474C19.8371 7.31474 19.8503 7.29475 19.8503 7.27415C19.8503 7.26493 19.8476 7.25693 19.8402 7.25017C19.8344 7.24464 19.8264 7.24095 19.8156 7.23603L19.7972 7.22742C19.7892 7.22373 19.779 7.21942 19.7698 7.21051C19.7609 7.2019 19.7556 7.19236 19.7556 7.17699C19.7556 7.14532 19.7799 7.1241 19.8131 7.1241C19.8257 7.1241 19.8359 7.12656 19.846 7.13333C19.8543 7.13886 19.8614 7.14717 19.866 7.15608Z" fill="#232323"/>
<path d="M20.0055 7.33257H19.9821L20.0163 7.11611L20.095 7.28922L20.1752 7.1158L20.2072 7.33257H20.1838L20.1645 7.1899L20.0947 7.34118L20.0258 7.1899L20.0055 7.33257Z" fill="#232323"/>
<path d="M20.4656 7.33257L20.4416 7.27477H20.3543L20.3297 7.33257H20.3044L20.3988 7.11765L20.4908 7.33257H20.4656ZM20.3632 7.25324H20.4327L20.3982 7.17115L20.3632 7.25324Z" fill="#232323"/>
<path d="M20.5935 7.12749H20.6162V7.31105H20.6728V7.33257H20.5935V7.12749Z" fill="#232323"/>
<path d="M20.7775 7.12749H20.8002V7.31105H20.8568V7.33257H20.7775V7.12749Z" fill="#232323"/>
<path d="M21.107 7.12749H21.1439C21.1553 7.12749 21.1759 7.12841 21.191 7.1404C21.1974 7.14532 21.2094 7.15793 21.2094 7.18283C21.2094 7.19298 21.2073 7.21081 21.1891 7.22311C21.2177 7.23018 21.2282 7.25509 21.2282 7.27477C21.2282 7.29445 21.2183 7.31044 21.2073 7.31904C21.191 7.33196 21.1722 7.33257 21.1581 7.33257H21.107V7.12749ZM21.1298 7.14901V7.21758H21.147C21.159 7.21758 21.1873 7.21512 21.1873 7.18345C21.1873 7.14963 21.1541 7.14901 21.1476 7.14901H21.1298ZM21.1298 7.23787V7.31105H21.1559C21.1692 7.31105 21.1821 7.31013 21.1919 7.30244C21.1999 7.2966 21.2054 7.28645 21.2054 7.27415C21.2054 7.25786 21.1959 7.24833 21.1879 7.24402C21.1802 7.23972 21.1695 7.23787 21.1532 7.23787H21.1298Z" fill="#232323"/>
<path d="M21.3666 7.12749V7.25324C21.3666 7.27046 21.3666 7.28922 21.3829 7.30306C21.3912 7.31013 21.4054 7.31474 21.4168 7.31474C21.4281 7.31474 21.4423 7.31013 21.4506 7.30306C21.4669 7.28922 21.4669 7.27046 21.4669 7.25324V7.12749H21.4896V7.25939C21.4896 7.27661 21.4878 7.29322 21.4767 7.30859C21.4644 7.3255 21.4429 7.33626 21.4168 7.33626C21.3906 7.33626 21.3691 7.3255 21.3568 7.30859C21.3457 7.29322 21.3439 7.27661 21.3439 7.25939V7.12749H21.3666Z" fill="#232323"/>
<path d="M21.7262 7.15608L21.7081 7.16807C21.7053 7.16254 21.7007 7.15639 21.6961 7.1527C21.6921 7.14963 21.6847 7.14563 21.673 7.14563C21.6527 7.14563 21.6386 7.15823 21.6386 7.1773C21.6386 7.18529 21.6407 7.1899 21.6463 7.19513C21.6524 7.20128 21.6601 7.20466 21.6678 7.20805L21.6875 7.21665C21.6995 7.22188 21.7105 7.22742 21.7192 7.23603C21.7296 7.24648 21.7339 7.25847 21.7339 7.27323C21.7339 7.31105 21.7059 7.33626 21.669 7.33626C21.6555 7.33626 21.6386 7.3335 21.6244 7.31966C21.6143 7.30982 21.6082 7.29568 21.6054 7.28338L21.6275 7.27723C21.6291 7.28799 21.634 7.29721 21.6398 7.30336C21.6487 7.31228 21.6589 7.31474 21.6693 7.31474C21.6973 7.31474 21.7105 7.29475 21.7105 7.27415C21.7105 7.26493 21.7078 7.25693 21.7004 7.25017C21.6946 7.24464 21.6866 7.24095 21.6758 7.23603L21.6573 7.22742C21.6494 7.22373 21.6392 7.21942 21.63 7.21051C21.6211 7.2019 21.6158 7.19236 21.6158 7.17699C21.6158 7.14532 21.6401 7.1241 21.6733 7.1241C21.6859 7.1241 21.6961 7.12656 21.7062 7.13333C21.7145 7.13886 21.7216 7.14717 21.7262 7.15608Z" fill="#232323"/>
<path d="M21.8494 7.12749H21.8721V7.33257H21.8494V7.12749Z" fill="#232323"/>
<path d="M22.0216 7.33257H21.9989V7.11888L22.1587 7.28645V7.12749H22.1815V7.3418L22.0216 7.17422V7.33257Z" fill="#232323"/>
<path d="M22.4144 7.12749V7.14901H22.3308V7.20989H22.412V7.23141H22.3308V7.31105H22.4144V7.33257H22.3081V7.12749H22.4144Z" fill="#232323"/>
<path d="M22.64 7.15608L22.6218 7.16807C22.619 7.16254 22.6144 7.15639 22.6098 7.1527C22.6058 7.14963 22.5984 7.14563 22.5868 7.14563C22.5665 7.14563 22.5523 7.15823 22.5523 7.1773C22.5523 7.18529 22.5545 7.1899 22.56 7.19513C22.5662 7.20128 22.5738 7.20466 22.5815 7.20805L22.6012 7.21665C22.6132 7.22188 22.6243 7.22742 22.6329 7.23603C22.6433 7.24648 22.6476 7.25847 22.6476 7.27323C22.6476 7.31105 22.6197 7.33626 22.5828 7.33626C22.5692 7.33626 22.5523 7.3335 22.5382 7.31966C22.528 7.30982 22.5219 7.29568 22.5191 7.28338L22.5413 7.27723C22.5428 7.28799 22.5477 7.29721 22.5536 7.30336C22.5625 7.31228 22.5726 7.31474 22.5831 7.31474C22.6111 7.31474 22.6243 7.29475 22.6243 7.27415C22.6243 7.26493 22.6215 7.25693 22.6141 7.25017C22.6083 7.24464 22.6003 7.24095 22.5895 7.23603L22.5711 7.22742C22.5631 7.22373 22.5529 7.21942 22.5437 7.21051C22.5348 7.2019 22.5296 7.19236 22.5296 7.17699C22.5296 7.14532 22.5539 7.1241 22.5871 7.1241C22.5997 7.1241 22.6098 7.12656 22.62 7.13333C22.6283 7.13886 22.6353 7.14717 22.64 7.15608Z" fill="#232323"/>
<path d="M22.8729 7.15608L22.8548 7.16807C22.852 7.16254 22.8474 7.15639 22.8428 7.1527C22.8388 7.14963 22.8314 7.14563 22.8197 7.14563C22.7994 7.14563 22.7853 7.15823 22.7853 7.1773C22.7853 7.18529 22.7874 7.1899 22.7929 7.19513C22.7991 7.20128 22.8068 7.20466 22.8145 7.20805L22.8342 7.21665C22.8461 7.22188 22.8572 7.22742 22.8658 7.23603C22.8763 7.24648 22.8806 7.25847 22.8806 7.27323C22.8806 7.31105 22.8526 7.33626 22.8157 7.33626C22.8022 7.33626 22.7853 7.3335 22.7711 7.31966C22.761 7.30982 22.7548 7.29568 22.7521 7.28338L22.7742 7.27723C22.7757 7.28799 22.7806 7.29721 22.7865 7.30336C22.7954 7.31228 22.8056 7.31474 22.816 7.31474C22.844 7.31474 22.8572 7.29475 22.8572 7.27415C22.8572 7.26493 22.8544 7.25693 22.8471 7.25017C22.8412 7.24464 22.8332 7.24095 22.8225 7.23603L22.804 7.22742C22.796 7.22373 22.7859 7.21942 22.7767 7.21051C22.7677 7.2019 22.7625 7.19236 22.7625 7.17699C22.7625 7.14532 22.7868 7.1241 22.82 7.1241C22.8326 7.1241 22.8428 7.12656 22.8529 7.13333C22.8612 7.13886 22.8683 7.14717 22.8729 7.15608Z" fill="#232323"/>
<path d="M23.1416 7.12749H23.1644V7.31105H23.2209V7.33257H23.1416V7.12749Z" fill="#232323"/>
<path d="M23.4107 7.33626C23.3514 7.33626 23.304 7.29106 23.304 7.23018C23.304 7.169 23.3517 7.1241 23.4107 7.1241C23.4698 7.1241 23.5174 7.169 23.5174 7.23018C23.5174 7.29106 23.4701 7.33626 23.4107 7.33626ZM23.4107 7.14563C23.3646 7.14563 23.3274 7.18314 23.3274 7.23018C23.3274 7.27723 23.3646 7.31474 23.4107 7.31474C23.4568 7.31474 23.4941 7.27723 23.4941 7.23018C23.4941 7.18314 23.4568 7.14563 23.4107 7.14563Z" fill="#232323"/>
<path d="M23.7578 7.33257L23.7339 7.27477H23.6465L23.6219 7.33257H23.5967L23.6911 7.11765L23.7831 7.33257H23.7578ZM23.6555 7.25324H23.7249L23.6905 7.17115L23.6555 7.25324Z" fill="#232323"/>
<path d="M23.9085 7.33257H23.8858V7.11888L24.0457 7.28645V7.12749H24.0684V7.3418L23.9085 7.17422V7.33257Z" fill="#232323"/>
<path d="M24.3047 7.15608L24.2866 7.16807C24.2838 7.16254 24.2792 7.15639 24.2746 7.1527C24.2706 7.14963 24.2632 7.14563 24.2516 7.14563C24.2313 7.14563 24.2171 7.15823 24.2171 7.1773C24.2171 7.18529 24.2193 7.1899 24.2248 7.19513C24.231 7.20128 24.2386 7.20466 24.2463 7.20805L24.266 7.21665C24.278 7.22188 24.2891 7.22742 24.2977 7.23603C24.3081 7.24648 24.3124 7.25847 24.3124 7.27323C24.3124 7.31105 24.2845 7.33626 24.2476 7.33626C24.234 7.33626 24.2171 7.3335 24.203 7.31966C24.1928 7.30982 24.1867 7.29568 24.1839 7.28338L24.206 7.27723C24.2076 7.28799 24.2125 7.29721 24.2183 7.30336C24.2273 7.31228 24.2374 7.31474 24.2479 7.31474C24.2758 7.31474 24.2891 7.29475 24.2891 7.27415C24.2891 7.26493 24.2863 7.25693 24.2789 7.25017C24.2731 7.24464 24.2651 7.24095 24.2543 7.23603L24.2359 7.22742C24.2279 7.22373 24.2177 7.21942 24.2085 7.21051C24.1996 7.2019 24.1944 7.19236 24.1944 7.17699C24.1944 7.14532 24.2187 7.1241 24.2519 7.1241C24.2645 7.1241 24.2746 7.12656 24.2848 7.13333C24.2931 7.13886 24.3001 7.14717 24.3047 7.15608Z" fill="#232323"/>
<path d="M24.5962 7.12749V7.21081H24.7014V7.12749H24.7241V7.33257H24.7014V7.23234H24.5962V7.33257H24.5735V7.12749H24.5962Z" fill="#232323"/>
<path d="M24.988 7.33257L24.964 7.27477H24.8767L24.8521 7.33257H24.8269L24.9213 7.11765L25.0132 7.33257H24.988ZM24.8856 7.25324H24.9551L24.9206 7.17115L24.8856 7.25324Z" fill="#232323"/>
<path d="M25.2257 7.15608L25.2075 7.16807C25.2048 7.16254 25.2002 7.15639 25.1956 7.1527C25.1916 7.14963 25.1842 7.14563 25.1725 7.14563C25.1522 7.14563 25.1381 7.15823 25.1381 7.1773C25.1381 7.18529 25.1402 7.1899 25.1457 7.19513C25.1519 7.20128 25.1596 7.20466 25.1673 7.20805L25.1869 7.21665C25.1989 7.22188 25.21 7.22742 25.2186 7.23603C25.2291 7.24648 25.2334 7.25847 25.2334 7.27323C25.2334 7.31105 25.2054 7.33626 25.1685 7.33626C25.155 7.33626 25.1381 7.3335 25.1239 7.31966C25.1138 7.30982 25.1076 7.29568 25.1048 7.28338L25.127 7.27723C25.1285 7.28799 25.1334 7.29721 25.1393 7.30336C25.1482 7.31228 25.1583 7.31474 25.1688 7.31474C25.1968 7.31474 25.21 7.29475 25.21 7.27415C25.21 7.26493 25.2072 7.25693 25.1999 7.25017C25.194 7.24464 25.186 7.24095 25.1753 7.23603L25.1568 7.22742C25.1488 7.22373 25.1387 7.21942 25.1294 7.21051C25.1205 7.2019 25.1153 7.19236 25.1153 7.17699C25.1153 7.14532 25.1396 7.1241 25.1728 7.1241C25.1854 7.1241 25.1956 7.12656 25.2057 7.13333C25.214 7.13886 25.2211 7.14717 25.2257 7.15608Z" fill="#232323"/>
<path d="M25.4586 7.15608L25.4405 7.16807C25.4377 7.16254 25.4331 7.15639 25.4285 7.1527C25.4245 7.14963 25.4171 7.14563 25.4054 7.14563C25.3851 7.14563 25.371 7.15823 25.371 7.1773C25.371 7.18529 25.3731 7.1899 25.3787 7.19513C25.3848 7.20128 25.3925 7.20466 25.4002 7.20805L25.4199 7.21665C25.4319 7.22188 25.4429 7.22742 25.4516 7.23603C25.462 7.24648 25.4663 7.25847 25.4663 7.27323C25.4663 7.31105 25.4383 7.33626 25.4014 7.33626C25.3879 7.33626 25.371 7.3335 25.3568 7.31966C25.3467 7.30982 25.3406 7.29568 25.3378 7.28338L25.3599 7.27723C25.3615 7.28799 25.3664 7.29721 25.3722 7.30336C25.3811 7.31228 25.3913 7.31474 25.4017 7.31474C25.4297 7.31474 25.4429 7.29475 25.4429 7.27415C25.4429 7.26493 25.4402 7.25693 25.4328 7.25017C25.427 7.24464 25.419 7.24095 25.4082 7.23603L25.3897 7.22742C25.3818 7.22373 25.3716 7.21942 25.3624 7.21051C25.3535 7.2019 25.3482 7.19236 25.3482 7.17699C25.3482 7.14532 25.3725 7.1241 25.4057 7.1241C25.4183 7.1241 25.4285 7.12656 25.4386 7.13333C25.4469 7.13886 25.454 7.14717 25.4586 7.15608Z" fill="#232323"/>
<path d="M25.5818 7.12749H25.6045V7.31105H25.6611V7.33257H25.5818V7.12749Z" fill="#232323"/>
<path d="M25.8722 7.12749V7.14901H25.7885V7.20989H25.8697V7.23141H25.7885V7.31105H25.8722V7.33257H25.7658V7.12749H25.8722Z" fill="#232323"/>
<path d="M26.2269 7.12749V7.14901H26.1562V7.20958H26.2245V7.23111H26.1562V7.33257H26.1335V7.12749H26.2269Z" fill="#232323"/>
<path d="M26.3406 7.12749H26.3735C26.3873 7.12749 26.4079 7.12841 26.4233 7.13886C26.4353 7.14686 26.4457 7.16254 26.4457 7.18437C26.4457 7.21573 26.4251 7.23879 26.3941 7.24095L26.4593 7.33257H26.4316L26.3692 7.24279H26.3633V7.33257H26.3406V7.12749ZM26.3633 7.14901V7.2225H26.3778C26.4061 7.2225 26.423 7.20897 26.423 7.18498C26.423 7.17361 26.4196 7.16223 26.4067 7.15485C26.3975 7.14963 26.387 7.14901 26.3772 7.14901H26.3633Z" fill="#232323"/>
<path d="M26.6751 7.12749V7.14901H26.5915V7.20989H26.6726V7.23141H26.5915V7.31105H26.6751V7.33257H26.5687V7.12749H26.6751Z" fill="#232323"/>
<path d="M26.8972 7.12749V7.14901H26.8136V7.20989H26.8948V7.23141H26.8136V7.31105H26.8972V7.33257H26.7908V7.12749H26.8972Z" fill="#232323"/>
<path d="M26.974 6.78448H26.9418V6.90354H26.9139V6.78448H26.8817V6.76045H26.974V6.78448Z" fill="#232323"/>
<path d="M26.9843 6.90354L27.0109 6.75788H27.0302L27.0691 6.85141L27.1096 6.75788H27.1289L27.1529 6.90354H27.1246L27.1118 6.81537L27.0725 6.90547H27.0648L27.0272 6.81537L27.0126 6.90354H26.9843Z" fill="#232323"/>
<path d="M16.7804 9.23751C16.7486 9.23751 16.7235 9.22755 16.7049 9.20763C16.6866 9.18771 16.6775 9.16054 16.6775 9.12613V9.12583C16.6775 9.09143 16.6866 9.06426 16.7049 9.04434C16.7235 9.02442 16.7485 9.01446 16.7801 9.01446C16.7972 9.01446 16.8126 9.01778 16.8263 9.02442C16.84 9.03106 16.8511 9.04022 16.8598 9.05189C16.8684 9.06336 16.8736 9.07664 16.8752 9.09173V9.09354H16.8344V9.09263C16.8318 9.08076 16.8256 9.0712 16.8157 9.06396C16.8058 9.05651 16.794 9.05279 16.7801 9.05279C16.7616 9.05279 16.7469 9.05933 16.736 9.07241C16.7254 9.08529 16.72 9.1031 16.72 9.12583V9.12613C16.72 9.14867 16.7254 9.16648 16.736 9.17956C16.7469 9.19264 16.7617 9.19918 16.7804 9.19918C16.7943 9.19918 16.806 9.19576 16.8157 9.18891C16.8254 9.18207 16.8315 9.17302 16.8341 9.16175L16.8344 9.16054H16.8752V9.16235C16.8734 9.17724 16.8682 9.19032 16.8598 9.20159C16.8513 9.21286 16.8403 9.22171 16.8266 9.22815C16.8131 9.23439 16.7977 9.23751 16.7804 9.23751ZM16.9742 9.12493C16.9742 9.09736 16.9691 9.07171 16.9591 9.04796C16.949 9.02402 16.935 9.00309 16.9171 8.98518C16.8992 8.96727 16.8783 8.95329 16.8543 8.94323C16.8306 8.93317 16.8049 8.92814 16.7774 8.92814H16.7753C16.7477 8.92814 16.7219 8.93317 16.698 8.94323C16.6743 8.95329 16.6534 8.96727 16.6355 8.98518C16.6176 9.00309 16.6036 9.02402 16.5936 9.04796C16.5835 9.07171 16.5785 9.09736 16.5785 9.12493V9.12704C16.5785 9.15461 16.5835 9.18036 16.5936 9.20431C16.6036 9.22805 16.6176 9.24888 16.6355 9.26678C16.6534 9.28469 16.6743 9.29868 16.698 9.30874C16.7219 9.3188 16.7477 9.32383 16.7753 9.32383H16.7774C16.8049 9.32383 16.8306 9.3188 16.8543 9.30874C16.8783 9.29868 16.8992 9.28469 16.9171 9.26678C16.935 9.24888 16.949 9.22805 16.9591 9.20431C16.9691 9.18036 16.9742 9.15461 16.9742 9.12704V9.12493ZM17.014 9.12493V9.12704C17.014 9.16024 17.008 9.19113 16.9959 9.2197C16.9838 9.24827 16.9669 9.27343 16.9452 9.29516C16.9237 9.31669 16.8986 9.33349 16.87 9.34556C16.8415 9.35763 16.8106 9.36367 16.7774 9.36367H16.7753C16.7421 9.36367 16.7112 9.35763 16.6826 9.34556C16.654 9.33349 16.6289 9.31669 16.6071 9.29516C16.5856 9.27343 16.5688 9.24827 16.5567 9.2197C16.5447 9.19113 16.5386 9.16024 16.5386 9.12704V9.12493C16.5386 9.09173 16.5447 9.06084 16.5567 9.03227C16.5688 9.0037 16.5856 8.97864 16.6071 8.95711C16.6289 8.93538 16.654 8.91848 16.6826 8.90641C16.7112 8.89433 16.7421 8.8883 16.7753 8.8883H16.7774C16.8106 8.8883 16.8415 8.89433 16.87 8.90641C16.8986 8.91848 16.9237 8.93538 16.9452 8.95711C16.9669 8.97864 16.9838 9.0037 16.9959 9.03227C17.008 9.06084 17.014 9.09173 17.014 9.12493ZM17.4577 9.35401C17.4182 9.35401 17.3841 9.34476 17.3554 9.32624C17.3266 9.30773 17.3044 9.28147 17.2887 9.24747C17.2732 9.21346 17.2654 9.17312 17.2654 9.12644V9.12583C17.2654 9.07895 17.2732 9.03851 17.2887 9.0045C17.3044 8.97049 17.3265 8.94424 17.3551 8.92572C17.3838 8.90721 17.4179 8.89796 17.4574 8.89796C17.488 8.89796 17.5157 8.90399 17.5407 8.91607C17.5658 8.92794 17.5866 8.94454 17.6029 8.96587C17.6192 8.98699 17.6294 9.01144 17.6337 9.03921L17.6333 9.03981H17.5787L17.5784 9.03921C17.5736 9.0205 17.5654 9.0044 17.554 8.99092C17.5425 8.97724 17.5285 8.96667 17.512 8.95923C17.4957 8.95178 17.4775 8.94806 17.4574 8.94806C17.4296 8.94806 17.4055 8.9553 17.3849 8.96979C17.3646 8.98428 17.3489 9.0048 17.3379 9.03136C17.3268 9.05792 17.3213 9.08941 17.3213 9.12583V9.12644C17.3213 9.16266 17.3268 9.19405 17.3379 9.22061C17.3489 9.24717 17.3646 9.26769 17.3849 9.28218C17.4055 9.29667 17.4297 9.30391 17.4577 9.30391C17.478 9.30391 17.4964 9.30069 17.5129 9.29425C17.5294 9.28761 17.5433 9.27825 17.5546 9.26618C17.5658 9.25391 17.5737 9.23942 17.5781 9.22272L17.5787 9.22211H17.6337V9.22272C17.6288 9.24928 17.6184 9.27242 17.6023 9.29214C17.5862 9.31166 17.5657 9.32685 17.541 9.33771C17.5164 9.34858 17.4887 9.35401 17.4577 9.35401ZM17.8519 9.34948C17.8211 9.34948 17.7944 9.34274 17.7719 9.32926C17.7496 9.31558 17.7322 9.29616 17.72 9.27101C17.7079 9.24586 17.7019 9.21598 17.7019 9.18137V9.18077C17.7019 9.14595 17.7079 9.11597 17.72 9.09082C17.7322 9.06567 17.7496 9.04635 17.7719 9.03287C17.7944 9.01939 17.8211 9.01265 17.8519 9.01265C17.8829 9.01265 17.9095 9.01939 17.9319 9.03287C17.9542 9.04635 17.9714 9.06567 17.9835 9.09082C17.9957 9.11597 18.0019 9.14595 18.0019 9.18077V9.18137C18.0019 9.21598 17.9957 9.24586 17.9835 9.27101C17.9714 9.29616 17.9542 9.31558 17.9319 9.32926C17.9095 9.34274 17.8829 9.34948 17.8519 9.34948ZM17.8519 9.303C17.8724 9.303 17.8898 9.29817 17.9041 9.28852C17.9184 9.27886 17.9292 9.26497 17.9367 9.24686C17.9443 9.22876 17.9482 9.20692 17.9482 9.18137V9.18077C17.9482 9.15501 17.9443 9.13308 17.9367 9.11497C17.9292 9.09686 17.9184 9.08307 17.9041 9.07362C17.8898 9.06396 17.8724 9.05913 17.8519 9.05913C17.8313 9.05913 17.8139 9.06396 17.7997 9.07362C17.7854 9.08307 17.7744 9.09686 17.7668 9.11497C17.7593 9.13308 17.7556 9.15501 17.7556 9.18077V9.18137C17.7556 9.20692 17.7593 9.22876 17.7668 9.24686C17.7744 9.26497 17.7854 9.27886 17.7997 9.28852C17.8139 9.29817 17.8313 9.303 17.8519 9.303ZM18.0834 9.45241V9.01838H18.1359V9.0703H18.1407C18.1474 9.05822 18.1557 9.04796 18.1658 9.03951C18.1758 9.03086 18.1873 9.02422 18.2002 9.01959C18.2131 9.01496 18.227 9.01265 18.2421 9.01265C18.2697 9.01265 18.2936 9.01969 18.314 9.03378C18.3345 9.04766 18.3504 9.06718 18.3616 9.09233C18.3729 9.11748 18.3786 9.14696 18.3786 9.18077V9.18137C18.3786 9.21537 18.3729 9.24495 18.3616 9.2701C18.3504 9.29526 18.3345 9.31477 18.314 9.32866C18.2936 9.34254 18.2697 9.34948 18.2421 9.34948C18.2272 9.34948 18.2132 9.34717 18.1999 9.34254C18.1868 9.33771 18.1751 9.33107 18.1649 9.32262C18.1548 9.31417 18.1468 9.30411 18.1407 9.29244H18.1359V9.45241H18.0834ZM18.2301 9.303C18.25 9.303 18.267 9.29817 18.2811 9.28852C18.2951 9.27866 18.3059 9.26467 18.3134 9.24656C18.321 9.22825 18.3248 9.20652 18.3248 9.18137V9.18077C18.3248 9.15541 18.321 9.13368 18.3134 9.11557C18.3059 9.09746 18.2951 9.08358 18.2811 9.07392C18.267 9.06406 18.25 9.05913 18.2301 9.05913C18.2103 9.05913 18.1933 9.06406 18.179 9.07392C18.1648 9.08378 18.1538 9.09776 18.1461 9.11587C18.1385 9.13398 18.1347 9.15561 18.1347 9.18077V9.18137C18.1347 9.20632 18.1385 9.22795 18.1461 9.24626C18.1538 9.26437 18.1648 9.27835 18.179 9.28821C18.1933 9.29807 18.2103 9.303 18.2301 9.303ZM18.4763 9.45784C18.4729 9.45784 18.4691 9.45764 18.4649 9.45724C18.4606 9.45703 18.4567 9.45663 18.4531 9.45603V9.41287C18.4563 9.41347 18.4598 9.41387 18.4637 9.41407C18.4675 9.41428 18.4712 9.41438 18.4748 9.41438C18.4897 9.41438 18.5019 9.41055 18.5114 9.40291C18.521 9.39526 18.5288 9.38208 18.5346 9.36337L18.5406 9.34405L18.4202 9.01838H18.4763L18.5765 9.319L18.5557 9.2861H18.5805L18.5596 9.319L18.6596 9.01838H18.7148L18.5877 9.36367C18.5789 9.38802 18.5695 9.40703 18.5596 9.42072C18.5498 9.4344 18.5382 9.44396 18.5249 9.44939C18.5119 9.45502 18.4957 9.45784 18.4763 9.45784ZM18.7842 9.34375V9.01838H18.8367V9.06668H18.8415C18.8478 9.04957 18.8584 9.03629 18.8732 9.02683C18.8881 9.01738 18.9065 9.01265 18.9285 9.01265C18.9335 9.01265 18.9384 9.01295 18.9433 9.01355C18.9483 9.01396 18.9521 9.01436 18.9547 9.01476V9.06577C18.9493 9.06476 18.944 9.06406 18.9387 9.06366C18.9337 9.06305 18.9283 9.06275 18.9224 9.06275C18.9057 9.06275 18.8909 9.06607 18.8781 9.07271C18.8652 9.07935 18.855 9.08861 18.8476 9.10048C18.8403 9.11235 18.8367 9.12624 18.8367 9.14213V9.34375H18.7842ZM19.0208 9.34375V9.01838H19.0734V9.34375H19.0208ZM19.0474 8.9556C19.0375 8.9556 19.029 8.95208 19.0217 8.94504C19.0147 8.9378 19.0112 8.92925 19.0112 8.91939C19.0112 8.90932 19.0147 8.90077 19.0217 8.89373C19.029 8.88669 19.0375 8.88317 19.0474 8.88317C19.0575 8.88317 19.066 8.88669 19.073 8.89373C19.0801 8.90077 19.0836 8.90932 19.0836 8.91939C19.0836 8.92925 19.0801 8.9378 19.073 8.94504C19.066 8.95208 19.0575 8.9556 19.0474 8.9556ZM19.3064 9.45844C19.2802 9.45844 19.2574 9.45472 19.2378 9.44728C19.2183 9.44003 19.2027 9.42967 19.1911 9.41619C19.1796 9.40291 19.1724 9.38741 19.1696 9.36971L19.1702 9.36941H19.2246L19.2249 9.36971C19.2277 9.38198 19.2361 9.39204 19.2502 9.39989C19.2643 9.40794 19.283 9.41196 19.3064 9.41196C19.3355 9.41196 19.3583 9.40532 19.3746 9.39204C19.3911 9.37896 19.3993 9.36045 19.3993 9.33651V9.27071H19.3945C19.3877 9.28258 19.3791 9.29274 19.3688 9.30119C19.3586 9.30964 19.347 9.31608 19.3341 9.32051C19.3212 9.32474 19.3074 9.32685 19.2925 9.32685C19.2645 9.32685 19.2403 9.32021 19.2197 9.30693C19.1994 9.29345 19.1837 9.27493 19.1727 9.25139C19.1616 9.22785 19.1561 9.20089 19.1561 9.1705V9.1699C19.1561 9.13952 19.1616 9.11255 19.1727 9.08901C19.1839 9.06527 19.1998 9.04665 19.2203 9.03317C19.2409 9.01949 19.2653 9.01265 19.2937 9.01265C19.309 9.01265 19.3231 9.01506 19.3359 9.01989C19.3488 9.02472 19.3602 9.03156 19.37 9.04042C19.3801 9.04927 19.3885 9.05983 19.3951 9.07211H19.3987V9.01838H19.4512V9.33922C19.4512 9.36337 19.4453 9.3844 19.4334 9.4023C19.4218 9.42021 19.4051 9.434 19.3833 9.44365C19.3616 9.45351 19.3359 9.45844 19.3064 9.45844ZM19.3039 9.28037C19.3241 9.28037 19.3413 9.27574 19.3556 9.26648C19.37 9.25703 19.3811 9.24405 19.3888 9.22755C19.3966 9.21105 19.4005 9.19203 19.4005 9.1705V9.1699C19.4005 9.14837 19.3966 9.12925 19.3888 9.11255C19.3811 9.09585 19.37 9.08277 19.3556 9.07332C19.3413 9.06386 19.3241 9.05913 19.3039 9.05913C19.2838 9.05913 19.2667 9.06386 19.2526 9.07332C19.2388 9.08277 19.2281 9.09585 19.2206 9.11255C19.2134 9.12925 19.2098 9.14837 19.2098 9.1699V9.1705C19.2098 9.19203 19.2134 9.21105 19.2206 9.22755C19.2281 9.24405 19.2388 9.25703 19.2526 9.26648C19.2667 9.27574 19.2838 9.28037 19.3039 9.28037ZM19.552 9.34375V8.8892H19.6046V9.06728H19.6094C19.6176 9.04997 19.6295 9.03659 19.645 9.02714C19.6605 9.01748 19.6802 9.01265 19.7042 9.01265C19.7285 9.01265 19.7491 9.01738 19.766 9.02683C19.7829 9.03609 19.7958 9.04967 19.8047 9.06758C19.8135 9.08549 19.818 9.10732 19.818 9.13308V9.34375H19.7654V9.14575C19.7654 9.11638 19.7592 9.09464 19.7467 9.08056C19.7344 9.06627 19.7153 9.05913 19.6894 9.05913C19.6721 9.05913 19.6571 9.06285 19.6444 9.0703C19.6317 9.07774 19.6219 9.08831 19.6148 9.10199C19.608 9.11567 19.6046 9.13207 19.6046 9.15119V9.34375H19.552ZM20.0286 9.34616C19.9952 9.34616 19.971 9.33942 19.9559 9.32594C19.941 9.31246 19.9335 9.29023 19.9335 9.25924V9.06185H19.8822V9.01838H19.9335V8.93417H19.9879V9.01838H20.0591V9.06185H19.9879V9.24596C19.9879 9.26507 19.9915 9.27886 19.9987 9.28731C20.006 9.29556 20.0181 9.29968 20.035 9.29968C20.0396 9.29968 20.0435 9.29958 20.0467 9.29938C20.0502 9.29918 20.0543 9.29888 20.0591 9.29848V9.34315C20.0541 9.34395 20.049 9.34466 20.044 9.34526C20.039 9.34586 20.0339 9.34616 20.0286 9.34616ZM20.3181 9.34375V8.90822H20.5825V8.95711H20.3724V9.10682H20.5653V9.15511H20.3724V9.34375H20.3181ZM20.7741 9.34948C20.7496 9.34948 20.729 9.34486 20.7123 9.3356C20.6956 9.32614 20.683 9.31246 20.6745 9.29455C20.6663 9.27644 20.6622 9.25461 20.6622 9.22906V9.01838H20.7147V9.21638C20.7147 9.24556 20.7203 9.26729 20.7316 9.28157C20.743 9.29586 20.7618 9.303 20.7877 9.303C20.802 9.303 20.8146 9.30089 20.8254 9.29667C20.8365 9.29244 20.8458 9.2864 20.8532 9.27856C20.8607 9.27051 20.8662 9.26085 20.8698 9.24958C20.8736 9.23811 20.8755 9.22523 20.8755 9.21095V9.01838H20.9281V9.34375H20.8755V9.29516H20.8707C20.8655 9.30663 20.8583 9.31649 20.8493 9.32474C20.8402 9.33278 20.8294 9.33892 20.8167 9.34315C20.8042 9.34737 20.79 9.34948 20.7741 9.34948ZM21.0262 9.34375V9.01838H21.0787V9.06728H21.0835C21.0917 9.04997 21.1036 9.03659 21.1191 9.02714C21.1346 9.01748 21.1543 9.01265 21.1783 9.01265C21.2149 9.01265 21.243 9.02311 21.2625 9.04404C21.2822 9.06476 21.2921 9.09444 21.2921 9.13308V9.34375H21.2395V9.14575C21.2395 9.11638 21.2333 9.09464 21.2208 9.08056C21.2086 9.06627 21.1894 9.05913 21.1635 9.05913C21.1462 9.05913 21.1312 9.06285 21.1185 9.0703C21.1058 9.07774 21.096 9.08831 21.0889 9.10199C21.0821 9.11567 21.0787 9.13207 21.0787 9.15119V9.34375H21.0262ZM21.5073 9.34948C21.4799 9.34948 21.4559 9.34254 21.4354 9.32866C21.4149 9.31477 21.399 9.29526 21.3877 9.2701C21.3765 9.24475 21.3708 9.21517 21.3708 9.18137V9.18077C21.3708 9.14676 21.3765 9.11718 21.3877 9.09203C21.399 9.06688 21.4148 9.04736 21.4351 9.03348C21.4556 9.01959 21.4797 9.01265 21.5073 9.01265C21.5221 9.01265 21.5361 9.01506 21.5492 9.01989C21.5625 9.02452 21.5743 9.03106 21.5845 9.03951C21.5948 9.04796 21.6028 9.05802 21.6087 9.06969H21.6135V8.8892H21.666V9.34375H21.6135V9.29184H21.6087C21.602 9.30391 21.5937 9.31427 21.5836 9.32292C21.5736 9.33138 21.5621 9.33791 21.5492 9.34254C21.5363 9.34717 21.5223 9.34948 21.5073 9.34948ZM21.5193 9.303C21.5391 9.303 21.5561 9.29807 21.5703 9.28821C21.5846 9.27835 21.5956 9.26437 21.6032 9.24626C21.6109 9.22795 21.6147 9.20632 21.6147 9.18137V9.18077C21.6147 9.15561 21.6109 9.13398 21.6032 9.11587C21.5956 9.09776 21.5846 9.08378 21.5703 9.07392C21.5561 9.06406 21.5391 9.05913 21.5193 9.05913C21.4996 9.05913 21.4826 9.06406 21.4683 9.07392C21.4542 9.08358 21.4434 9.09746 21.4357 9.11557C21.4283 9.13368 21.4246 9.15541 21.4246 9.18077V9.18137C21.4246 9.20652 21.4283 9.22825 21.4357 9.24656C21.4434 9.26467 21.4542 9.27866 21.4683 9.28852C21.4826 9.29817 21.4996 9.303 21.5193 9.303ZM21.8785 9.34948C21.8544 9.34948 21.833 9.34586 21.8145 9.33862C21.796 9.33117 21.7811 9.32081 21.7698 9.30753C21.7588 9.29425 21.7522 9.27866 21.7502 9.26075H21.804C21.8084 9.27423 21.817 9.2851 21.8299 9.29335C21.8428 9.3016 21.8596 9.30572 21.8803 9.30572C21.895 9.30572 21.9079 9.30361 21.9189 9.29938C21.9302 9.29496 21.9391 9.28902 21.9455 9.28157C21.9519 9.27393 21.9552 9.26518 21.9552 9.25532V9.25471C21.9552 9.24365 21.9507 9.23429 21.9419 9.22664C21.933 9.21879 21.9185 9.21246 21.8984 9.20763L21.848 9.19555C21.8277 9.19073 21.811 9.18449 21.7979 9.17684C21.7848 9.16899 21.7752 9.15944 21.7689 9.14817C21.7627 9.1367 21.7596 9.12322 21.7596 9.10772V9.10742C21.7596 9.08931 21.7648 9.07311 21.7753 9.05883C21.7859 9.04454 21.8004 9.03327 21.8187 9.02502C21.8371 9.01677 21.8577 9.01265 21.8806 9.01265C21.9034 9.01265 21.9235 9.01627 21.941 9.02351C21.9587 9.03056 21.9729 9.04062 21.9835 9.0537C21.9944 9.06678 22.001 9.08217 22.0035 9.09988H21.9518C21.9484 9.087 21.9406 9.07654 21.9283 9.06849C21.916 9.06044 21.9 9.05641 21.8803 9.05641C21.8674 9.05641 21.856 9.05853 21.8459 9.06275C21.8358 9.06678 21.8279 9.07241 21.8221 9.07965C21.8162 9.0869 21.8133 9.09535 21.8133 9.10501V9.10561C21.8133 9.11285 21.8152 9.11929 21.819 9.12493C21.8229 9.13056 21.8288 9.13549 21.8369 9.13972C21.8449 9.14394 21.8553 9.14767 21.8679 9.15088L21.918 9.16296C21.9486 9.1704 21.9714 9.18107 21.9863 9.19495C22.0013 9.20883 22.0089 9.22745 22.0089 9.25079V9.25139C22.0089 9.27071 22.0032 9.28781 21.9917 9.3027C21.9802 9.31739 21.9646 9.32886 21.9449 9.33711C21.9254 9.34536 21.9033 9.34948 21.8785 9.34948ZM22.0934 9.34375V8.8892H22.1459V9.06728H22.1507C22.159 9.04997 22.1709 9.03659 22.1864 9.02714C22.2019 9.01748 22.2216 9.01265 22.2455 9.01265C22.2699 9.01265 22.2905 9.01738 22.3074 9.02683C22.3243 9.03609 22.3372 9.04967 22.346 9.06758C22.3549 9.08549 22.3593 9.10732 22.3593 9.13308V9.34375H22.3068V9.14575C22.3068 9.11638 22.3006 9.09464 22.2881 9.08056C22.2758 9.06627 22.2567 9.05913 22.2307 9.05913C22.2134 9.05913 22.1984 9.06285 22.1858 9.0703C22.1731 9.07774 22.1632 9.08831 22.1562 9.10199C22.1493 9.11567 22.1459 9.13207 22.1459 9.15119V9.34375H22.0934ZM22.5881 9.34948C22.5573 9.34948 22.5306 9.34274 22.5081 9.32926C22.4858 9.31558 22.4685 9.29616 22.4562 9.27101C22.4441 9.24586 22.4381 9.21598 22.4381 9.18137V9.18077C22.4381 9.14595 22.4441 9.11597 22.4562 9.09082C22.4685 9.06567 22.4858 9.04635 22.5081 9.03287C22.5306 9.01939 22.5573 9.01265 22.5881 9.01265C22.6191 9.01265 22.6457 9.01939 22.6681 9.03287C22.6904 9.04635 22.7076 9.06567 22.7197 9.09082C22.732 9.11597 22.7381 9.14595 22.7381 9.18077V9.18137C22.7381 9.21598 22.732 9.24586 22.7197 9.27101C22.7076 9.29616 22.6904 9.31558 22.6681 9.32926C22.6457 9.34274 22.6191 9.34948 22.5881 9.34948ZM22.5881 9.303C22.6086 9.303 22.626 9.29817 22.6403 9.28852C22.6546 9.27886 22.6655 9.26497 22.6729 9.24686C22.6805 9.22876 22.6844 9.20692 22.6844 9.18137V9.18077C22.6844 9.15501 22.6805 9.13308 22.6729 9.11497C22.6655 9.09686 22.6546 9.08307 22.6403 9.07362C22.626 9.06396 22.6086 9.05913 22.5881 9.05913C22.5676 9.05913 22.5502 9.06396 22.5359 9.07362C22.5216 9.08307 22.5106 9.09686 22.503 9.11497C22.4955 9.13308 22.4918 9.15501 22.4918 9.18077V9.18137C22.4918 9.20692 22.4955 9.22876 22.503 9.24686C22.5106 9.26497 22.5216 9.27886 22.5359 9.28852C22.5502 9.29817 22.5676 9.303 22.5881 9.303ZM22.8196 9.45241V9.01838H22.8721V9.0703H22.8769C22.8836 9.05822 22.8919 9.04796 22.902 9.03951C22.912 9.03086 22.9235 9.02422 22.9364 9.01959C22.9493 9.01496 22.9633 9.01265 22.9783 9.01265C23.0059 9.01265 23.0299 9.01969 23.0502 9.03378C23.0707 9.04766 23.0866 9.06718 23.0979 9.09233C23.1091 9.11748 23.1148 9.14696 23.1148 9.18077V9.18137C23.1148 9.21537 23.1091 9.24495 23.0979 9.2701C23.0866 9.29526 23.0707 9.31477 23.0502 9.32866C23.0299 9.34254 23.0059 9.34948 22.9783 9.34948C22.9635 9.34948 22.9494 9.34717 22.9361 9.34254C22.923 9.33771 22.9113 9.33107 22.9011 9.32262C22.891 9.31417 22.883 9.30411 22.8769 9.29244H22.8721V9.45241H22.8196ZM22.9663 9.303C22.9862 9.303 23.0032 9.29817 23.0173 9.28852C23.0314 9.27866 23.0421 9.26467 23.0496 9.24656C23.0572 9.22825 23.061 9.20652 23.061 9.18137V9.18077C23.061 9.15541 23.0572 9.13368 23.0496 9.11557C23.0421 9.09746 23.0314 9.08358 23.0173 9.07392C23.0032 9.06406 22.9862 9.05913 22.9663 9.05913C22.9466 9.05913 22.9296 9.06406 22.9153 9.07392C22.901 9.08378 22.89 9.09776 22.8824 9.11587C22.8747 9.13398 22.8709 9.15561 22.8709 9.18077V9.18137C22.8709 9.20632 22.8747 9.22795 22.8824 9.24626C22.89 9.26437 22.901 9.27835 22.9153 9.28821C22.9296 9.29807 22.9466 9.303 22.9663 9.303ZM23.1776 9.45452L23.2038 9.28278H23.2639L23.2165 9.45452H23.1776ZM23.5479 9.34375V9.30632L23.6952 9.14696C23.7137 9.12684 23.7282 9.11024 23.7386 9.09716C23.7491 9.08388 23.7565 9.07191 23.7607 9.06124C23.7649 9.05058 23.767 9.03891 23.767 9.02623V9.02563C23.767 9.01034 23.7637 8.99665 23.7571 8.98458C23.7504 8.97251 23.741 8.96295 23.7287 8.95591C23.7164 8.94886 23.7017 8.94534 23.6846 8.94534C23.6673 8.94534 23.6521 8.94896 23.639 8.95621C23.626 8.96325 23.6158 8.97321 23.6086 8.98609C23.6013 8.99877 23.5977 9.01366 23.5977 9.03076L23.5974 9.03136L23.5455 9.03106L23.5449 9.03076C23.5451 9.005 23.5513 8.98216 23.5636 8.96224C23.5759 8.94212 23.5928 8.92643 23.6143 8.91516C23.6358 8.90369 23.6605 8.89796 23.6882 8.89796C23.7136 8.89796 23.7364 8.90329 23.7568 8.91395C23.7771 8.92442 23.7931 8.9388 23.8047 8.95711C23.8166 8.97542 23.8226 8.99635 23.8226 9.01989V9.0205C23.8226 9.037 23.8196 9.05289 23.8138 9.06818C23.8082 9.08348 23.7981 9.10048 23.7836 9.11919C23.7691 9.1377 23.7487 9.16054 23.7223 9.18771L23.6098 9.30391L23.6233 9.27886V9.30391L23.6101 9.29485H23.8298V9.34375H23.5479ZM24.0667 9.35401C24.0345 9.35401 24.007 9.34476 23.984 9.32624C23.9613 9.30773 23.9438 9.28147 23.9315 9.24747C23.9192 9.21326 23.9131 9.17282 23.9131 9.12613V9.12553C23.9131 9.07885 23.9192 9.03851 23.9315 9.0045C23.9438 8.97049 23.9613 8.94424 23.984 8.92572C24.007 8.90721 24.0345 8.89796 24.0667 8.89796C24.0989 8.89796 24.1265 8.90721 24.1494 8.92572C24.1724 8.94424 24.19 8.97049 24.2022 9.0045C24.2147 9.03851 24.221 9.07885 24.221 9.12553V9.12613C24.221 9.17282 24.2147 9.21326 24.2022 9.24747C24.19 9.28147 24.1724 9.30773 24.1494 9.32624C24.1265 9.34476 24.0989 9.35401 24.0667 9.35401ZM24.0667 9.30663C24.0877 9.30663 24.1055 9.29928 24.1201 9.28459C24.135 9.2699 24.1464 9.24908 24.1543 9.22211C24.1623 9.19515 24.1663 9.16316 24.1663 9.12613V9.12553C24.1663 9.08851 24.1623 9.05661 24.1543 9.02985C24.1464 9.00289 24.135 8.98216 24.1201 8.96768C24.1055 8.95299 24.0877 8.94564 24.0667 8.94564C24.046 8.94564 24.0282 8.95299 24.0133 8.96768C23.9986 8.98216 23.9873 9.00289 23.9795 9.02985C23.9717 9.05661 23.9677 9.08851 23.9677 9.12553V9.12613C23.9677 9.16316 23.9717 9.19515 23.9795 9.22211C23.9873 9.24908 23.9986 9.2699 24.0133 9.28459C24.0282 9.29928 24.046 9.30663 24.0667 9.30663ZM24.4168 9.34375V8.96858H24.412L24.3012 9.04887V8.99152L24.4171 8.90822H24.4712V9.34375H24.4168ZM24.7395 8.89796C24.7594 8.89796 24.779 8.90178 24.7983 8.90943C24.8179 8.91707 24.8355 8.92945 24.8512 8.94655C24.8671 8.96365 24.8797 8.98629 24.8892 9.01446C24.8987 9.04243 24.9034 9.07694 24.9034 9.11799V9.11859C24.9034 9.16809 24.8967 9.21044 24.8835 9.24566C24.8702 9.28067 24.8511 9.30753 24.8261 9.32624C24.8012 9.34476 24.7711 9.35401 24.7359 9.35401C24.7115 9.35401 24.6895 9.34959 24.6698 9.34073C24.6503 9.33168 24.634 9.3191 24.6209 9.303C24.6078 9.28691 24.5987 9.26819 24.5937 9.24686L24.5928 9.24294H24.6474L24.6486 9.24626C24.6531 9.25833 24.6593 9.2688 24.6674 9.27765C24.6756 9.2865 24.6855 9.29335 24.6969 9.29817C24.7086 9.303 24.7218 9.30542 24.7365 9.30542C24.7628 9.30542 24.7843 9.29777 24.8008 9.28248C24.8173 9.26699 24.8295 9.24646 24.8376 9.22091C24.8456 9.19535 24.8502 9.16748 24.8512 9.1373C24.8514 9.13449 24.8515 9.13177 24.8515 9.12915C24.8515 9.12634 24.8515 9.12362 24.8515 9.121L24.8385 9.04857C24.8385 9.02945 24.8341 9.01215 24.8252 8.99665C24.8166 8.98116 24.8048 8.96888 24.7899 8.95983C24.7752 8.95057 24.7586 8.94595 24.7401 8.94595C24.722 8.94595 24.7055 8.95047 24.6906 8.95953C24.6757 8.96838 24.6638 8.98045 24.655 8.99575C24.6461 9.01084 24.6417 9.02784 24.6417 9.04676V9.04736C24.6417 9.06668 24.6459 9.08388 24.6544 9.09897C24.6628 9.11386 24.6744 9.12563 24.6891 9.13428C24.7038 9.14274 24.7205 9.14696 24.7392 9.14696C24.7581 9.14696 24.775 9.14274 24.7899 9.13428C24.8048 9.12583 24.8166 9.11426 24.8252 9.09957C24.8341 9.08468 24.8385 9.06778 24.8385 9.04887V9.04857H24.8563V9.12704H24.8457C24.8405 9.13891 24.8325 9.14998 24.8216 9.16024C24.8109 9.1705 24.7978 9.17875 24.7824 9.18499C24.7671 9.19123 24.7496 9.19435 24.7298 9.19435C24.7027 9.19435 24.6783 9.18801 24.6568 9.17533C24.6353 9.16266 24.6183 9.14535 24.6058 9.12342C24.5933 9.10128 24.5871 9.07633 24.5871 9.04857V9.04796C24.5871 9.01899 24.5936 8.99323 24.6067 8.9707C24.62 8.94796 24.6381 8.93015 24.661 8.91727C24.6842 8.90439 24.7103 8.89796 24.7395 8.89796ZM24.9864 9.19284V9.14394H25.1892V9.19284H24.9864ZM25.2822 9.34375V9.30632L25.4295 9.14696C25.448 9.12684 25.4625 9.11024 25.4729 9.09716C25.4834 9.08388 25.4907 9.07191 25.495 9.06124C25.4992 9.05058 25.5013 9.03891 25.5013 9.02623V9.02563C25.5013 9.01034 25.498 8.99665 25.4913 8.98458C25.4847 8.97251 25.4752 8.96295 25.463 8.95591C25.4507 8.94886 25.436 8.94534 25.4189 8.94534C25.4016 8.94534 25.3864 8.94896 25.3733 8.95621C25.3602 8.96325 25.3501 8.97321 25.3428 8.98609C25.3356 8.99877 25.332 9.01366 25.332 9.03076L25.3317 9.03136L25.2798 9.03106L25.2792 9.03076C25.2794 9.005 25.2856 8.98216 25.2979 8.96224C25.3101 8.94212 25.327 8.92643 25.3486 8.91516C25.3701 8.90369 25.3948 8.89796 25.4225 8.89796C25.4479 8.89796 25.4707 8.90329 25.491 8.91395C25.5114 8.92442 25.5274 8.9388 25.539 8.95711C25.5509 8.97542 25.5568 8.99635 25.5568 9.01989V9.0205C25.5568 9.037 25.5539 9.05289 25.5481 9.06818C25.5424 9.08348 25.5324 9.10048 25.5179 9.11919C25.5034 9.1377 25.483 9.16054 25.4566 9.18771L25.344 9.30391L25.3576 9.27886V9.30391L25.3443 9.29485H25.5641V9.34375H25.2822ZM25.801 9.35401C25.7688 9.35401 25.7412 9.34476 25.7183 9.32624C25.6956 9.30773 25.6781 9.28147 25.6658 9.24747C25.6535 9.21326 25.6474 9.17282 25.6474 9.12613V9.12553C25.6474 9.07885 25.6535 9.03851 25.6658 9.0045C25.6781 8.97049 25.6956 8.94424 25.7183 8.92572C25.7412 8.90721 25.7688 8.89796 25.801 8.89796C25.8332 8.89796 25.8608 8.90721 25.8837 8.92572C25.9066 8.94424 25.9243 8.97049 25.9365 9.0045C25.949 9.03851 25.9552 9.07885 25.9552 9.12553V9.12613C25.9552 9.17282 25.949 9.21326 25.9365 9.24747C25.9243 9.28147 25.9066 9.30773 25.8837 9.32624C25.8608 9.34476 25.8332 9.35401 25.801 9.35401ZM25.801 9.30663C25.8219 9.30663 25.8397 9.29928 25.8544 9.28459C25.8693 9.2699 25.8807 9.24908 25.8885 9.22211C25.8966 9.19515 25.9006 9.16316 25.9006 9.12613V9.12553C25.9006 9.08851 25.8966 9.05661 25.8885 9.02985C25.8807 9.00289 25.8693 8.98216 25.8544 8.96768C25.8397 8.95299 25.8219 8.94564 25.801 8.94564C25.7803 8.94564 25.7625 8.95299 25.7476 8.96768C25.7329 8.98216 25.7216 9.00289 25.7138 9.02985C25.7059 9.05661 25.702 9.08851 25.702 9.12553V9.12613C25.702 9.16316 25.7059 9.19515 25.7138 9.22211C25.7216 9.24908 25.7329 9.2699 25.7476 9.28459C25.7625 9.29928 25.7803 9.30663 25.801 9.30663ZM26.0446 9.34375V9.30632L26.1919 9.14696C26.2104 9.12684 26.2249 9.11024 26.2353 9.09716C26.2458 9.08388 26.2531 9.07191 26.2574 9.06124C26.2616 9.05058 26.2637 9.03891 26.2637 9.02623V9.02563C26.2637 9.01034 26.2604 8.99665 26.2537 8.98458C26.2471 8.97251 26.2376 8.96295 26.2254 8.95591C26.2131 8.94886 26.1984 8.94534 26.1813 8.94534C26.164 8.94534 26.1488 8.94896 26.1357 8.95621C26.1226 8.96325 26.1125 8.97321 26.1052 8.98609C26.098 8.99877 26.0944 9.01366 26.0944 9.03076L26.0941 9.03136L26.0422 9.03106L26.0416 9.03076C26.0418 9.005 26.048 8.98216 26.0603 8.96224C26.0725 8.94212 26.0894 8.92643 26.111 8.91516C26.1325 8.90369 26.1572 8.89796 26.1849 8.89796C26.2103 8.89796 26.2331 8.90329 26.2534 8.91395C26.2738 8.92442 26.2898 8.9388 26.3014 8.95711C26.3133 8.97542 26.3192 8.99635 26.3192 9.01989V9.0205C26.3192 9.037 26.3163 9.05289 26.3105 9.06818C26.3049 9.08348 26.2948 9.10048 26.2803 9.11919C26.2658 9.1377 26.2454 9.16054 26.219 9.18771L26.1065 9.30391L26.12 9.27886V9.30391L26.1068 9.29485H26.3265V9.34375H26.0446ZM26.5607 9.35401C26.5337 9.35401 26.5097 9.34868 26.4886 9.33802C26.4674 9.32735 26.4504 9.31286 26.4376 9.29455C26.4249 9.27604 26.4174 9.25521 26.4152 9.23208L26.4149 9.22876H26.4671L26.4674 9.23117C26.4692 9.24505 26.4743 9.25773 26.4825 9.2692C26.491 9.28047 26.5019 9.28942 26.5154 9.29606C26.5291 9.3027 26.5444 9.30602 26.5613 9.30602C26.5806 9.30602 26.5976 9.3018 26.6123 9.29335C26.627 9.28469 26.6385 9.27282 26.6467 9.25773C26.655 9.24264 26.6591 9.22533 26.6591 9.20582V9.20521C26.6591 9.1859 26.6549 9.16879 26.6464 9.1539C26.6382 9.13881 26.6268 9.12704 26.6123 9.11859C26.5978 9.11014 26.5811 9.10591 26.5622 9.10591C26.5477 9.10591 26.5343 9.10813 26.5221 9.11255C26.51 9.11698 26.4992 9.12362 26.4898 9.13247C26.4859 9.1361 26.4823 9.14002 26.4789 9.14424C26.4757 9.14847 26.4727 9.1532 26.4698 9.15843H26.4228L26.4457 8.90822H26.6881V8.95681H26.4886L26.4738 9.1041H26.4786C26.485 9.09424 26.493 9.08599 26.5024 9.07935C26.5119 9.07271 26.5225 9.06768 26.5341 9.06426C26.546 9.06064 26.5585 9.05883 26.5716 9.05883C26.5989 9.05883 26.6232 9.06517 26.6443 9.07784C26.6654 9.09032 26.682 9.10752 26.6941 9.12946C26.7062 9.15119 26.7122 9.17614 26.7122 9.20431V9.20491C26.7122 9.23409 26.7057 9.25994 26.6926 9.28248C26.6797 9.30481 26.6619 9.32232 26.6392 9.335C26.6164 9.34767 26.5903 9.35401 26.5607 9.35401Z" fill="#232323" fill-opacity="0.8"/>
<path d="M18.5519 11.1875V10.733H18.6044V10.911H18.6093C18.6175 10.8937 18.6294 10.8803 18.6449 10.8709C18.6604 10.8612 18.6801 10.8564 18.704 10.8564C18.7284 10.8564 18.749 10.8611 18.7659 10.8706C18.7828 10.8798 18.7957 10.8934 18.8045 10.9113C18.8134 10.9292 18.8178 10.9511 18.8178 10.9768V11.1875H18.7653V10.9895C18.7653 10.9601 18.7591 10.9384 18.7466 10.9243C18.7343 10.91 18.7152 10.9029 18.6892 10.9029C18.6719 10.9029 18.6569 10.9066 18.6443 10.914C18.6316 10.9215 18.6217 10.9321 18.6147 10.9457C18.6079 10.9594 18.6044 10.9758 18.6044 10.9949V11.1875H18.5519ZM19.0285 11.1899C18.9951 11.1899 18.9708 11.1832 18.9558 11.1697C18.9409 11.1562 18.9334 11.134 18.9334 11.103V10.9056H18.8821V10.8621H18.9334V10.7779H18.9877V10.8621H19.059V10.9056H18.9877V11.0897C18.9877 11.1088 18.9914 11.1226 18.9986 11.1311C19.0059 11.1393 19.0179 11.1434 19.0348 11.1434C19.0395 11.1434 19.0434 11.1433 19.0466 11.1431C19.05 11.1429 19.0541 11.1426 19.059 11.1422V11.1869C19.0539 11.1877 19.0489 11.1884 19.0439 11.189C19.0389 11.1896 19.0337 11.1899 19.0285 11.1899ZM19.2531 11.1899C19.2196 11.1899 19.1954 11.1832 19.1803 11.1697C19.1654 11.1562 19.158 11.134 19.158 11.103V10.9056H19.1067V10.8621H19.158V10.7779H19.2123V10.8621H19.2835V10.9056H19.2123V11.0897C19.2123 11.1088 19.2159 11.1226 19.2232 11.1311C19.2304 11.1393 19.2425 11.1434 19.2594 11.1434C19.264 11.1434 19.2679 11.1433 19.2712 11.1431C19.2746 11.1429 19.2787 11.1426 19.2835 11.1422V11.1869C19.2785 11.1877 19.2735 11.1884 19.2684 11.189C19.2634 11.1896 19.2583 11.1899 19.2531 11.1899ZM19.362 11.2962V10.8621H19.4145V10.914H19.4194C19.426 10.902 19.4343 10.8917 19.4444 10.8833C19.4545 10.8746 19.4659 10.868 19.4788 10.8633C19.4917 10.8587 19.5057 10.8564 19.5208 10.8564C19.5483 10.8564 19.5723 10.8634 19.5926 10.8775C19.6131 10.8914 19.629 10.9109 19.6403 10.9361C19.6516 10.9612 19.6572 10.9907 19.6572 11.0245V11.0251C19.6572 11.0591 19.6516 11.0887 19.6403 11.1139C19.629 11.139 19.6131 11.1585 19.5926 11.1724C19.5723 11.1863 19.5483 11.1932 19.5208 11.1932C19.5059 11.1932 19.4918 11.1909 19.4785 11.1863C19.4654 11.1815 19.4538 11.1748 19.4435 11.1664C19.4334 11.1579 19.4254 11.1479 19.4194 11.1362H19.4145V11.2962H19.362ZM19.5087 11.1468C19.5286 11.1468 19.5456 11.1419 19.5597 11.1323C19.5738 11.1224 19.5846 11.1084 19.592 11.0903C19.5996 11.072 19.6035 11.0503 19.6035 11.0251V11.0245C19.6035 10.9992 19.5996 10.9774 19.592 10.9593C19.5846 10.9412 19.5738 10.9273 19.5597 10.9177C19.5456 10.9078 19.5286 10.9029 19.5087 10.9029C19.489 10.9029 19.472 10.9078 19.4577 10.9177C19.4434 10.9275 19.4324 10.9415 19.4248 10.9596C19.4171 10.9777 19.4133 10.9994 19.4133 11.0245V11.0251C19.4133 11.0501 19.4171 11.0717 19.4248 11.09C19.4324 11.1081 19.4434 11.1221 19.4577 11.132C19.472 11.1418 19.489 11.1468 19.5087 11.1468ZM19.851 11.1932C19.8268 11.1932 19.8055 11.1896 19.787 11.1824C19.7685 11.1749 19.7536 11.1646 19.7423 11.1513C19.7312 11.138 19.7247 11.1224 19.7227 11.1045H19.7764C19.7808 11.118 19.7895 11.1288 19.8024 11.1371C19.8152 11.1453 19.832 11.1495 19.8528 11.1495C19.8675 11.1495 19.8803 11.1474 19.8914 11.1431C19.9027 11.1387 19.9115 11.1328 19.918 11.1253C19.9244 11.1177 19.9276 11.1089 19.9276 11.0991V11.0985C19.9276 11.0874 19.9232 11.078 19.9143 11.0704C19.9055 11.0625 19.891 11.0562 19.8709 11.0514L19.8205 11.0393C19.8002 11.0345 19.7835 11.0282 19.7704 11.0206C19.7573 11.0127 19.7476 11.0032 19.7414 10.9919C19.7352 10.9804 19.732 10.967 19.732 10.9515V10.9512C19.732 10.9331 19.7373 10.9169 19.7477 10.9026C19.7584 10.8883 19.7729 10.877 19.7912 10.8688C19.8095 10.8605 19.8301 10.8564 19.8531 10.8564C19.8758 10.8564 19.8959 10.86 19.9134 10.8673C19.9311 10.8743 19.9453 10.8844 19.956 10.8974C19.9669 10.9105 19.9735 10.9259 19.9759 10.9436H19.9243C19.9209 10.9307 19.913 10.9203 19.9008 10.9122C19.8885 10.9042 19.8725 10.9002 19.8528 10.9002C19.8399 10.9002 19.8284 10.9023 19.8184 10.9065C19.8083 10.9105 19.8004 10.9162 19.7945 10.9234C19.7887 10.9306 19.7858 10.9391 19.7858 10.9488V10.9494C19.7858 10.9566 19.7877 10.963 19.7915 10.9687C19.7953 10.9743 19.8013 10.9792 19.8093 10.9835C19.8174 10.9877 19.8277 10.9914 19.8404 10.9946L19.8905 11.0067C19.9211 11.0142 19.9438 11.0248 19.9587 11.0387C19.9738 11.0526 19.9814 11.0712 19.9814 11.0945V11.0951C19.9814 11.1145 19.9756 11.1316 19.9641 11.1465C19.9527 11.1611 19.9371 11.1726 19.9174 11.1809C19.8978 11.1891 19.8757 11.1932 19.851 11.1932ZM20.1057 11.1905C20.095 11.1905 20.0858 11.1867 20.0779 11.179C20.0703 11.1712 20.0665 11.1619 20.0665 11.1513C20.0665 11.1404 20.0703 11.1312 20.0779 11.1235C20.0858 11.1159 20.095 11.112 20.1057 11.112C20.1166 11.112 20.1258 11.1159 20.1335 11.1235C20.1411 11.1312 20.1449 11.1404 20.1449 11.1513C20.1449 11.1619 20.1411 11.1712 20.1335 11.179C20.1258 11.1867 20.1166 11.1905 20.1057 11.1905ZM20.1057 10.9569C20.095 10.9569 20.0858 10.9531 20.0779 10.9454C20.0703 10.9376 20.0665 10.9283 20.0665 10.9177C20.0665 10.9068 20.0703 10.8975 20.0779 10.8899C20.0858 10.8823 20.095 10.8784 20.1057 10.8784C20.1166 10.8784 20.1258 10.8823 20.1335 10.8899C20.1411 10.8975 20.1449 10.9068 20.1449 10.9177C20.1449 10.9283 20.1411 10.9376 20.1335 10.9454C20.1258 10.9531 20.1166 10.9569 20.1057 10.9569ZM20.3855 10.733L20.2479 11.2962H20.1975L20.3351 10.733H20.3855ZM20.5738 10.733L20.4362 11.2962H20.3858L20.5234 10.733H20.5738ZM20.757 11.3022C20.7309 11.3022 20.708 11.2985 20.6885 11.291C20.669 11.2838 20.6534 11.2734 20.6417 11.2599C20.6303 11.2467 20.6231 11.2312 20.6203 11.2135L20.6209 11.2132H20.6752L20.6755 11.2135C20.6784 11.2257 20.6868 11.2358 20.7009 11.2436C20.715 11.2517 20.7337 11.2557 20.757 11.2557C20.7862 11.2557 20.809 11.2491 20.8253 11.2358C20.8418 11.2227 20.85 11.2042 20.85 11.1803V11.1145H20.8452C20.8383 11.1263 20.8298 11.1365 20.8195 11.1449C20.8093 11.1534 20.7977 11.1598 20.7848 11.1643C20.7719 11.1685 20.758 11.1706 20.7432 11.1706C20.7152 11.1706 20.6909 11.164 20.6704 11.1507C20.6501 11.1372 20.6344 11.1187 20.6233 11.0951C20.6123 11.0716 20.6067 11.0446 20.6067 11.0143V11.0136C20.6067 10.9833 20.6123 10.9563 20.6233 10.9328C20.6346 10.909 20.6505 10.8904 20.671 10.8769C20.6915 10.8632 20.716 10.8564 20.7444 10.8564C20.7597 10.8564 20.7737 10.8588 20.7866 10.8636C20.7995 10.8685 20.8109 10.8753 20.8207 10.8842C20.8308 10.893 20.8391 10.9036 20.8458 10.9159H20.8494V10.8621H20.9019V11.183C20.9019 11.2071 20.896 11.2281 20.8841 11.2461C20.8724 11.264 20.8557 11.2777 20.834 11.2874C20.8123 11.2973 20.7866 11.3022 20.757 11.3022ZM20.7546 11.1241C20.7747 11.1241 20.792 11.1195 20.8062 11.1102C20.8207 11.1008 20.8318 11.0878 20.8394 11.0713C20.8473 11.0548 20.8512 11.0358 20.8512 11.0143V11.0136C20.8512 10.9921 20.8473 10.973 20.8394 10.9563C20.8318 10.9396 20.8207 10.9265 20.8062 10.9171C20.792 10.9076 20.7747 10.9029 20.7546 10.9029C20.7345 10.9029 20.7174 10.9076 20.7033 10.9171C20.6894 10.9265 20.6788 10.9396 20.6713 10.9563C20.6641 10.973 20.6605 10.9921 20.6605 11.0136V11.0143C20.6605 11.0358 20.6641 11.0548 20.6713 11.0713C20.6788 11.0878 20.6894 11.1008 20.7033 11.1102C20.7174 11.1195 20.7345 11.1241 20.7546 11.1241ZM21.1334 11.1932C21.1026 11.1932 21.076 11.1865 21.0534 11.173C21.0311 11.1593 21.0138 11.1399 21.0015 11.1148C20.9894 11.0896 20.9834 11.0597 20.9834 11.0251V11.0245C20.9834 10.9897 20.9894 10.9597 21.0015 10.9346C21.0138 10.9094 21.0311 10.8901 21.0534 10.8766C21.076 10.8631 21.1026 10.8564 21.1334 10.8564C21.1644 10.8564 21.1911 10.8631 21.2134 10.8766C21.2357 10.8901 21.2529 10.9094 21.265 10.9346C21.2773 10.9597 21.2834 10.9897 21.2834 11.0245V11.0251C21.2834 11.0597 21.2773 11.0896 21.265 11.1148C21.2529 11.1399 21.2357 11.1593 21.2134 11.173C21.1911 11.1865 21.1644 11.1932 21.1334 11.1932ZM21.1334 11.1468C21.1539 11.1468 21.1713 11.1419 21.1856 11.1323C21.1999 11.1226 21.2108 11.1087 21.2182 11.0906C21.2259 11.0725 21.2297 11.0507 21.2297 11.0251V11.0245C21.2297 10.9988 21.2259 10.9768 21.2182 10.9587C21.2108 10.9406 21.1999 10.9268 21.1856 10.9174C21.1713 10.9077 21.1539 10.9029 21.1334 10.9029C21.1129 10.9029 21.0955 10.9077 21.0812 10.9174C21.0669 10.9268 21.0559 10.9406 21.0483 10.9587C21.0409 10.9768 21.0371 10.9988 21.0371 11.0245V11.0251C21.0371 11.0507 21.0409 11.0725 21.0483 11.0906C21.0559 11.1087 21.0669 11.1226 21.0812 11.1323C21.0955 11.1419 21.1129 11.1468 21.1334 11.1468ZM21.3866 11.1875V10.9056H21.3326V10.8621H21.3866V10.8259C21.3866 10.8042 21.3902 10.7863 21.3972 10.7722C21.4045 10.7579 21.4151 10.7473 21.4292 10.7405C21.4433 10.7335 21.4606 10.7299 21.4811 10.7299C21.4876 10.7299 21.4936 10.7302 21.4992 10.7308C21.5051 10.7312 21.5107 10.7319 21.5161 10.733V10.7749C21.5129 10.7743 21.5092 10.7739 21.505 10.7737C21.5007 10.7735 21.4963 10.7734 21.4917 10.7734C21.473 10.7734 21.4595 10.7779 21.4512 10.787C21.4432 10.796 21.4392 10.8095 21.4392 10.8274V10.8621H21.5131V10.9056H21.4392V11.1875H21.3866ZM21.6978 11.1932C21.6733 11.1932 21.6527 11.1886 21.636 11.1794C21.6192 11.1699 21.6067 11.1562 21.5982 11.1383C21.59 11.1202 21.5858 11.0984 21.5858 11.0728V10.8621H21.6384V11.0601C21.6384 11.0893 21.644 11.111 21.6553 11.1253C21.6667 11.1396 21.6854 11.1468 21.7114 11.1468C21.7257 11.1468 21.7383 11.1446 21.7491 11.1404C21.7602 11.1362 21.7695 11.1302 21.7769 11.1223C21.7843 11.1143 21.7899 11.1046 21.7935 11.0933C21.7973 11.0819 21.7992 11.069 21.7992 11.0547V10.8621H21.8518V11.1875H21.7992V11.1389H21.7944C21.7892 11.1504 21.782 11.1602 21.773 11.1685C21.7639 11.1765 21.7531 11.1827 21.7404 11.1869C21.7279 11.1911 21.7137 11.1932 21.6978 11.1932ZM21.9498 11.1875V10.8621H22.0024V10.911H22.0072C22.0154 10.8937 22.0273 10.8803 22.0428 10.8709C22.0583 10.8612 22.078 10.8564 22.102 10.8564C22.1386 10.8564 22.1667 10.8669 22.1862 10.8878C22.2059 10.9085 22.2158 10.9382 22.2158 10.9768V11.1875H22.1632V10.9895C22.1632 10.9601 22.157 10.9384 22.1445 10.9243C22.1322 10.91 22.1131 10.9029 22.0872 10.9029C22.0699 10.9029 22.0549 10.9066 22.0422 10.914C22.0295 10.9215 22.0197 10.9321 22.0126 10.9457C22.0058 10.9594 22.0024 10.9758 22.0024 10.9949V11.1875H21.9498ZM22.431 11.1932C22.4036 11.1932 22.3796 11.1863 22.3591 11.1724C22.3386 11.1585 22.3227 11.139 22.3114 11.1139C22.3002 11.0885 22.2945 11.0589 22.2945 11.0251V11.0245C22.2945 10.9905 22.3002 10.9609 22.3114 10.9358C22.3227 10.9106 22.3385 10.8911 22.3588 10.8772C22.3793 10.8633 22.4034 10.8564 22.431 10.8564C22.4458 10.8564 22.4598 10.8588 22.4729 10.8636C22.4862 10.8683 22.498 10.8748 22.5082 10.8833C22.5185 10.8917 22.5265 10.9018 22.5324 10.9134H22.5372V10.733H22.5897V11.1875H22.5372V11.1356H22.5324C22.5257 11.1477 22.5174 11.158 22.5073 11.1667C22.4973 11.1751 22.4858 11.1817 22.4729 11.1863C22.46 11.1909 22.446 11.1932 22.431 11.1932ZM22.443 11.1468C22.4627 11.1468 22.4797 11.1418 22.494 11.132C22.5083 11.1221 22.5193 11.1081 22.5269 11.09C22.5346 11.0717 22.5384 11.0501 22.5384 11.0251V11.0245C22.5384 10.9994 22.5346 10.9777 22.5269 10.9596C22.5193 10.9415 22.5083 10.9275 22.494 10.9177C22.4797 10.9078 22.4627 10.9029 22.443 10.9029C22.4233 10.9029 22.4063 10.9078 22.392 10.9177C22.3779 10.9273 22.3671 10.9412 22.3594 10.9593C22.352 10.9774 22.3483 10.9992 22.3483 11.0245V11.0251C22.3483 11.0503 22.352 11.072 22.3594 11.0903C22.3671 11.1084 22.3779 11.1224 22.392 11.1323C22.4063 11.1419 22.4233 11.1468 22.443 11.1468ZM22.8022 11.1932C22.7781 11.1932 22.7567 11.1896 22.7382 11.1824C22.7197 11.1749 22.7048 11.1646 22.6935 11.1513C22.6825 11.138 22.6759 11.1224 22.6739 11.1045H22.7276C22.7321 11.118 22.7407 11.1288 22.7536 11.1371C22.7665 11.1453 22.7833 11.1495 22.804 11.1495C22.8187 11.1495 22.8316 11.1474 22.8426 11.1431C22.8539 11.1387 22.8628 11.1328 22.8692 11.1253C22.8756 11.1177 22.8789 11.1089 22.8789 11.0991V11.0985C22.8789 11.0874 22.8744 11.078 22.8656 11.0704C22.8567 11.0625 22.8422 11.0562 22.8221 11.0514L22.7717 11.0393C22.7514 11.0345 22.7347 11.0282 22.7216 11.0206C22.7085 11.0127 22.6989 11.0032 22.6926 10.9919C22.6864 10.9804 22.6833 10.967 22.6833 10.9515V10.9512C22.6833 10.9331 22.6885 10.9169 22.699 10.9026C22.7096 10.8883 22.7241 10.877 22.7424 10.8688C22.7607 10.8605 22.7814 10.8564 22.8043 10.8564C22.827 10.8564 22.8472 10.86 22.8647 10.8673C22.8824 10.8743 22.8966 10.8844 22.9072 10.8974C22.9181 10.9105 22.9247 10.9259 22.9272 10.9436H22.8755C22.8721 10.9307 22.8643 10.9203 22.852 10.9122C22.8397 10.9042 22.8237 10.9002 22.804 10.9002C22.7911 10.9002 22.7797 10.9023 22.7696 10.9065C22.7595 10.9105 22.7516 10.9162 22.7458 10.9234C22.7399 10.9306 22.737 10.9391 22.737 10.9488V10.9494C22.737 10.9566 22.7389 10.963 22.7427 10.9687C22.7466 10.9743 22.7525 10.9792 22.7605 10.9835C22.7686 10.9877 22.779 10.9914 22.7916 10.9946L22.8417 11.0067C22.8723 11.0142 22.8951 11.0248 22.9099 11.0387C22.925 11.0526 22.9326 11.0712 22.9326 11.0945V11.0951C22.9326 11.1145 22.9269 11.1316 22.9154 11.1465C22.9039 11.1611 22.8883 11.1726 22.8686 11.1809C22.8491 11.1891 22.8269 11.1932 22.8022 11.1932ZM23.0171 11.1875V10.733H23.0696V10.911H23.0744C23.0827 10.8937 23.0946 10.8803 23.1101 10.8709C23.1256 10.8612 23.1453 10.8564 23.1692 10.8564C23.1936 10.8564 23.2142 10.8611 23.2311 10.8706C23.248 10.8798 23.2609 10.8934 23.2697 10.9113C23.2786 10.9292 23.283 10.9511 23.283 10.9768V11.1875H23.2305V10.9895C23.2305 10.9601 23.2242 10.9384 23.2118 10.9243C23.1995 10.91 23.1804 10.9029 23.1544 10.9029C23.1371 10.9029 23.1221 10.9066 23.1095 10.914C23.0968 10.9215 23.0869 10.9321 23.0799 10.9457C23.073 10.9594 23.0696 10.9758 23.0696 10.9949V11.1875H23.0171ZM23.5118 11.1932C23.481 11.1932 23.4543 11.1865 23.4318 11.173C23.4095 11.1593 23.3922 11.1399 23.3799 11.1148C23.3678 11.0896 23.3618 11.0597 23.3618 11.0251V11.0245C23.3618 10.9897 23.3678 10.9597 23.3799 10.9346C23.3922 10.9094 23.4095 10.8901 23.4318 10.8766C23.4543 10.8631 23.481 10.8564 23.5118 10.8564C23.5428 10.8564 23.5694 10.8631 23.5918 10.8766C23.6141 10.8901 23.6313 10.9094 23.6434 10.9346C23.6557 10.9597 23.6618 10.9897 23.6618 11.0245V11.0251C23.6618 11.0597 23.6557 11.0896 23.6434 11.1148C23.6313 11.1399 23.6141 11.1593 23.5918 11.173C23.5694 11.1865 23.5428 11.1932 23.5118 11.1932ZM23.5118 11.1468C23.5323 11.1468 23.5497 11.1419 23.564 11.1323C23.5783 11.1226 23.5892 11.1087 23.5966 11.0906C23.6042 11.0725 23.6081 11.0507 23.6081 11.0251V11.0245C23.6081 10.9988 23.6042 10.9768 23.5966 10.9587C23.5892 10.9406 23.5783 10.9268 23.564 10.9174C23.5497 10.9077 23.5323 10.9029 23.5118 10.9029C23.4913 10.9029 23.4739 10.9077 23.4596 10.9174C23.4453 10.9268 23.4343 10.9406 23.4267 10.9587C23.4192 10.9768 23.4155 10.9988 23.4155 11.0245V11.0251C23.4155 11.0507 23.4192 11.0725 23.4267 11.0906C23.4343 11.1087 23.4453 11.1226 23.4596 11.1323C23.4739 11.1419 23.4913 11.1468 23.5118 11.1468ZM23.7433 11.2962V10.8621H23.7958V10.914H23.8006C23.8073 10.902 23.8156 10.8917 23.8257 10.8833C23.8357 10.8746 23.8472 10.868 23.8601 10.8633C23.873 10.8587 23.887 10.8564 23.902 10.8564C23.9296 10.8564 23.9536 10.8634 23.9739 10.8775C23.9944 10.8914 24.0103 10.9109 24.0216 10.9361C24.0328 10.9612 24.0385 10.9907 24.0385 11.0245V11.0251C24.0385 11.0591 24.0328 11.0887 24.0216 11.1139C24.0103 11.139 23.9944 11.1585 23.9739 11.1724C23.9536 11.1863 23.9296 11.1932 23.902 11.1932C23.8872 11.1932 23.8731 11.1909 23.8598 11.1863C23.8467 11.1815 23.835 11.1748 23.8248 11.1664C23.8147 11.1579 23.8067 11.1479 23.8006 11.1362H23.7958V11.2962H23.7433ZM23.89 11.1468C23.9099 11.1468 23.9269 11.1419 23.941 11.1323C23.9551 11.1224 23.9658 11.1084 23.9733 11.0903C23.9809 11.072 23.9847 11.0503 23.9847 11.0251V11.0245C23.9847 10.9992 23.9809 10.9774 23.9733 10.9593C23.9658 10.9412 23.9551 10.9273 23.941 10.9177C23.9269 10.9078 23.9099 10.9029 23.89 10.9029C23.8703 10.9029 23.8532 10.9078 23.839 10.9177C23.8247 10.9275 23.8137 10.9415 23.8061 10.9596C23.7984 10.9777 23.7946 10.9994 23.7946 11.0245V11.0251C23.7946 11.0501 23.7984 11.0717 23.8061 11.09C23.8137 11.1081 23.8247 11.1221 23.839 11.132C23.8532 11.1418 23.8703 11.1468 23.89 11.1468ZM24.1574 11.1905C24.1467 11.1905 24.1375 11.1867 24.1296 11.179C24.122 11.1712 24.1182 11.1619 24.1182 11.1513C24.1182 11.1404 24.122 11.1312 24.1296 11.1235C24.1375 11.1159 24.1467 11.112 24.1574 11.112C24.1683 11.112 24.1775 11.1159 24.1852 11.1235C24.1928 11.1312 24.1966 11.1404 24.1966 11.1513C24.1966 11.1619 24.1928 11.1712 24.1852 11.179C24.1775 11.1867 24.1683 11.1905 24.1574 11.1905ZM24.4191 11.1932C24.3887 11.1932 24.3623 11.1863 24.34 11.1724C24.3177 11.1585 24.3004 11.1389 24.2881 11.1136C24.2758 11.0882 24.2697 11.0583 24.2697 11.0239V11.0233C24.2697 10.9895 24.2757 10.9601 24.2878 10.9352C24.3 10.9102 24.3174 10.8909 24.3397 10.8772C24.362 10.8633 24.3884 10.8564 24.4188 10.8564C24.4451 10.8564 24.4679 10.861 24.487 10.8703C24.5061 10.8795 24.5214 10.892 24.5329 10.9077C24.5443 10.9232 24.5517 10.9406 24.5549 10.9599L24.5552 10.9617H24.503L24.5027 10.9608C24.4986 10.9447 24.4895 10.9311 24.4752 10.9198C24.4609 10.9085 24.4421 10.9029 24.4188 10.9029C24.3992 10.9029 24.3823 10.9078 24.3681 10.9177C24.3538 10.9275 24.3427 10.9415 24.3349 10.9596C24.3272 10.9775 24.3234 10.9988 24.3234 11.0233V11.0239C24.3234 11.0489 24.3273 11.0706 24.3352 11.0891C24.343 11.1074 24.3541 11.1216 24.3684 11.1317C24.3826 11.1417 24.3995 11.1468 24.4188 11.1468C24.4407 11.1468 24.4586 11.142 24.4725 11.1326C24.4864 11.1231 24.4963 11.1093 24.5024 11.0912L24.503 11.0894L24.5549 11.0891L24.5543 11.0924C24.5499 11.1119 24.542 11.1293 24.5307 11.1446C24.5195 11.1597 24.5046 11.1716 24.4861 11.1803C24.4676 11.1889 24.4452 11.1932 24.4191 11.1932ZM24.7656 11.1932C24.7348 11.1932 24.7081 11.1865 24.6856 11.173C24.6632 11.1593 24.6459 11.1399 24.6337 11.1148C24.6216 11.0896 24.6156 11.0597 24.6156 11.0251V11.0245C24.6156 10.9897 24.6216 10.9597 24.6337 10.9346C24.6459 10.9094 24.6632 10.8901 24.6856 10.8766C24.7081 10.8631 24.7348 10.8564 24.7656 10.8564C24.7965 10.8564 24.8232 10.8631 24.8455 10.8766C24.8679 10.8901 24.8851 10.9094 24.8972 10.9346C24.9094 10.9597 24.9156 10.9897 24.9156 11.0245V11.0251C24.9156 11.0597 24.9094 11.0896 24.8972 11.1148C24.8851 11.1399 24.8679 11.1593 24.8455 11.173C24.8232 11.1865 24.7965 11.1932 24.7656 11.1932ZM24.7656 11.1468C24.7861 11.1468 24.8035 11.1419 24.8178 11.1323C24.8321 11.1226 24.8429 11.1087 24.8504 11.0906C24.858 11.0725 24.8618 11.0507 24.8618 11.0251V11.0245C24.8618 10.9988 24.858 10.9768 24.8504 10.9587C24.8429 10.9406 24.8321 10.9268 24.8178 10.9174C24.8035 10.9077 24.7861 10.9029 24.7656 10.9029C24.745 10.9029 24.7276 10.9077 24.7133 10.9174C24.6991 10.9268 24.6881 10.9406 24.6804 10.9587C24.673 10.9768 24.6693 10.9988 24.6693 11.0245V11.0251C24.6693 11.0507 24.673 11.0725 24.6804 11.0906C24.6881 11.1087 24.6991 11.1226 24.7133 11.1323C24.7276 11.1419 24.745 11.1468 24.7656 11.1468ZM24.9971 11.1875V10.8621H25.0496V10.9116H25.0544C25.0617 10.8941 25.0727 10.8805 25.0876 10.8709C25.1027 10.8612 25.1209 10.8564 25.1422 10.8564C25.1569 10.8564 25.1701 10.8588 25.1818 10.8636C25.1934 10.8685 25.2035 10.8752 25.212 10.8839C25.2204 10.8923 25.2272 10.9022 25.2322 10.9134H25.237C25.2428 10.902 25.2507 10.892 25.2606 10.8836C25.2704 10.8749 25.2818 10.8683 25.2947 10.8636C25.3077 10.8588 25.3217 10.8564 25.3366 10.8564C25.3587 10.8564 25.3775 10.8605 25.3928 10.8688C25.4082 10.877 25.42 10.8891 25.4281 10.905C25.4361 10.9207 25.4401 10.9399 25.4401 10.9626V11.1875H25.3876V10.9747C25.3876 10.9586 25.3851 10.9453 25.3801 10.9349C25.3752 10.9242 25.3678 10.9163 25.3577 10.911C25.3477 10.9056 25.335 10.9029 25.3197 10.9029C25.3046 10.9029 25.2914 10.9063 25.2802 10.9131C25.2689 10.92 25.2602 10.9291 25.2539 10.9406C25.2477 10.9519 25.2446 10.9645 25.2446 10.9783V11.1875H25.192V10.9666C25.192 10.9537 25.1892 10.9425 25.1836 10.9331C25.1782 10.9234 25.1703 10.916 25.16 10.9107C25.15 10.9055 25.1381 10.9029 25.1244 10.9029C25.1103 10.9029 25.0976 10.9066 25.0861 10.914C25.0748 10.9215 25.0659 10.9316 25.0592 10.9442C25.0528 10.9567 25.0496 10.9706 25.0496 10.9859V11.1875H24.9971Z" fill="#159C2A"/>
<path d="M18.5 11.2992H20.6903V11.3354H18.5V11.2992ZM20.8331 11.2992H25.486V11.3354H20.8331V11.2992Z" fill="#159C2A"/>
</svg>
