<svg width="13" height="14" viewBox="0 0 13 14" fill="none" xmlns="http://www.w3.org/2000/svg">
<g id="Union">
<mask id="path-1-outside-1_993_3769" maskUnits="userSpaceOnUse" x="0" y="-0.0224609" width="13" height="14" fill="black">
<rect fill="white" y="-0.0224609" width="13" height="14"/>
<path fill-rule="evenodd" clip-rule="evenodd" d="M8.03833 3.0288C8.03181 3.64981 7.61285 4.21328 7.00988 4.37801C6.49435 4.5179 5.90573 4.34402 5.5703 3.92174C5.27012 3.54391 5.15527 3.04711 5.3406 2.59214C5.49591 2.20908 5.73214 1.8757 5.98403 1.55017C6.10541 1.39328 6.23201 1.23901 6.36514 1.09128C6.50218 0.939625 6.78017 0.939625 6.91852 1.09128C6.96159 1.13965 7.00466 1.18933 7.04642 1.23901C7.26307 1.49395 7.47059 1.76065 7.65331 2.04174C7.8329 2.31916 8.01601 2.643 8.03533 2.98148C8.03729 2.99717 8.03833 3.01299 8.03833 3.0288ZM6.17028 3.42808C6.17276 3.43095 6.17445 3.43278 6.17458 3.43278C6.17406 3.43278 6.17237 3.43095 6.17028 3.42808ZM7.03911 3.49998C7.04198 3.4975 7.04381 3.4958 7.04381 3.49567C7.04381 3.49619 7.04198 3.49789 7.03911 3.49998ZM6.07644 2.84643C6.05686 2.89794 6.04015 2.95036 6.02854 3.00449L6.02867 3.00423C6.02697 3.04083 6.02828 3.07744 6.03141 3.11365C6.0412 3.16373 6.05438 3.21275 6.07109 3.2606C6.09288 3.30571 6.11664 3.34924 6.14483 3.39095C6.14572 3.39173 6.14903 3.39666 6.15316 3.40284C6.15385 3.40386 6.15455 3.40491 6.15527 3.40598C6.17197 3.4252 6.18972 3.44507 6.20747 3.46285C6.22459 3.48 6.24246 3.49565 6.2605 3.51145C6.2624 3.51312 6.2643 3.51478 6.26621 3.51645C6.27051 3.51959 6.27495 3.52273 6.27926 3.52561C6.31946 3.5528 6.36122 3.57672 6.40455 3.59777C6.45336 3.61529 6.50335 3.62889 6.55451 3.63896C6.61181 3.64366 6.6695 3.64366 6.72692 3.63896C6.77652 3.62928 6.82481 3.61621 6.87218 3.5996C6.91721 3.57777 6.96067 3.55398 7.00231 3.52574C7.00309 3.52484 7.00802 3.52152 7.0142 3.51737C7.01521 3.51669 7.01625 3.51599 7.01732 3.51528C7.0365 3.49854 7.05634 3.48076 7.07409 3.46298C7.09121 3.44584 7.10683 3.42795 7.12259 3.40988C7.12426 3.40798 7.12593 3.40606 7.1276 3.40415C7.13073 3.39984 7.13387 3.39539 7.13674 3.39108C7.16388 3.35081 7.18777 3.30897 7.20878 3.26557C7.2264 3.21602 7.24024 3.16529 7.25029 3.11326C7.25276 3.08515 7.2542 3.05731 7.2542 3.02894C7.2542 3.02018 7.25381 3.01181 7.25329 3.0037C7.24167 2.95075 7.22497 2.89872 7.20578 2.848C7.15018 2.72471 7.08349 2.60665 7.01131 2.49291C6.93953 2.37786 6.86122 2.26543 6.7803 2.15561C6.75942 2.12554 6.73723 2.09678 6.71504 2.06802C6.76334 2.12946 6.72418 2.07848 6.71243 2.0641C6.68946 2.03429 6.66584 2.00448 6.64209 1.97506C6.63446 1.98477 6.62669 1.99455 6.61894 2.00432C6.60998 2.01561 6.60104 2.02687 6.59236 2.03795C6.58845 2.04318 6.5842 2.04841 6.57996 2.05364C6.57572 2.05887 6.57148 2.0641 6.56756 2.06932L6.56378 2.07351C6.55855 2.08039 6.55332 2.08725 6.54808 2.09412C6.52244 2.12775 6.49678 2.1614 6.47229 2.19614C6.32363 2.40087 6.18098 2.61502 6.07644 2.84643ZM12.28 8.88755V8.88768V8.88834C12.2801 8.89592 12.2798 8.9035 12.2794 8.91096C12.2728 9.25205 12.1806 9.59327 12.0059 9.88717C11.9205 10.0299 11.8185 10.1591 11.7031 10.273V12.6877C11.7031 12.8864 11.6548 13.0891 11.5399 13.2525C11.3507 13.5205 11.061 13.6839 10.7308 13.6878C10.5812 13.6896 10.4321 13.689 10.2829 13.6884C10.2082 13.6881 10.1335 13.6878 10.0586 13.6878H2.57491C2.24862 13.6826 1.96541 13.5257 1.77486 13.2655C1.60125 13.0281 1.60126 12.7532 1.60127 12.4755L1.60127 12.4694V10.2953C1.50378 10.2 1.41555 10.0952 1.33763 9.98405C1.14056 9.70427 1.03876 9.36958 1.00743 9.03097C0.952616 8.44135 1.20451 7.81904 1.64826 7.42944C1.87927 7.2268 2.14813 7.07253 2.4457 6.99278C2.65061 6.93787 2.86074 6.9248 3.07217 6.9248C3.84521 6.9248 4.6189 6.92545 5.39272 6.92624V5.63442C5.39272 5.6091 5.39257 5.58377 5.39243 5.5585C5.39214 5.50809 5.39185 5.45788 5.39272 5.40825C5.39924 5.02911 5.6916 4.73234 6.07139 4.72188C6.24454 4.71752 6.41769 4.71897 6.59084 4.72042C6.67741 4.72115 6.76399 4.72188 6.85056 4.72188C6.88967 4.72188 6.92892 4.72173 6.96822 4.72159C7.04696 4.7213 7.1259 4.72101 7.20426 4.72188C7.57179 4.72436 7.86127 4.99433 7.89546 5.35373C7.89742 5.36916 7.89859 5.38471 7.89859 5.4004V5.40171C7.89886 5.40877 7.89886 5.41583 7.89859 5.42276V6.92833C8.08571 6.92846 8.27283 6.92858 8.45995 6.9287C9.02198 6.92907 9.58402 6.92944 10.1461 6.93003C10.3379 6.93003 10.5245 6.93526 10.7138 6.97056C10.9827 7.02024 11.2489 7.1379 11.4669 7.30132C11.7083 7.48305 11.9158 7.70399 12.0542 7.97462C12.1985 8.25479 12.2766 8.56163 12.2797 8.87644C12.28 8.87997 12.28 8.88363 12.28 8.88716V8.88755ZM11.4862 8.7236C11.4873 8.73119 11.4883 8.73877 11.4893 8.74636C11.4864 8.72073 11.4832 8.69498 11.4786 8.66883C11.4814 8.68727 11.4838 8.70545 11.4862 8.7236ZM11.2685 8.19164L11.2545 8.17295C11.261 8.18014 11.2694 8.18994 11.2685 8.19164ZM7.11551 5.41531V5.40171C7.11551 5.38864 7.1142 5.37687 7.10898 5.36772C7.11133 5.3838 7.11342 5.39962 7.11551 5.41531ZM7.08418 5.51022H6.45119C6.40918 5.51022 6.36655 5.50927 6.32369 5.50831C6.274 5.5072 6.22399 5.50608 6.17424 5.50643C6.17441 5.51985 6.17464 5.53327 6.17488 5.54667C6.17534 5.57337 6.1758 5.60003 6.1758 5.62658V6.92702L6.55168 6.92741L7.11551 6.9278V5.50996C7.10507 5.51022 7.09463 5.51022 7.08418 5.51022ZM2.25907 7.9367L2.24171 7.94965C2.24836 7.94337 2.25659 7.93579 2.25907 7.9367ZM2.46776 12.8775L2.47011 12.8796L2.47115 12.88L2.46776 12.8775ZM2.4752 12.883L2.47272 12.882V12.8821C2.47702 12.8858 2.48029 12.8882 2.48094 12.8878C2.48107 12.8876 2.47885 12.8858 2.4752 12.883ZM10.8889 12.8173L10.891 12.8149L10.8914 12.8139L10.8889 12.8173ZM10.8944 12.8098L10.8934 12.8123H10.8935C10.8972 12.808 10.8996 12.8047 10.8993 12.804C10.899 12.8039 10.8972 12.8061 10.8944 12.8098ZM10.8991 12.7908C10.9049 12.7727 10.9097 12.7541 10.9139 12.7354V12.735C10.9181 12.6661 10.9166 12.5962 10.9151 12.5269C10.9144 12.4918 10.9136 12.4567 10.9136 12.422V10.7521C10.8742 10.764 10.8345 10.7746 10.7944 10.784C10.6732 10.8149 10.5484 10.8349 10.4216 10.8427C9.95067 10.8724 9.46725 10.7115 9.09776 10.414C9.0124 10.4827 8.92131 10.5439 8.82668 10.5956C8.72084 10.6538 8.61081 10.7014 8.49792 10.7387C8.16145 10.8512 7.79914 10.8711 7.44714 10.7983C7.1574 10.7393 6.87654 10.603 6.64278 10.4142C6.55743 10.4827 6.46633 10.5439 6.37171 10.5956C6.26586 10.6538 6.15584 10.7014 6.04294 10.7387C5.70647 10.8512 5.34417 10.8711 4.99217 10.7983C4.70256 10.7393 4.42156 10.6028 4.18781 10.414C4.07948 10.5006 3.9615 10.5748 3.83698 10.636C3.62425 10.7419 3.39284 10.8046 3.15452 10.8336C2.8935 10.8647 2.63195 10.8332 2.38318 10.7558V12.4822C2.38318 12.5093 2.38271 12.5369 2.38223 12.5646C2.38123 12.6229 2.38021 12.682 2.38358 12.7399C2.38671 12.7535 2.39023 12.7669 2.39428 12.7804C2.40057 12.7922 2.40711 12.8037 2.41373 12.8154C2.41672 12.8207 2.41972 12.826 2.42273 12.8314C2.42769 12.8373 2.43278 12.8431 2.438 12.8484C2.43944 12.8499 2.44583 12.8563 2.45327 12.8635L2.45627 12.8654C2.46867 12.8733 2.48133 12.8807 2.49425 12.8876C2.51083 12.8927 2.52766 12.8973 2.54476 12.9012C2.55599 12.9016 2.56747 12.902 2.57883 12.902C2.79461 12.9028 3.01039 12.9025 3.22618 12.9023C3.33407 12.9021 3.44196 12.902 3.54985 12.902H10.5192C10.5444 12.902 10.5699 12.9025 10.5955 12.9029C10.6471 12.9039 10.6992 12.9049 10.7505 12.902C10.7644 12.8988 10.7784 12.8952 10.7921 12.891C10.8039 12.8847 10.8154 12.8781 10.8271 12.8715C10.8324 12.8685 10.8376 12.8655 10.843 12.8625C10.8489 12.8575 10.8547 12.8524 10.86 12.8472C10.8615 12.8458 10.8679 12.8393 10.8751 12.8319L10.8769 12.8289C10.8849 12.8165 10.8922 12.8038 10.8991 12.7908ZM3.66732 9.82324L3.64891 9.83775H3.64904L3.65218 9.83566C3.65935 9.83004 3.66836 9.82272 3.67306 9.81866L3.66732 9.82324ZM6.11515 9.83086L6.11877 9.82834C6.12347 9.82468 6.12777 9.82115 6.13052 9.81866L6.12477 9.82324L6.11515 9.83086ZM8.57274 9.83086L8.57636 9.82834C8.57832 9.82681 8.58021 9.8253 8.58195 9.82388C8.58438 9.82191 8.58651 9.82011 8.5881 9.81866L8.58236 9.82324L8.57274 9.83086ZM11.4109 9.3369C11.4451 9.2446 11.4708 9.14981 11.4881 9.05228V9.05215C11.4934 8.9975 11.4967 8.94325 11.4967 8.88834C11.4967 8.84467 11.4947 8.8014 11.4904 8.75773C11.4733 8.64844 11.4457 8.54189 11.4067 8.43795C11.3713 8.36095 11.3303 8.28616 11.2827 8.21504C11.2755 8.20444 11.2679 8.19389 11.2604 8.18332C11.2562 8.17747 11.252 8.17162 11.2479 8.16575L11.2475 8.16536C11.2161 8.12745 11.1835 8.09215 11.1496 8.05816C11.1147 8.02312 11.0784 7.99057 11.0411 7.95919C11.0225 7.94533 11.0038 7.93239 10.9851 7.91958C10.918 7.87513 10.8472 7.83643 10.7736 7.8027C10.6814 7.76844 10.5871 7.74256 10.49 7.72504C10.3742 7.7141 10.2573 7.71472 10.1414 7.71534C10.1146 7.71548 10.0879 7.71563 10.0612 7.71563H9.38254C8.08523 7.71563 6.78922 7.71432 5.49321 7.71301C5.19695 7.71301 4.90035 7.71269 4.60376 7.71236C4.30716 7.71203 4.01057 7.7117 3.7143 7.7117H3.16092C3.13988 7.7117 3.11881 7.71162 3.09772 7.71153C2.99493 7.71111 2.89173 7.71068 2.78961 7.72033C2.69185 7.73785 2.59684 7.76387 2.50404 7.79891C2.42704 7.83407 2.35291 7.87486 2.28256 7.92219C2.27178 7.92968 2.26099 7.93741 2.25021 7.94513C2.24481 7.949 2.23941 7.95287 2.23401 7.95671L2.23296 7.95749C2.19642 7.98887 2.16092 8.02064 2.12594 8.05554C2.09096 8.09045 2.05846 8.12679 2.02714 8.16419C2.01331 8.18288 2.00039 8.20158 1.9876 8.22027C1.94178 8.28812 1.90237 8.35951 1.86857 8.4339C1.83333 8.52737 1.80722 8.62307 1.78974 8.72152C1.77916 8.83029 1.77942 8.93893 1.78974 9.04771C1.80762 9.14838 1.83437 9.24734 1.87039 9.34304C1.90407 9.41717 1.94322 9.48921 1.98877 9.55654C1.99809 9.57089 2.00782 9.58461 2.01751 9.59827L2.02101 9.60321C2.02827 9.61139 2.03547 9.61957 2.04265 9.62773C2.06737 9.6558 2.09189 9.68366 2.11798 9.71081C2.13834 9.73185 2.15961 9.75199 2.18115 9.77147C2.20725 9.78572 2.2327 9.80271 2.2575 9.8218C2.26346 9.82572 2.26926 9.82981 2.27506 9.8339C2.28182 9.83867 2.28858 9.84344 2.29561 9.84795L2.29567 9.84799C2.32175 9.86497 2.34783 9.88195 2.37392 9.89763C2.4196 9.92443 2.46593 9.94823 2.5137 9.97019C2.60702 10.005 2.7036 10.0312 2.80201 10.0488C2.91033 10.0595 3.01866 10.06 3.1262 10.0494C3.17593 10.0408 3.22513 10.0298 3.27355 10.0166C3.31741 10.0043 3.36061 9.99019 3.40342 9.97411C3.45118 9.95202 3.49856 9.9277 3.54333 9.90155C3.57204 9.88456 3.59945 9.86756 3.62686 9.84926C3.62985 9.84725 3.63277 9.84534 3.63561 9.84346C3.64393 9.83799 3.65171 9.83287 3.65949 9.82703C3.66351 9.82458 3.67382 9.81688 3.68187 9.81086L3.6835 9.80964C3.68607 9.80744 3.68866 9.80524 3.69125 9.80304C3.69774 9.79753 3.70423 9.79202 3.71039 9.7865C3.73257 9.76689 3.75346 9.74728 3.77434 9.72636C3.82132 9.68061 3.86439 9.63223 3.90485 9.58125C3.93787 9.54006 3.98486 9.51196 4.03589 9.49365C4.08653 9.47378 4.14187 9.46437 4.19198 9.46227C4.27943 9.45835 4.41255 9.50673 4.46867 9.57732C4.50913 9.62831 4.5522 9.67668 4.59919 9.72244C4.62268 9.74597 4.64617 9.7682 4.67097 9.78912C4.67619 9.79304 4.68102 9.79722 4.68598 9.80154C4.68866 9.80349 4.69252 9.80635 4.69664 9.80941C4.70357 9.81454 4.71126 9.82024 4.71535 9.82311C4.72187 9.82769 4.72872 9.83226 4.73558 9.83684C4.74243 9.84141 4.74928 9.84599 4.75581 9.85056C4.7793 9.86756 4.8054 9.88325 4.8302 9.89763C4.8764 9.92495 4.92339 9.94875 4.97129 9.97071C5.06382 10.0055 5.15949 10.0315 5.25724 10.0488C5.36583 10.0592 5.47429 10.0592 5.58209 10.0488C5.67998 10.0315 5.77473 10.0057 5.8674 9.9711C5.91308 9.94979 5.95811 9.92652 6.00091 9.90155C6.02963 9.88456 6.05704 9.86756 6.08444 9.84926C6.08744 9.84726 6.09035 9.84534 6.0932 9.84346C6.10152 9.83799 6.10929 9.83287 6.11707 9.82703C6.1211 9.82458 6.13142 9.81687 6.13947 9.81085L6.14109 9.80964C6.15009 9.80193 6.15936 9.79422 6.16797 9.7865C6.19016 9.76689 6.21104 9.74728 6.23192 9.72636C6.27891 9.68061 6.32198 9.63223 6.36244 9.58125C6.39154 9.54503 6.43148 9.51875 6.47546 9.50058C6.53041 9.476 6.59254 9.4645 6.64827 9.46227C6.73571 9.45835 6.86883 9.50673 6.92496 9.57732C6.96542 9.62831 7.00849 9.67668 7.05547 9.72244C7.07896 9.74597 7.10246 9.7682 7.12725 9.78912C7.13247 9.79304 7.1373 9.79722 7.14226 9.80154C7.14494 9.80349 7.1488 9.80635 7.15293 9.80941C7.15986 9.81455 7.16754 9.82024 7.17163 9.82311C7.17815 9.82769 7.18501 9.83226 7.19186 9.83684C7.19871 9.84141 7.20556 9.84599 7.21209 9.85056C7.23558 9.86756 7.26168 9.88325 7.28648 9.89763C7.33203 9.92456 7.37836 9.94809 7.42548 9.9698C7.51958 10.0052 7.61616 10.0314 7.71483 10.0489C7.82342 10.0594 7.93188 10.0594 8.03968 10.0489C8.13757 10.0316 8.23232 10.0059 8.32499 9.97123C8.37067 9.94992 8.41569 9.92665 8.4585 9.90168C8.48721 9.88469 8.51462 9.86769 8.54203 9.84939C8.54504 9.84738 8.54796 9.84546 8.55082 9.84358C8.55912 9.83811 8.56689 9.833 8.57466 9.82716C8.57897 9.82455 8.59045 9.81592 8.59867 9.80977C8.60053 9.80819 8.60239 9.8066 8.60426 9.80502C8.61146 9.79889 8.61872 9.79276 8.62556 9.78663C8.64775 9.76702 8.66863 9.74741 8.68951 9.72649C8.7365 9.68074 8.77957 9.63236 8.82003 9.58138C8.84913 9.54516 8.88907 9.51888 8.93305 9.50071C8.988 9.47613 9.05012 9.46463 9.10585 9.46241C9.1933 9.45848 9.32642 9.50686 9.38254 9.57745C9.423 9.62844 9.46607 9.67681 9.51306 9.72257C9.53655 9.74611 9.56004 9.76833 9.58484 9.78925C9.59006 9.79317 9.59489 9.79735 9.59985 9.80167C9.60252 9.80361 9.60636 9.80646 9.61047 9.8095C9.61741 9.81465 9.62512 9.82036 9.62922 9.82324C9.63574 9.82782 9.64259 9.83239 9.64945 9.83697C9.6563 9.84154 9.66315 9.84612 9.66968 9.85069C9.69317 9.86769 9.71927 9.88338 9.74407 9.89776C9.78962 9.92469 9.83595 9.94822 9.88307 9.96993C9.97795 10.0057 10.0756 10.032 10.1753 10.0495C10.2826 10.0601 10.3905 10.0596 10.4979 10.049C10.5952 10.0316 10.6902 10.0057 10.7824 9.97136C10.8591 9.9358 10.9331 9.89488 11.0034 9.84677C11.01 9.84212 11.0165 9.83717 11.023 9.83221C11.0251 9.83061 11.0271 9.82901 11.0292 9.82742C11.0368 9.82246 11.0462 9.81592 11.053 9.81017L11.056 9.80768C11.0568 9.80711 11.0577 9.80652 11.0585 9.80594C11.0592 9.80545 11.0599 9.80495 11.0607 9.80446L11.0565 9.80716C11.0931 9.77787 11.1271 9.74506 11.16 9.71211C11.1941 9.67807 11.2244 9.64279 11.2547 9.60748L11.257 9.60478C11.2591 9.60174 11.2613 9.5987 11.2634 9.59564C11.2721 9.58332 11.2809 9.57083 11.2892 9.55784C11.3354 9.4879 11.3755 9.41377 11.4109 9.3369Z"/>
</mask>
<path fill-rule="evenodd" clip-rule="evenodd" d="M8.03833 3.0288C8.03181 3.64981 7.61285 4.21328 7.00988 4.37801C6.49435 4.5179 5.90573 4.34402 5.5703 3.92174C5.27012 3.54391 5.15527 3.04711 5.3406 2.59214C5.49591 2.20908 5.73214 1.8757 5.98403 1.55017C6.10541 1.39328 6.23201 1.23901 6.36514 1.09128C6.50218 0.939625 6.78017 0.939625 6.91852 1.09128C6.96159 1.13965 7.00466 1.18933 7.04642 1.23901C7.26307 1.49395 7.47059 1.76065 7.65331 2.04174C7.8329 2.31916 8.01601 2.643 8.03533 2.98148C8.03729 2.99717 8.03833 3.01299 8.03833 3.0288ZM6.17028 3.42808C6.17276 3.43095 6.17445 3.43278 6.17458 3.43278C6.17406 3.43278 6.17237 3.43095 6.17028 3.42808ZM7.03911 3.49998C7.04198 3.4975 7.04381 3.4958 7.04381 3.49567C7.04381 3.49619 7.04198 3.49789 7.03911 3.49998ZM6.07644 2.84643C6.05686 2.89794 6.04015 2.95036 6.02854 3.00449L6.02867 3.00423C6.02697 3.04083 6.02828 3.07744 6.03141 3.11365C6.0412 3.16373 6.05438 3.21275 6.07109 3.2606C6.09288 3.30571 6.11664 3.34924 6.14483 3.39095C6.14572 3.39173 6.14903 3.39666 6.15316 3.40284C6.15385 3.40386 6.15455 3.40491 6.15527 3.40598C6.17197 3.4252 6.18972 3.44507 6.20747 3.46285C6.22459 3.48 6.24246 3.49565 6.2605 3.51145C6.2624 3.51312 6.2643 3.51478 6.26621 3.51645C6.27051 3.51959 6.27495 3.52273 6.27926 3.52561C6.31946 3.5528 6.36122 3.57672 6.40455 3.59777C6.45336 3.61529 6.50335 3.62889 6.55451 3.63896C6.61181 3.64366 6.6695 3.64366 6.72692 3.63896C6.77652 3.62928 6.82481 3.61621 6.87218 3.5996C6.91721 3.57777 6.96067 3.55398 7.00231 3.52574C7.00309 3.52484 7.00802 3.52152 7.0142 3.51737C7.01521 3.51669 7.01625 3.51599 7.01732 3.51528C7.0365 3.49854 7.05634 3.48076 7.07409 3.46298C7.09121 3.44584 7.10683 3.42795 7.12259 3.40988C7.12426 3.40798 7.12593 3.40606 7.1276 3.40415C7.13073 3.39984 7.13387 3.39539 7.13674 3.39108C7.16388 3.35081 7.18777 3.30897 7.20878 3.26557C7.2264 3.21602 7.24024 3.16529 7.25029 3.11326C7.25276 3.08515 7.2542 3.05731 7.2542 3.02894C7.2542 3.02018 7.25381 3.01181 7.25329 3.0037C7.24167 2.95075 7.22497 2.89872 7.20578 2.848C7.15018 2.72471 7.08349 2.60665 7.01131 2.49291C6.93953 2.37786 6.86122 2.26543 6.7803 2.15561C6.75942 2.12554 6.73723 2.09678 6.71504 2.06802C6.76334 2.12946 6.72418 2.07848 6.71243 2.0641C6.68946 2.03429 6.66584 2.00448 6.64209 1.97506C6.63446 1.98477 6.62669 1.99455 6.61894 2.00432C6.60998 2.01561 6.60104 2.02687 6.59236 2.03795C6.58845 2.04318 6.5842 2.04841 6.57996 2.05364C6.57572 2.05887 6.57148 2.0641 6.56756 2.06932L6.56378 2.07351C6.55855 2.08039 6.55332 2.08725 6.54808 2.09412C6.52244 2.12775 6.49678 2.1614 6.47229 2.19614C6.32363 2.40087 6.18098 2.61502 6.07644 2.84643ZM12.28 8.88755V8.88768V8.88834C12.2801 8.89592 12.2798 8.9035 12.2794 8.91096C12.2728 9.25205 12.1806 9.59327 12.0059 9.88717C11.9205 10.0299 11.8185 10.1591 11.7031 10.273V12.6877C11.7031 12.8864 11.6548 13.0891 11.5399 13.2525C11.3507 13.5205 11.061 13.6839 10.7308 13.6878C10.5812 13.6896 10.4321 13.689 10.2829 13.6884C10.2082 13.6881 10.1335 13.6878 10.0586 13.6878H2.57491C2.24862 13.6826 1.96541 13.5257 1.77486 13.2655C1.60125 13.0281 1.60126 12.7532 1.60127 12.4755L1.60127 12.4694V10.2953C1.50378 10.2 1.41555 10.0952 1.33763 9.98405C1.14056 9.70427 1.03876 9.36958 1.00743 9.03097C0.952616 8.44135 1.20451 7.81904 1.64826 7.42944C1.87927 7.2268 2.14813 7.07253 2.4457 6.99278C2.65061 6.93787 2.86074 6.9248 3.07217 6.9248C3.84521 6.9248 4.6189 6.92545 5.39272 6.92624V5.63442C5.39272 5.6091 5.39257 5.58377 5.39243 5.5585C5.39214 5.50809 5.39185 5.45788 5.39272 5.40825C5.39924 5.02911 5.6916 4.73234 6.07139 4.72188C6.24454 4.71752 6.41769 4.71897 6.59084 4.72042C6.67741 4.72115 6.76399 4.72188 6.85056 4.72188C6.88967 4.72188 6.92892 4.72173 6.96822 4.72159C7.04696 4.7213 7.1259 4.72101 7.20426 4.72188C7.57179 4.72436 7.86127 4.99433 7.89546 5.35373C7.89742 5.36916 7.89859 5.38471 7.89859 5.4004V5.40171C7.89886 5.40877 7.89886 5.41583 7.89859 5.42276V6.92833C8.08571 6.92846 8.27283 6.92858 8.45995 6.9287C9.02198 6.92907 9.58402 6.92944 10.1461 6.93003C10.3379 6.93003 10.5245 6.93526 10.7138 6.97056C10.9827 7.02024 11.2489 7.1379 11.4669 7.30132C11.7083 7.48305 11.9158 7.70399 12.0542 7.97462C12.1985 8.25479 12.2766 8.56163 12.2797 8.87644C12.28 8.87997 12.28 8.88363 12.28 8.88716V8.88755ZM11.4862 8.7236C11.4873 8.73119 11.4883 8.73877 11.4893 8.74636C11.4864 8.72073 11.4832 8.69498 11.4786 8.66883C11.4814 8.68727 11.4838 8.70545 11.4862 8.7236ZM11.2685 8.19164L11.2545 8.17295C11.261 8.18014 11.2694 8.18994 11.2685 8.19164ZM7.11551 5.41531V5.40171C7.11551 5.38864 7.1142 5.37687 7.10898 5.36772C7.11133 5.3838 7.11342 5.39962 7.11551 5.41531ZM7.08418 5.51022H6.45119C6.40918 5.51022 6.36655 5.50927 6.32369 5.50831C6.274 5.5072 6.22399 5.50608 6.17424 5.50643C6.17441 5.51985 6.17464 5.53327 6.17488 5.54667C6.17534 5.57337 6.1758 5.60003 6.1758 5.62658V6.92702L6.55168 6.92741L7.11551 6.9278V5.50996C7.10507 5.51022 7.09463 5.51022 7.08418 5.51022ZM2.25907 7.9367L2.24171 7.94965C2.24836 7.94337 2.25659 7.93579 2.25907 7.9367ZM2.46776 12.8775L2.47011 12.8796L2.47115 12.88L2.46776 12.8775ZM2.4752 12.883L2.47272 12.882V12.8821C2.47702 12.8858 2.48029 12.8882 2.48094 12.8878C2.48107 12.8876 2.47885 12.8858 2.4752 12.883ZM10.8889 12.8173L10.891 12.8149L10.8914 12.8139L10.8889 12.8173ZM10.8944 12.8098L10.8934 12.8123H10.8935C10.8972 12.808 10.8996 12.8047 10.8993 12.804C10.899 12.8039 10.8972 12.8061 10.8944 12.8098ZM10.8991 12.7908C10.9049 12.7727 10.9097 12.7541 10.9139 12.7354V12.735C10.9181 12.6661 10.9166 12.5962 10.9151 12.5269C10.9144 12.4918 10.9136 12.4567 10.9136 12.422V10.7521C10.8742 10.764 10.8345 10.7746 10.7944 10.784C10.6732 10.8149 10.5484 10.8349 10.4216 10.8427C9.95067 10.8724 9.46725 10.7115 9.09776 10.414C9.0124 10.4827 8.92131 10.5439 8.82668 10.5956C8.72084 10.6538 8.61081 10.7014 8.49792 10.7387C8.16145 10.8512 7.79914 10.8711 7.44714 10.7983C7.1574 10.7393 6.87654 10.603 6.64278 10.4142C6.55743 10.4827 6.46633 10.5439 6.37171 10.5956C6.26586 10.6538 6.15584 10.7014 6.04294 10.7387C5.70647 10.8512 5.34417 10.8711 4.99217 10.7983C4.70256 10.7393 4.42156 10.6028 4.18781 10.414C4.07948 10.5006 3.9615 10.5748 3.83698 10.636C3.62425 10.7419 3.39284 10.8046 3.15452 10.8336C2.8935 10.8647 2.63195 10.8332 2.38318 10.7558V12.4822C2.38318 12.5093 2.38271 12.5369 2.38223 12.5646C2.38123 12.6229 2.38021 12.682 2.38358 12.7399C2.38671 12.7535 2.39023 12.7669 2.39428 12.7804C2.40057 12.7922 2.40711 12.8037 2.41373 12.8154C2.41672 12.8207 2.41972 12.826 2.42273 12.8314C2.42769 12.8373 2.43278 12.8431 2.438 12.8484C2.43944 12.8499 2.44583 12.8563 2.45327 12.8635L2.45627 12.8654C2.46867 12.8733 2.48133 12.8807 2.49425 12.8876C2.51083 12.8927 2.52766 12.8973 2.54476 12.9012C2.55599 12.9016 2.56747 12.902 2.57883 12.902C2.79461 12.9028 3.01039 12.9025 3.22618 12.9023C3.33407 12.9021 3.44196 12.902 3.54985 12.902H10.5192C10.5444 12.902 10.5699 12.9025 10.5955 12.9029C10.6471 12.9039 10.6992 12.9049 10.7505 12.902C10.7644 12.8988 10.7784 12.8952 10.7921 12.891C10.8039 12.8847 10.8154 12.8781 10.8271 12.8715C10.8324 12.8685 10.8376 12.8655 10.843 12.8625C10.8489 12.8575 10.8547 12.8524 10.86 12.8472C10.8615 12.8458 10.8679 12.8393 10.8751 12.8319L10.8769 12.8289C10.8849 12.8165 10.8922 12.8038 10.8991 12.7908ZM3.66732 9.82324L3.64891 9.83775H3.64904L3.65218 9.83566C3.65935 9.83004 3.66836 9.82272 3.67306 9.81866L3.66732 9.82324ZM6.11515 9.83086L6.11877 9.82834C6.12347 9.82468 6.12777 9.82115 6.13052 9.81866L6.12477 9.82324L6.11515 9.83086ZM8.57274 9.83086L8.57636 9.82834C8.57832 9.82681 8.58021 9.8253 8.58195 9.82388C8.58438 9.82191 8.58651 9.82011 8.5881 9.81866L8.58236 9.82324L8.57274 9.83086ZM11.4109 9.3369C11.4451 9.2446 11.4708 9.14981 11.4881 9.05228V9.05215C11.4934 8.9975 11.4967 8.94325 11.4967 8.88834C11.4967 8.84467 11.4947 8.8014 11.4904 8.75773C11.4733 8.64844 11.4457 8.54189 11.4067 8.43795C11.3713 8.36095 11.3303 8.28616 11.2827 8.21504C11.2755 8.20444 11.2679 8.19389 11.2604 8.18332C11.2562 8.17747 11.252 8.17162 11.2479 8.16575L11.2475 8.16536C11.2161 8.12745 11.1835 8.09215 11.1496 8.05816C11.1147 8.02312 11.0784 7.99057 11.0411 7.95919C11.0225 7.94533 11.0038 7.93239 10.9851 7.91958C10.918 7.87513 10.8472 7.83643 10.7736 7.8027C10.6814 7.76844 10.5871 7.74256 10.49 7.72504C10.3742 7.7141 10.2573 7.71472 10.1414 7.71534C10.1146 7.71548 10.0879 7.71563 10.0612 7.71563H9.38254C8.08523 7.71563 6.78922 7.71432 5.49321 7.71301C5.19695 7.71301 4.90035 7.71269 4.60376 7.71236C4.30716 7.71203 4.01057 7.7117 3.7143 7.7117H3.16092C3.13988 7.7117 3.11881 7.71162 3.09772 7.71153C2.99493 7.71111 2.89173 7.71068 2.78961 7.72033C2.69185 7.73785 2.59684 7.76387 2.50404 7.79891C2.42704 7.83407 2.35291 7.87486 2.28256 7.92219C2.27178 7.92968 2.26099 7.93741 2.25021 7.94513C2.24481 7.949 2.23941 7.95287 2.23401 7.95671L2.23296 7.95749C2.19642 7.98887 2.16092 8.02064 2.12594 8.05554C2.09096 8.09045 2.05846 8.12679 2.02714 8.16419C2.01331 8.18288 2.00039 8.20158 1.9876 8.22027C1.94178 8.28812 1.90237 8.35951 1.86857 8.4339C1.83333 8.52737 1.80722 8.62307 1.78974 8.72152C1.77916 8.83029 1.77942 8.93893 1.78974 9.04771C1.80762 9.14838 1.83437 9.24734 1.87039 9.34304C1.90407 9.41717 1.94322 9.48921 1.98877 9.55654C1.99809 9.57089 2.00782 9.58461 2.01751 9.59827L2.02101 9.60321C2.02827 9.61139 2.03547 9.61957 2.04265 9.62773C2.06737 9.6558 2.09189 9.68366 2.11798 9.71081C2.13834 9.73185 2.15961 9.75199 2.18115 9.77147C2.20725 9.78572 2.2327 9.80271 2.2575 9.8218C2.26346 9.82572 2.26926 9.82981 2.27506 9.8339C2.28182 9.83867 2.28858 9.84344 2.29561 9.84795L2.29567 9.84799C2.32175 9.86497 2.34783 9.88195 2.37392 9.89763C2.4196 9.92443 2.46593 9.94823 2.5137 9.97019C2.60702 10.005 2.7036 10.0312 2.80201 10.0488C2.91033 10.0595 3.01866 10.06 3.1262 10.0494C3.17593 10.0408 3.22513 10.0298 3.27355 10.0166C3.31741 10.0043 3.36061 9.99019 3.40342 9.97411C3.45118 9.95202 3.49856 9.9277 3.54333 9.90155C3.57204 9.88456 3.59945 9.86756 3.62686 9.84926C3.62985 9.84725 3.63277 9.84534 3.63561 9.84346C3.64393 9.83799 3.65171 9.83287 3.65949 9.82703C3.66351 9.82458 3.67382 9.81688 3.68187 9.81086L3.6835 9.80964C3.68607 9.80744 3.68866 9.80524 3.69125 9.80304C3.69774 9.79753 3.70423 9.79202 3.71039 9.7865C3.73257 9.76689 3.75346 9.74728 3.77434 9.72636C3.82132 9.68061 3.86439 9.63223 3.90485 9.58125C3.93787 9.54006 3.98486 9.51196 4.03589 9.49365C4.08653 9.47378 4.14187 9.46437 4.19198 9.46227C4.27943 9.45835 4.41255 9.50673 4.46867 9.57732C4.50913 9.62831 4.5522 9.67668 4.59919 9.72244C4.62268 9.74597 4.64617 9.7682 4.67097 9.78912C4.67619 9.79304 4.68102 9.79722 4.68598 9.80154C4.68866 9.80349 4.69252 9.80635 4.69664 9.80941C4.70357 9.81454 4.71126 9.82024 4.71535 9.82311C4.72187 9.82769 4.72872 9.83226 4.73558 9.83684C4.74243 9.84141 4.74928 9.84599 4.75581 9.85056C4.7793 9.86756 4.8054 9.88325 4.8302 9.89763C4.8764 9.92495 4.92339 9.94875 4.97129 9.97071C5.06382 10.0055 5.15949 10.0315 5.25724 10.0488C5.36583 10.0592 5.47429 10.0592 5.58209 10.0488C5.67998 10.0315 5.77473 10.0057 5.8674 9.9711C5.91308 9.94979 5.95811 9.92652 6.00091 9.90155C6.02963 9.88456 6.05704 9.86756 6.08444 9.84926C6.08744 9.84726 6.09035 9.84534 6.0932 9.84346C6.10152 9.83799 6.10929 9.83287 6.11707 9.82703C6.1211 9.82458 6.13142 9.81687 6.13947 9.81085L6.14109 9.80964C6.15009 9.80193 6.15936 9.79422 6.16797 9.7865C6.19016 9.76689 6.21104 9.74728 6.23192 9.72636C6.27891 9.68061 6.32198 9.63223 6.36244 9.58125C6.39154 9.54503 6.43148 9.51875 6.47546 9.50058C6.53041 9.476 6.59254 9.4645 6.64827 9.46227C6.73571 9.45835 6.86883 9.50673 6.92496 9.57732C6.96542 9.62831 7.00849 9.67668 7.05547 9.72244C7.07896 9.74597 7.10246 9.7682 7.12725 9.78912C7.13247 9.79304 7.1373 9.79722 7.14226 9.80154C7.14494 9.80349 7.1488 9.80635 7.15293 9.80941C7.15986 9.81455 7.16754 9.82024 7.17163 9.82311C7.17815 9.82769 7.18501 9.83226 7.19186 9.83684C7.19871 9.84141 7.20556 9.84599 7.21209 9.85056C7.23558 9.86756 7.26168 9.88325 7.28648 9.89763C7.33203 9.92456 7.37836 9.94809 7.42548 9.9698C7.51958 10.0052 7.61616 10.0314 7.71483 10.0489C7.82342 10.0594 7.93188 10.0594 8.03968 10.0489C8.13757 10.0316 8.23232 10.0059 8.32499 9.97123C8.37067 9.94992 8.41569 9.92665 8.4585 9.90168C8.48721 9.88469 8.51462 9.86769 8.54203 9.84939C8.54504 9.84738 8.54796 9.84546 8.55082 9.84358C8.55912 9.83811 8.56689 9.833 8.57466 9.82716C8.57897 9.82455 8.59045 9.81592 8.59867 9.80977C8.60053 9.80819 8.60239 9.8066 8.60426 9.80502C8.61146 9.79889 8.61872 9.79276 8.62556 9.78663C8.64775 9.76702 8.66863 9.74741 8.68951 9.72649C8.7365 9.68074 8.77957 9.63236 8.82003 9.58138C8.84913 9.54516 8.88907 9.51888 8.93305 9.50071C8.988 9.47613 9.05012 9.46463 9.10585 9.46241C9.1933 9.45848 9.32642 9.50686 9.38254 9.57745C9.423 9.62844 9.46607 9.67681 9.51306 9.72257C9.53655 9.74611 9.56004 9.76833 9.58484 9.78925C9.59006 9.79317 9.59489 9.79735 9.59985 9.80167C9.60252 9.80361 9.60636 9.80646 9.61047 9.8095C9.61741 9.81465 9.62512 9.82036 9.62922 9.82324C9.63574 9.82782 9.64259 9.83239 9.64945 9.83697C9.6563 9.84154 9.66315 9.84612 9.66968 9.85069C9.69317 9.86769 9.71927 9.88338 9.74407 9.89776C9.78962 9.92469 9.83595 9.94822 9.88307 9.96993C9.97795 10.0057 10.0756 10.032 10.1753 10.0495C10.2826 10.0601 10.3905 10.0596 10.4979 10.049C10.5952 10.0316 10.6902 10.0057 10.7824 9.97136C10.8591 9.9358 10.9331 9.89488 11.0034 9.84677C11.01 9.84212 11.0165 9.83717 11.023 9.83221C11.0251 9.83061 11.0271 9.82901 11.0292 9.82742C11.0368 9.82246 11.0462 9.81592 11.053 9.81017L11.056 9.80768C11.0568 9.80711 11.0577 9.80652 11.0585 9.80594C11.0592 9.80545 11.0599 9.80495 11.0607 9.80446L11.0565 9.80716C11.0931 9.77787 11.1271 9.74506 11.16 9.71211C11.1941 9.67807 11.2244 9.64279 11.2547 9.60748L11.257 9.60478C11.2591 9.60174 11.2613 9.5987 11.2634 9.59564C11.2721 9.58332 11.2809 9.57083 11.2892 9.55784C11.3354 9.4879 11.3755 9.41377 11.4109 9.3369Z" fill="#159C2A"/>
<path d="M7.00988 4.37801L7.06225 4.57103L7.06258 4.57094L7.00988 4.37801ZM8.03833 3.0288L8.23833 3.03091V3.0288H8.03833ZM5.5703 3.92174L5.72691 3.79734L5.7269 3.79733L5.5703 3.92174ZM5.3406 2.59214L5.52582 2.66759L5.52594 2.66729L5.3406 2.59214ZM5.98403 1.55017L6.14221 1.67256L6.14222 1.67255L5.98403 1.55017ZM6.36514 1.09128L6.21674 0.95719L6.21656 0.957396L6.36514 1.09128ZM6.91852 1.09128L7.0679 0.958274L7.06627 0.956492L6.91852 1.09128ZM7.04642 1.23901L6.89333 1.36771L6.89402 1.36853L7.04642 1.23901ZM7.65331 2.04174L7.82121 1.93306L7.821 1.93274L7.65331 2.04174ZM8.03533 2.98148L7.8352 2.9929L7.83687 3.00625L8.03533 2.98148ZM6.17028 3.42808L6.32176 3.29749L6.00843 3.54557L6.17028 3.42808ZM7.03911 3.49998L6.90826 3.34872L7.15688 3.66163L7.03911 3.49998ZM6.02854 3.00449L5.83299 2.96252L6.20742 3.09393L6.02854 3.00449ZM6.07644 2.84643L5.89383 2.76393L5.88948 2.77537L6.07644 2.84643ZM6.02867 3.00423L6.22846 3.01349L5.84978 2.91478L6.02867 3.00423ZM6.03141 3.11365L5.83215 3.13089L5.83308 3.14154L5.83513 3.15202L6.03141 3.11365ZM6.07109 3.2606L5.88226 3.32653L5.88603 3.33732L5.89101 3.34762L6.07109 3.2606ZM6.14483 3.39095L5.97913 3.50295L5.9936 3.52435L6.01303 3.54138L6.14483 3.39095ZM6.15316 3.40284L5.98698 3.51413L5.987 3.51414L6.15316 3.40284ZM6.15527 3.40598L5.98921 3.51745L5.99615 3.52779L6.00432 3.53719L6.15527 3.40598ZM6.20747 3.46285L6.34902 3.32155L6.34902 3.32155L6.20747 3.46285ZM6.2605 3.51145L6.39228 3.36101L6.39228 3.36101L6.2605 3.51145ZM6.26621 3.51645L6.1343 3.66679L6.14111 3.67277L6.14844 3.67811L6.26621 3.51645ZM6.27926 3.52561L6.39132 3.35995L6.39032 3.35928L6.27926 3.52561ZM6.40455 3.59777L6.31716 3.77767L6.32685 3.78238L6.33699 3.78602L6.40455 3.59777ZM6.55451 3.63896L6.5159 3.83519L6.52693 3.83736L6.53814 3.83828L6.55451 3.63896ZM6.72692 3.63896L6.74326 3.83829L6.75432 3.83738L6.76521 3.83526L6.72692 3.63896ZM6.87218 3.5996L6.93833 3.78835L6.94914 3.78456L6.95944 3.77956L6.87218 3.5996ZM7.00231 3.52574L7.11457 3.69125L7.13595 3.67676L7.15293 3.65731L7.00231 3.52574ZM7.0142 3.51737L7.12575 3.68338L7.12575 3.68338L7.0142 3.51737ZM7.01732 3.51528L7.12905 3.68115L7.13939 3.67419L7.14878 3.666L7.01732 3.51528ZM7.07409 3.46298L6.93255 3.32168L6.93255 3.32168L7.07409 3.46298ZM7.12259 3.40988L6.97193 3.27835L6.97193 3.27835L7.12259 3.40988ZM7.1276 3.40415L7.27817 3.5358L7.28413 3.52898L7.28944 3.52165L7.1276 3.40415ZM7.13674 3.39108L6.9709 3.27928L6.97025 3.28026L7.13674 3.39108ZM7.20878 3.26557L7.3888 3.35272L7.39356 3.34288L7.39722 3.33258L7.20878 3.26557ZM7.25029 3.11326L7.44666 3.15119L7.44861 3.14109L7.44951 3.13084L7.25029 3.11326ZM7.25329 3.0037L7.45287 2.99085L7.4519 2.97569L7.44864 2.96085L7.25329 3.0037ZM7.20578 2.848L7.39321 2.77711L7.3881 2.76577L7.20578 2.848ZM7.01131 2.49291L6.84163 2.59879L6.84244 2.60007L7.01131 2.49291ZM6.7803 2.15561L6.61596 2.26974L6.61929 2.27425L6.7803 2.15561ZM6.71504 2.06802L6.87229 1.94444L6.55669 2.19018L6.71504 2.06802ZM6.71243 2.0641L6.55395 2.18622L6.55754 2.19061L6.71243 2.0641ZM6.64209 1.97506L6.79769 1.84941L6.63999 1.65413L6.48486 1.85146L6.64209 1.97506ZM6.61894 2.00432L6.46229 1.87998L6.46229 1.87998L6.61894 2.00432ZM6.59236 2.03795L6.43489 1.91457L6.43226 1.91808L6.59236 2.03795ZM6.57996 2.05364L6.73529 2.17963L6.73529 2.17963L6.57996 2.05364ZM6.56756 2.06932L6.71588 2.2035L6.7221 2.19662L6.72766 2.1892L6.56756 2.06932ZM6.56378 2.07351L6.41546 1.93934L6.40972 1.94568L6.40455 1.95249L6.56378 2.07351ZM6.54808 2.09412L6.70712 2.21539L6.70712 2.21539L6.54808 2.09412ZM6.47229 2.19614L6.63414 2.31366L6.63575 2.31138L6.47229 2.19614ZM12.28 8.88834H12.0799L12.08 8.89178L12.28 8.88834ZM12.2794 8.91096L12.0796 8.90045L12.0795 8.90705L12.2794 8.91096ZM12.0059 9.88717L12.1775 9.9898L12.1778 9.98939L12.0059 9.88717ZM11.7031 10.273L11.5626 10.1306L11.5031 10.1894V10.273H11.7031ZM11.5399 13.2525L11.7033 13.3678L11.7036 13.3675L11.5399 13.2525ZM10.7308 13.6878L10.7331 13.8878L10.7331 13.8878L10.7308 13.6878ZM10.2829 13.6884L10.2821 13.8884H10.2821L10.2829 13.6884ZM2.57491 13.6878L2.5717 13.8878H2.57491V13.6878ZM1.77486 13.2655L1.6134 13.3836L1.61351 13.3837L1.77486 13.2655ZM1.60127 12.4755L1.80127 12.4755V12.4755L1.60127 12.4755ZM1.60127 12.4694L1.80127 12.4694V12.4694H1.60127ZM1.60127 10.2953H1.80127V10.2112L1.74108 10.1523L1.60127 10.2953ZM1.33763 9.98405L1.50139 9.86923L1.50114 9.86887L1.33763 9.98405ZM1.00743 9.03097L1.20658 9.01255L1.20657 9.01246L1.00743 9.03097ZM1.64826 7.42944L1.51637 7.27909L1.5163 7.27915L1.64826 7.42944ZM2.4457 6.99278L2.39393 6.7996L2.39393 6.7996L2.4457 6.99278ZM5.39272 6.92624L5.39251 7.12624L5.59272 7.12644V6.92624H5.39272ZM5.39243 5.5585L5.19243 5.55965V5.55965L5.39243 5.5585ZM5.39272 5.40825L5.59269 5.41175L5.59269 5.41169L5.39272 5.40825ZM6.07139 4.72188L6.06636 4.52194L6.06589 4.52195L6.07139 4.72188ZM6.59084 4.72042L6.59252 4.52043L6.59084 4.72042ZM6.96822 4.72159L6.96748 4.52159H6.96748L6.96822 4.72159ZM7.20426 4.72188L7.20203 4.92187L7.20291 4.92187L7.20426 4.72188ZM7.89546 5.35373L7.69626 5.37268L7.69705 5.3789L7.89546 5.35373ZM7.89859 5.40171H7.69846L7.69873 5.40911L7.89859 5.40171ZM7.89859 5.42276L7.69859 5.41522V5.42276H7.89859ZM7.89859 6.92833H7.69859V7.12819L7.89845 7.12833L7.89859 6.92833ZM8.45995 6.9287L8.45982 7.1287H8.45982L8.45995 6.9287ZM10.1461 6.93003L10.1458 7.13003H10.1461V6.93003ZM10.7138 6.97056L10.6771 7.16717L10.6775 7.16723L10.7138 6.97056ZM11.4669 7.30132L11.5871 7.14152L11.5868 7.1413L11.4669 7.30132ZM12.0542 7.97462L11.8761 8.06565L11.8764 8.06622L12.0542 7.97462ZM12.2797 8.87644L12.0793 8.87844L12.0802 8.89121L12.2797 8.87644ZM11.4893 8.74636L11.2912 8.77347L11.6881 8.72409L11.4893 8.74636ZM11.4862 8.7236L11.6845 8.69703L11.6845 8.69703L11.4862 8.7236ZM11.4786 8.66883L11.6756 8.63441L11.2808 8.69845L11.4786 8.66883ZM11.2685 8.19164L11.1082 8.31133L11.296 8.56275L11.4446 8.28634L11.2685 8.19164ZM11.2545 8.17295L11.4026 8.03855L11.0943 8.29263L11.2545 8.17295ZM7.11551 5.41531L6.91726 5.4417L7.31551 5.41531H7.11551ZM7.10898 5.36772L7.2827 5.26861L6.91108 5.39663L7.10898 5.36772ZM6.32369 5.50831L6.32816 5.30836H6.32816L6.32369 5.50831ZM6.17424 5.50643L6.17283 5.30644L5.97164 5.30785L5.97425 5.50903L6.17424 5.50643ZM6.17488 5.54667L5.97491 5.55014V5.55015L6.17488 5.54667ZM6.1758 6.92702H5.9758V7.12681L6.1756 7.12702L6.1758 6.92702ZM6.55168 6.92741L6.55148 7.12741H6.55155L6.55168 6.92741ZM7.11551 6.9278L7.11537 7.1278L7.31551 7.12794V6.9278H7.11551ZM7.11551 5.50996H7.31551V5.30489L7.1105 5.31002L7.11551 5.50996ZM2.25907 7.9367L2.37862 8.09704L2.67414 7.87668L2.3283 7.74907L2.25907 7.9367ZM2.24171 7.94965L2.10451 7.80413L2.36126 8.10998L2.24171 7.94965ZM2.47011 12.8796L2.33709 13.029L2.36492 13.0538L2.39982 13.0669L2.47011 12.8796ZM2.46776 12.8775L2.5859 12.7161L2.33474 13.0269L2.46776 12.8775ZM2.47115 12.88L2.40086 13.0672L2.58929 12.7186L2.47115 12.88ZM2.47272 12.882L2.55046 12.6977L2.27272 12.5805V12.882H2.47272ZM2.4752 12.883L2.59533 12.7231L2.57564 12.7083L2.55294 12.6987L2.4752 12.883ZM2.47272 12.8821H2.27272V12.9746L2.34318 13.0345L2.47272 12.8821ZM2.48094 12.8878L2.58411 13.0592L2.63389 13.0292L2.65986 12.9772L2.48094 12.8878ZM10.891 12.8149L11.0406 12.9476L11.0653 12.9199L11.0783 12.8851L10.891 12.8149ZM10.8889 12.8173L10.7274 12.6994L11.0385 12.95L10.8889 12.8173ZM10.8914 12.8139L11.0787 12.884L10.7299 12.696L10.8914 12.8139ZM10.8934 12.8123L10.709 12.7348L10.5925 13.0123H10.8934V12.8123ZM10.8944 12.8098L10.7343 12.6899L10.7196 12.7096L10.71 12.7324L10.8944 12.8098ZM10.8935 12.8123V13.0123H10.9862L11.0461 12.9415L10.8935 12.8123ZM10.8993 12.804L11.0709 12.7013L11.0411 12.6515L10.9892 12.6254L10.8993 12.804ZM10.9139 12.7354L11.1091 12.779L11.1139 12.7575V12.7354H10.9139ZM10.8991 12.7908L11.0755 12.8851L11.0842 12.8688L11.0898 12.8511L10.8991 12.7908ZM10.9139 12.735L10.7139 12.7227V12.735H10.9139ZM10.9151 12.5269L10.7152 12.5312V12.5312L10.9151 12.5269ZM10.9136 10.7521H11.1136V10.4828L10.8558 10.5607L10.9136 10.7521ZM10.7944 10.784L10.7487 10.5893L10.7451 10.5902L10.7944 10.784ZM10.4216 10.8427L10.4092 10.6431L10.409 10.6431L10.4216 10.8427ZM9.09776 10.414L9.22317 10.2582L9.09783 10.1573L8.97243 10.2582L9.09776 10.414ZM8.82668 10.5956L8.73068 10.4202L8.73035 10.4204L8.82668 10.5956ZM8.49792 10.7387L8.43523 10.5487L8.43446 10.549L8.49792 10.7387ZM7.44714 10.7983L7.48766 10.6024L7.48703 10.6023L7.44714 10.7983ZM6.64278 10.4142L6.76845 10.2586L6.64318 10.1574L6.5176 10.2582L6.64278 10.4142ZM6.37171 10.5956L6.27571 10.4202L6.27537 10.4204L6.37171 10.5956ZM6.04294 10.7387L5.98026 10.5487L5.97949 10.549L6.04294 10.7387ZM4.99217 10.7983L5.03269 10.6024L5.03207 10.6023L4.99217 10.7983ZM4.18781 10.414L4.31347 10.2584L4.18848 10.1575L4.06297 10.2578L4.18781 10.414ZM3.83698 10.636L3.74878 10.4565L3.74786 10.457L3.83698 10.636ZM3.15452 10.8336L3.1782 11.0322L3.1787 11.0321L3.15452 10.8336ZM2.38318 10.7558L2.4426 10.5648L2.18318 10.4841V10.7558H2.38318ZM2.38223 12.5646L2.5822 12.568V12.568L2.38223 12.5646ZM2.38358 12.7399L2.18391 12.7515L2.18489 12.7683L2.18868 12.7848L2.38358 12.7399ZM2.39428 12.7804L2.20274 12.8379L2.20846 12.857L2.21782 12.8745L2.39428 12.7804ZM2.41373 12.8154L2.2397 12.914L2.2397 12.914L2.41373 12.8154ZM2.42273 12.8314L2.2482 12.929L2.25752 12.9457L2.26982 12.9603L2.42273 12.8314ZM2.438 12.8484L2.58568 12.7132L2.57955 12.7071L2.438 12.8484ZM2.45327 12.8635L2.31427 13.0073L2.33022 13.0228L2.34916 13.0343L2.45327 12.8635ZM2.45627 12.8654L2.56449 12.6971L2.56038 12.6946L2.45627 12.8654ZM2.49425 12.8876L2.39973 13.0638L2.41687 13.073L2.43545 13.0787L2.49425 12.8876ZM2.54476 12.9012L2.50004 13.0961L2.51867 13.1004L2.53778 13.1011L2.54476 12.9012ZM2.57883 12.902L2.57963 12.702H2.57883V12.902ZM3.22618 12.9023L3.22591 12.7023H3.22591L3.22618 12.9023ZM10.5955 12.9029L10.5993 12.703H10.5993L10.5955 12.9029ZM10.7505 12.902L10.762 13.1016L10.7784 13.1007L10.7943 13.0971L10.7505 12.902ZM10.7921 12.891L10.8505 13.0823L10.8692 13.0766L10.8865 13.0673L10.7921 12.891ZM10.8271 12.8715L10.9259 13.0454L10.9259 13.0454L10.8271 12.8715ZM10.843 12.8625L10.9409 13.0369L10.9576 13.0275L10.9722 13.0152L10.843 12.8625ZM10.86 12.8472L10.7246 12.6997L10.7184 12.7059L10.86 12.8472ZM10.8751 12.8319L11.0191 12.9706L11.0345 12.9547L11.046 12.9358L10.8751 12.8319ZM10.8769 12.8289L10.7085 12.7209L10.706 12.725L10.8769 12.8289ZM3.64891 9.83775L3.52507 9.68071L3.07231 10.0378H3.64891V9.83775ZM3.66732 9.82324L3.79116 9.98028L3.79195 9.97966L3.66732 9.82324ZM3.64904 9.83775V10.0378H3.70968L3.7601 10.0041L3.64904 9.83775ZM3.65218 9.83566L3.76323 10.002L3.76953 9.99779L3.77549 9.99312L3.65218 9.83566ZM3.67306 9.81866L3.8037 9.9701L3.54842 9.66225L3.67306 9.81866ZM6.11877 9.82834L6.23315 9.99276L6.24169 9.9861L6.11877 9.82834ZM6.11515 9.83086L5.99102 9.67404L6.22936 9.99504L6.11515 9.83086ZM6.13052 9.81866L6.26483 9.96685L6.00588 9.66225L6.13052 9.81866ZM6.12477 9.82324L6.2489 9.98006L6.24941 9.97966L6.12477 9.82324ZM8.57636 9.82834L8.69073 9.99277L8.69928 9.9861L8.57636 9.82834ZM8.57274 9.83086L8.44861 9.67403L8.68694 9.99504L8.57274 9.83086ZM8.58195 9.82388L8.70822 9.97899L8.70824 9.97898L8.58195 9.82388ZM8.5881 9.81866L8.7224 9.96687L8.46347 9.66225L8.5881 9.81866ZM8.58236 9.82324L8.70648 9.98006L8.70699 9.97966L8.58236 9.82324ZM11.4881 9.05228L11.685 9.08733L11.6881 9.06994V9.05228H11.4881ZM11.4109 9.3369L11.5926 9.42049L11.5958 9.41355L11.5984 9.40638L11.4109 9.3369ZM11.4881 9.05215L11.289 9.03313L11.2881 9.04262V9.05215H11.4881ZM11.4904 8.75773L11.6897 8.73807L11.6879 8.72682L11.4904 8.75773ZM11.4067 8.43795L11.5939 8.36765L11.5914 8.36096L11.5884 8.35447L11.4067 8.43795ZM11.2827 8.21504L11.4489 8.10374L11.448 8.10242L11.2827 8.21504ZM11.2604 8.18332L11.423 8.06693L11.423 8.06692L11.2604 8.18332ZM11.2479 8.16575L11.4113 8.0505L11.4015 8.03657L11.3894 8.02451L11.2479 8.16575ZM11.2475 8.16536L11.0933 8.29275L11.0992 8.29997L11.1059 8.30661L11.2475 8.16536ZM11.1496 8.05816L11.0078 8.19919L11.008 8.19946L11.1496 8.05816ZM11.0411 7.95919L11.17 7.80581L11.1604 7.79862L11.0411 7.95919ZM10.9851 7.91958L11.0983 7.75467L11.0956 7.75286L10.9851 7.91958ZM10.7736 7.8027L10.8569 7.62088L10.8502 7.6178L10.8433 7.61523L10.7736 7.8027ZM10.49 7.72504L10.5255 7.52822L10.5172 7.52672L10.5088 7.52593L10.49 7.72504ZM10.1414 7.71534L10.1403 7.51534H10.1403L10.1414 7.71534ZM5.49321 7.71301L5.49341 7.51301H5.49321V7.71301ZM4.60376 7.71236L4.60398 7.51236L4.60376 7.71236ZM3.09772 7.71153L3.09855 7.51153H3.09855L3.09772 7.71153ZM2.78961 7.72033L2.77078 7.52122L2.76251 7.522L2.75433 7.52347L2.78961 7.72033ZM2.50404 7.79891L2.43323 7.61137L2.42095 7.61698L2.50404 7.79891ZM2.28256 7.92219L2.17091 7.75623L2.16845 7.75794L2.28256 7.92219ZM2.25021 7.94513L2.36667 8.10772L2.36667 8.10772L2.25021 7.94513ZM2.23401 7.95671L2.11809 7.79364L2.11388 7.7968L2.23401 7.95671ZM2.23296 7.95749L2.11258 7.79724L2.10268 7.80575L2.23296 7.95749ZM2.02714 8.16419L1.87355 8.03552L1.86637 8.04522L2.02714 8.16419ZM1.9876 8.22027L1.82253 8.10734L1.82184 8.10836L1.9876 8.22027ZM1.86857 8.4339L1.68609 8.35098L1.68142 8.36335L1.86857 8.4339ZM1.78974 8.72152L1.59282 8.68654L1.59144 8.69431L1.59067 8.70217L1.78974 8.72152ZM1.78974 9.04771L1.59063 9.06658L1.5914 9.07468L1.59282 9.08268L1.78974 9.04771ZM1.87039 9.34304L1.6828 9.41365L1.6883 9.42576L1.87039 9.34304ZM1.98877 9.55654L2.15654 9.4476L2.15442 9.44447L1.98877 9.55654ZM2.01751 9.59827L2.18067 9.48261L2.18065 9.48259L2.01751 9.59827ZM2.02101 9.60321L1.85784 9.71887L1.86415 9.72777L1.87138 9.73592L2.02101 9.60321ZM2.04265 9.62773L1.89254 9.75989L1.89254 9.75989L2.04265 9.62773ZM2.11798 9.71081L1.97378 9.84939L1.97423 9.84986L2.11798 9.71081ZM2.18115 9.77147L2.04698 9.91979L2.06454 9.93567L2.08532 9.94701L2.18115 9.77147ZM2.2575 9.8218L2.13551 9.98029L2.14139 9.98482L2.14759 9.9889L2.2575 9.8218ZM2.27506 9.8339L2.15976 9.99733L2.15977 9.99733L2.27506 9.8339ZM2.29561 9.84795L2.40509 9.68057L2.40355 9.67957L2.29561 9.84795ZM2.29567 9.84799L2.18619 10.0154L2.18654 10.0156L2.29567 9.84799ZM2.37392 9.89763L2.27089 10.0691L2.27271 10.0701L2.37392 9.89763ZM2.5137 9.97019L2.43015 10.1519L2.4369 10.155L2.44386 10.1576L2.5137 9.97019ZM2.80201 10.0488L2.76695 10.2457L2.77459 10.247L2.78231 10.2478L2.80201 10.0488ZM3.1262 10.0494L3.1458 10.2485L3.15314 10.2477L3.1604 10.2465L3.1262 10.0494ZM3.27355 10.0166L3.32617 10.2096L3.32752 10.2092L3.27355 10.0166ZM3.40342 9.97411L3.47375 10.1613L3.48067 10.1587L3.48738 10.1556L3.40342 9.97411ZM3.54333 9.90155L3.6442 10.0743L3.6452 10.0737L3.54333 9.90155ZM3.62686 9.84926L3.73793 10.0156L3.73794 10.0156L3.62686 9.84926ZM3.63561 9.84346L3.52568 9.67639L3.52566 9.6764L3.63561 9.84346ZM3.65949 9.82703L3.55568 9.65608L3.54725 9.6612L3.53936 9.66712L3.65949 9.82703ZM3.68187 9.81086L3.80162 9.97105L3.80163 9.97104L3.68187 9.81086ZM3.6835 9.80964L3.80353 9.97017L3.81359 9.96155L3.6835 9.80964ZM3.69125 9.80304L3.56176 9.65062L3.56175 9.65063L3.69125 9.80304ZM3.71039 9.7865L3.57793 9.63664L3.57697 9.63751L3.71039 9.7865ZM3.77434 9.72636L3.63479 9.58307L3.6328 9.58506L3.77434 9.72636ZM3.90485 9.58125L3.74881 9.45613L3.74818 9.45693L3.90485 9.58125ZM4.03589 9.49365L4.10344 9.68199L4.10895 9.67983L4.03589 9.49365ZM4.19198 9.46227L4.20032 9.6621L4.20095 9.66207L4.19198 9.46227ZM4.46867 9.57732L4.62534 9.453L4.62523 9.45287L4.46867 9.57732ZM4.59919 9.72244L4.74075 9.58113L4.73873 9.57916L4.59919 9.72244ZM4.67097 9.78912L4.54181 9.94223L4.55084 9.94901L4.67097 9.78912ZM4.68598 9.80154L4.55472 9.95243L4.56124 9.95811L4.56823 9.9632L4.68598 9.80154ZM4.69664 9.80941L4.57753 9.97007L4.57754 9.97007L4.69664 9.80941ZM4.71535 9.82311L4.83017 9.65935L4.83016 9.65935L4.71535 9.82311ZM4.75581 9.85056L4.87305 9.6885L4.87063 9.68681L4.75581 9.85056ZM4.8302 9.89763L4.93201 9.72547L4.93054 9.72462L4.8302 9.89763ZM4.97129 9.97071L4.88772 10.153L4.90093 10.1579L4.97129 9.97071ZM5.25724 10.0488L5.22247 10.2457L5.23023 10.2471L5.23807 10.2478L5.25724 10.0488ZM5.58209 10.0488L5.60141 10.2478L5.60915 10.2471L5.61682 10.2457L5.58209 10.0488ZM5.8674 9.9711L5.93744 10.1584L5.94481 10.1557L5.95195 10.1524L5.8674 9.9711ZM6.00091 9.90155L6.10169 10.0743L6.10279 10.0737L6.00091 9.90155ZM6.08444 9.84926L5.97339 9.68292L5.97337 9.68294L6.08444 9.84926ZM6.0932 9.84346L5.98325 9.6764L5.98324 9.6764L6.0932 9.84346ZM6.11707 9.82703L6.01327 9.65608L6.00483 9.6612L5.99694 9.66713L6.11707 9.82703ZM6.13947 9.81085L6.25923 9.97104L6.25925 9.97102L6.13947 9.81085ZM6.14109 9.80964L6.26113 9.97016L6.27119 9.96154L6.14109 9.80964ZM6.16797 9.7865L6.03552 9.63664L6.03455 9.63751L6.16797 9.7865ZM6.23192 9.72636L6.09237 9.58307L6.09038 9.58506L6.23192 9.72636ZM6.36244 9.58125L6.20654 9.45595L6.20577 9.45693L6.36244 9.58125ZM6.47546 9.50058L6.55187 9.6855L6.55713 9.68315L6.47546 9.50058ZM6.64827 9.46227L6.65623 9.66212L6.65723 9.66207L6.64827 9.46227ZM6.92496 9.57732L7.08162 9.453L7.08152 9.45287L6.92496 9.57732ZM7.05547 9.72244L7.19703 9.58113L7.19501 9.57916L7.05547 9.72244ZM7.12725 9.78912L6.99809 9.94223L7.00712 9.94902L7.12725 9.78912ZM7.14226 9.80154L7.011 9.95243L7.01752 9.9581L7.0245 9.96319L7.14226 9.80154ZM7.15293 9.80941L7.03381 9.97007L7.03381 9.97007L7.15293 9.80941ZM7.17163 9.82311L7.0568 9.98686L7.0568 9.98686L7.17163 9.82311ZM7.21209 9.85056L7.32933 9.6885L7.32691 9.68681L7.21209 9.85056ZM7.28648 9.89763L7.38828 9.72546L7.38682 9.72462L7.28648 9.89763ZM7.42548 9.9698L7.3418 10.1515L7.34831 10.1544L7.35501 10.157L7.42548 9.9698ZM7.71483 10.0489L7.67987 10.2458L7.68772 10.2472L7.69566 10.248L7.71483 10.0489ZM8.03968 10.0489L8.05899 10.248L8.06674 10.2472L8.07441 10.2459L8.03968 10.0489ZM8.32499 9.97123L8.39502 10.1586L8.4024 10.1558L8.40954 10.1525L8.32499 9.97123ZM8.4585 9.90168L8.55928 10.0744L8.56038 10.0738L8.4585 9.90168ZM8.54203 9.84939L8.6531 10.0157L8.6531 10.0157L8.54203 9.84939ZM8.55082 9.84358L8.66075 10.0107L8.66076 10.0106L8.55082 9.84358ZM8.57466 9.82716L8.47089 9.65619L8.46243 9.66132L8.45452 9.66726L8.57466 9.82716ZM8.59867 9.80977L8.71867 9.97033L8.72876 9.96169L8.59867 9.80977ZM8.60426 9.80502L8.73378 9.9574L8.73379 9.9574L8.60426 9.80502ZM8.62556 9.78663L8.4931 9.63678L8.49214 9.63764L8.62556 9.78663ZM8.68951 9.72649L8.54996 9.5832L8.54797 9.58519L8.68951 9.72649ZM8.82003 9.58138L8.66413 9.45609L8.66336 9.45706L8.82003 9.58138ZM8.93305 9.50071L9.00945 9.68563L9.01472 9.68328L8.93305 9.50071ZM9.10585 9.46241L9.11382 9.66225L9.11482 9.6622L9.10585 9.46241ZM9.38254 9.57745L9.53921 9.45313L9.5391 9.453L9.38254 9.57745ZM9.51306 9.72257L9.65462 9.58126L9.6526 9.57929L9.51306 9.72257ZM9.58484 9.78925L9.45568 9.94237L9.46473 9.94917L9.58484 9.78925ZM9.59985 9.80167L9.46858 9.95256L9.4751 9.95824L9.4821 9.96333L9.59985 9.80167ZM9.61047 9.8095L9.49136 9.97017L9.49137 9.97018L9.61047 9.8095ZM9.62922 9.82324L9.51438 9.98698L9.5144 9.987L9.62922 9.82324ZM9.66968 9.85069L9.78692 9.68863L9.7845 9.68694L9.66968 9.85069ZM9.74407 9.89776L9.84586 9.72559L9.8444 9.72475L9.74407 9.89776ZM9.88307 9.96993L9.79918 10.152L9.81243 10.157L9.88307 9.96993ZM10.1753 10.0495L10.1407 10.2465L10.1481 10.2478L10.1556 10.2486L10.1753 10.0495ZM10.4979 10.049L10.5175 10.2481L10.5254 10.2473L10.5331 10.2459L10.4979 10.049ZM10.7824 9.97136L10.8523 10.1588L10.8596 10.1561L10.8666 10.1528L10.7824 9.97136ZM11.0034 9.84677L11.1163 10.0119L11.1184 10.0104L11.0034 9.84677ZM11.023 9.83221L11.1445 9.99104L11.1445 9.99102L11.023 9.83221ZM11.0292 9.82742L10.9193 9.65983L10.9083 9.6681L11.0292 9.82742ZM11.053 9.81017L10.9255 9.65605L10.9237 9.6576L11.053 9.81017ZM11.056 9.80768L10.9428 9.64281L10.9354 9.64787L10.9285 9.65357L11.056 9.80768ZM11.0585 9.80594L11.1723 9.97041L11.1723 9.9704L11.0585 9.80594ZM11.0607 9.80446L11.1742 9.96913L10.9515 9.63689L11.0607 9.80446ZM11.0565 9.80716L10.9315 9.65109L11.1657 9.97473L11.0565 9.80716ZM11.16 9.71211L11.0187 9.57055L11.0185 9.57081L11.16 9.71211ZM11.2547 9.60748L11.1029 9.47725L11.1029 9.47727L11.2547 9.60748ZM11.257 9.60478L11.4088 9.735L11.4152 9.72751L11.4209 9.71943L11.257 9.60478ZM11.2634 9.59564L11.427 9.71073H11.427L11.2634 9.59564ZM11.2892 9.55784L11.1223 9.4476L11.1211 9.44955L11.2892 9.55784ZM7.06258 4.57094C7.75483 4.38183 8.23089 3.73808 8.23832 3.03091L7.83834 3.0267C7.83272 3.56153 7.47088 4.04474 6.95717 4.18508L7.06258 4.57094ZM5.4137 4.04613C5.80196 4.53494 6.47461 4.73049 7.06225 4.57103L6.9575 4.18499C6.51408 4.30531 6.00949 4.1531 5.72691 3.79734L5.4137 4.04613ZM5.15538 2.51669C4.93784 3.05072 5.0774 3.62285 5.41371 4.04615L5.7269 3.79733C5.46284 3.46497 5.37269 3.0435 5.52582 2.66759L5.15538 2.51669ZM5.82586 1.42777C5.57189 1.75599 5.32137 2.10728 5.15525 2.51699L5.52594 2.66729C5.67045 2.31089 5.89239 1.99542 6.14221 1.67256L5.82586 1.42777ZM6.21656 0.957396C6.07935 1.10966 5.94953 1.26792 5.82585 1.42778L6.14222 1.67255C6.26129 1.51864 6.38467 1.36837 6.51371 1.22517L6.21656 0.957396ZM7.06627 0.956492C6.95223 0.831481 6.79024 0.777539 6.64134 0.777539C6.49249 0.777539 6.33034 0.831481 6.21674 0.95719L6.51353 1.22537C6.53697 1.19942 6.58234 1.17754 6.64134 1.17754C6.70028 1.17754 6.74645 1.19942 6.77076 1.22607L7.06627 0.956492ZM7.19951 1.11031C7.15645 1.05909 7.11213 1.00797 7.06789 0.958284L6.76915 1.22428C6.81104 1.27133 6.85287 1.31958 6.89333 1.36771L7.19951 1.11031ZM7.821 1.93274C7.63223 1.64235 7.41905 1.36864 7.19882 1.1095L6.89402 1.36853C7.1071 1.61926 7.30896 1.87896 7.48563 2.15074L7.821 1.93274ZM8.235 2.97008C8.21239 2.57387 8.00086 2.21058 7.82121 1.93306L7.48542 2.15042C7.66494 2.42775 7.81963 2.71213 7.83565 2.99287L8.235 2.97008ZM8.23833 3.0288C8.23833 3.0042 8.23671 2.9801 8.23379 2.95671L7.83687 3.00625C7.83787 3.01424 7.83833 3.02177 7.83833 3.0288H8.23833ZM6.0188 3.55866C6.02088 3.56109 6.02339 3.56394 6.02601 3.56679C6.02708 3.56796 6.02955 3.57063 6.03266 3.57375C6.03384 3.57494 6.0377 3.57879 6.0429 3.58334C6.04507 3.58522 6.05135 3.59067 6.06006 3.59675C6.06419 3.59964 6.0731 3.60567 6.08528 3.61174C6.09131 3.61475 6.12609 3.63278 6.17458 3.63278V3.23278C6.20206 3.23278 6.22348 3.23847 6.23515 3.24217C6.24777 3.24619 6.25763 3.25071 6.26385 3.25381C6.27602 3.25988 6.28491 3.2659 6.28903 3.26877C6.29769 3.27482 6.30393 3.28023 6.30603 3.28206C6.3111 3.28649 6.31478 3.29018 6.31575 3.29115C6.31843 3.29384 6.3203 3.29588 6.32062 3.29623C6.32173 3.29744 6.32215 3.29794 6.32176 3.29749L6.0188 3.55866ZM6.17458 3.23278C6.20271 3.23278 6.22503 3.23872 6.23868 3.24335C6.2529 3.24817 6.26399 3.25372 6.27129 3.25777C6.28547 3.26563 6.29558 3.27353 6.3005 3.27755C6.31074 3.28592 6.31771 3.29337 6.32032 3.29623C6.32651 3.30296 6.3305 3.30834 6.33213 3.31058L6.00843 3.54557C6.01215 3.55069 6.01803 3.55842 6.02571 3.56679C6.02908 3.57046 6.0367 3.57855 6.04747 3.58735C6.05266 3.59159 6.063 3.59966 6.07738 3.60763C6.08686 3.61288 6.12319 3.63278 6.17458 3.63278V3.23278ZM7.16996 3.65124C7.17238 3.64914 7.17523 3.64664 7.17807 3.64401C7.17924 3.64294 7.18191 3.64047 7.18502 3.63735C7.1862 3.63617 7.19004 3.63231 7.19457 3.62711C7.19645 3.62495 7.20188 3.61867 7.20793 3.60997C7.21081 3.60584 7.21681 3.59694 7.22286 3.58479C7.22585 3.57878 7.24381 3.54406 7.24381 3.49567H6.84381C6.84381 3.46824 6.84947 3.44686 6.85316 3.43523C6.85716 3.42263 6.86166 3.4128 6.86475 3.40658C6.87079 3.39444 6.87678 3.38556 6.87964 3.38145C6.88567 3.37279 6.89106 3.36656 6.89288 3.36446C6.8973 3.35939 6.90098 3.35571 6.90194 3.35474C6.90462 3.35206 6.90665 3.35019 6.907 3.34987C6.90822 3.34875 6.90871 3.34833 6.90826 3.34872L7.16996 3.65124ZM6.84381 3.49567C6.84381 3.46763 6.84971 3.44537 6.85431 3.43175C6.85911 3.41757 6.86463 3.4065 6.86866 3.39921C6.87649 3.38504 6.88436 3.37493 6.88837 3.37001C6.89671 3.35976 6.90415 3.35279 6.907 3.35016C6.91373 3.34397 6.9191 3.33997 6.92135 3.33833L7.15688 3.66163C7.16199 3.65791 7.16972 3.65201 7.17807 3.64431C7.18174 3.64093 7.18982 3.6333 7.19859 3.62253C7.20282 3.61734 7.21085 3.60699 7.21879 3.59262C7.22403 3.58315 7.24381 3.5469 7.24381 3.49567H6.84381ZM6.22409 3.04646C6.23303 3.00478 6.24634 2.96233 6.26339 2.91748L5.88948 2.77537C5.86738 2.83354 5.84728 2.89594 5.83299 2.96252L6.22409 3.04646ZM5.84978 2.91478L5.84965 2.91505L6.20742 3.09393L6.20755 3.09367L5.84978 2.91478ZM6.23067 3.09642C6.22811 3.06684 6.22726 3.03932 6.22846 3.01349L5.82888 2.99497C5.82669 3.04235 5.82845 3.08804 5.83215 3.13089L6.23067 3.09642ZM6.25991 3.19468C6.24643 3.15608 6.23571 3.11627 6.22769 3.07528L5.83513 3.15202C5.84669 3.21118 5.86233 3.26942 5.88226 3.32653L6.25991 3.19468ZM6.31052 3.27894C6.28927 3.24751 6.27018 3.21295 6.25116 3.17358L5.89101 3.34762C5.91558 3.39847 5.944 3.45097 5.97913 3.50295L6.31052 3.27894ZM6.31935 3.29156C6.3176 3.28895 6.31477 3.28472 6.31226 3.2811C6.31107 3.27936 6.30881 3.27612 6.30611 3.27252C6.3048 3.27076 6.30236 3.26755 6.29921 3.26375C6.2977 3.26192 6.28924 3.25157 6.27662 3.24052L6.01303 3.54138C6.00578 3.53503 6.00054 3.52949 5.99796 3.52669C5.99503 3.5235 5.99276 3.52083 5.99133 3.51911C5.98855 3.51576 5.98656 3.51311 5.98574 3.51202C5.98476 3.51071 5.98408 3.50975 5.98379 3.50934C5.98361 3.5091 5.98349 3.50892 5.98342 3.50882C5.98334 3.50871 5.9833 3.50865 5.9833 3.50865C5.98329 3.50865 5.98332 3.50868 5.98337 3.50876C5.98342 3.50883 5.9835 3.50894 5.9836 3.50909C5.9838 3.50938 5.98406 3.50977 5.9844 3.51027C5.9851 3.51132 5.98591 3.51252 5.98698 3.51413L6.31935 3.29156ZM6.32132 3.29451C6.32068 3.29355 6.32004 3.2926 6.31933 3.29154L5.987 3.51414C5.98765 3.51512 5.98842 3.51627 5.98921 3.51745L6.32132 3.29451ZM6.34902 3.32155C6.33624 3.30876 6.32211 3.29306 6.30621 3.27477L6.00432 3.53719C6.02184 3.55734 6.0432 3.58139 6.06593 3.60415L6.34902 3.32155ZM6.39228 3.36101C6.37347 3.34453 6.36064 3.3332 6.34902 3.32155L6.06593 3.60415C6.08855 3.62681 6.11146 3.64678 6.12871 3.66189L6.39228 3.36101ZM6.39811 3.36612C6.39614 3.36439 6.39417 3.36267 6.39228 3.36101L6.12871 3.66189C6.13062 3.66357 6.13246 3.66518 6.1343 3.66679L6.39811 3.36612ZM6.39032 3.35928C6.38896 3.35837 6.38685 3.3569 6.38397 3.3548L6.14844 3.67811C6.15417 3.68228 6.16094 3.68709 6.16819 3.69193L6.39032 3.35928ZM6.49194 3.41787C6.4568 3.4008 6.42332 3.38159 6.39132 3.35995L6.16719 3.69126C6.2156 3.724 6.26564 3.75264 6.31716 3.77767L6.49194 3.41787ZM6.59312 3.44272C6.55126 3.43448 6.51099 3.42348 6.47211 3.40953L6.33699 3.78602C6.39574 3.8071 6.45544 3.8233 6.5159 3.83519L6.59312 3.44272ZM6.71059 3.43962C6.66402 3.44344 6.61727 3.44344 6.57089 3.43963L6.53814 3.83828C6.60634 3.84389 6.67497 3.84388 6.74326 3.83829L6.71059 3.43962ZM6.80604 3.41086C6.76784 3.42424 6.72886 3.43481 6.68863 3.44266L6.76521 3.83526C6.82417 3.82375 6.88177 3.80817 6.93833 3.78835L6.80604 3.41086ZM6.89004 3.36022C6.85868 3.38149 6.8242 3.4006 6.78492 3.41964L6.95944 3.77956C7.01022 3.75494 7.06266 3.72646 7.11457 3.69125L6.89004 3.36022ZM6.90266 3.35137C6.90005 3.35312 6.89582 3.35595 6.8922 3.35847C6.89047 3.35967 6.88723 3.36193 6.88363 3.36464C6.88187 3.36595 6.87866 3.36839 6.87487 3.37155C6.87305 3.37306 6.86271 3.38153 6.85168 3.39416L7.15293 3.65731C7.14659 3.66457 7.14107 3.66981 7.13828 3.67239C7.1351 3.67533 7.13242 3.67761 7.13071 3.67903C7.12736 3.68182 7.12472 3.68382 7.12363 3.68463C7.12233 3.68561 7.12137 3.6863 7.12096 3.68659C7.12072 3.68676 7.12054 3.68689 7.12044 3.68696C7.12033 3.68704 7.12027 3.68708 7.12027 3.68708C7.12026 3.68708 7.1203 3.68706 7.12038 3.687C7.12045 3.68695 7.12056 3.68688 7.12071 3.68678C7.121 3.68658 7.12139 3.68632 7.12189 3.68598C7.12294 3.68527 7.12414 3.68446 7.12575 3.68338L6.90266 3.35137ZM6.90558 3.3494C6.90463 3.35004 6.90367 3.35068 6.90266 3.35137L7.12575 3.68338C7.12675 3.6827 7.12788 3.68194 7.12905 3.68115L6.90558 3.3494ZM6.93255 3.32168C6.91978 3.33448 6.90411 3.34863 6.88585 3.36456L7.14878 3.666C7.1689 3.64845 7.1929 3.62705 7.21563 3.60428L6.93255 3.32168ZM6.97193 3.27835C6.95548 3.29719 6.94417 3.31004 6.93255 3.32168L7.21563 3.60428C7.23824 3.58164 7.25817 3.5587 7.27326 3.54141L6.97193 3.27835ZM6.97704 3.27251C6.9753 3.27449 6.97358 3.27646 6.97193 3.27835L7.27326 3.54142C7.27494 3.53949 7.27655 3.53764 7.27817 3.5358L6.97704 3.27251ZM6.97025 3.28026C6.96933 3.28164 6.96786 3.28376 6.96576 3.28665L7.28944 3.52165C7.29361 3.51592 7.2984 3.50914 7.30323 3.50189L6.97025 3.28026ZM7.02877 3.17842C7.01171 3.21365 6.99252 3.24721 6.9709 3.27928L7.30257 3.50288C7.33525 3.45441 7.36382 3.4043 7.3888 3.35272L7.02877 3.17842ZM7.05391 3.07533C7.04577 3.11752 7.03458 3.15852 7.02034 3.19856L7.39722 3.33258C7.41822 3.27352 7.4347 3.21307 7.44666 3.15119L7.05391 3.07533ZM7.0542 3.02894C7.0542 3.0505 7.05311 3.0724 7.05106 3.09569L7.44951 3.13084C7.45242 3.0979 7.4542 3.06411 7.4542 3.02894H7.0542ZM7.0537 3.01656C7.05407 3.02235 7.0542 3.02606 7.0542 3.02894H7.4542C7.4542 3.01429 7.45354 3.00127 7.45287 2.99085L7.0537 3.01656ZM7.01871 2.91875C7.03558 2.96335 7.04898 3.00576 7.05793 3.04656L7.44864 2.96085C7.43436 2.89575 7.41435 2.83409 7.39285 2.77724L7.01871 2.91875ZM6.84244 2.60007C6.91105 2.70819 6.97275 2.81778 7.02346 2.93022L7.3881 2.76577C7.32761 2.63165 7.25592 2.50512 7.18018 2.38576L6.84244 2.60007ZM6.61929 2.27425C6.69819 2.38133 6.77336 2.48936 6.84163 2.59878L7.18099 2.38704C7.1057 2.26637 7.02425 2.14953 6.94131 2.03697L6.61929 2.27425ZM6.55669 2.19018C6.57937 2.21958 6.59847 2.24441 6.61603 2.26969L6.94457 2.04153C6.92037 2.00667 6.8951 1.97398 6.8734 1.94586L6.55669 2.19018ZM6.55754 2.19061C6.56135 2.19529 6.57253 2.2096 6.57707 2.21557C6.57754 2.21619 6.57753 2.21619 6.57724 2.2158C6.57714 2.21566 6.57655 2.21486 6.57572 2.21371C6.57533 2.21315 6.57449 2.21199 6.57345 2.21046C6.57298 2.20978 6.57003 2.20551 6.56664 2.19981C6.56572 2.19825 6.56018 2.18908 6.55481 2.17659C6.5531 2.17261 6.5447 2.15346 6.54078 2.12732C6.53907 2.11185 6.54036 2.07086 6.54537 2.04586C6.55974 2.00805 6.61683 1.93893 6.65979 1.91378C6.69786 1.9018 6.76256 1.89907 6.7872 1.90363C6.8019 1.90791 6.82527 1.91739 6.8341 1.92192C6.85005 1.93059 6.86113 1.93952 6.86455 1.9423C6.8731 1.94924 6.87916 1.95538 6.88057 1.9568C6.88475 1.96102 6.88781 1.9645 6.88839 1.96516C6.88953 1.96646 6.8904 1.96748 6.89082 1.96797C6.89215 1.96955 6.89293 1.97052 6.89226 1.96969C6.89029 1.96726 6.8845 1.95996 6.87229 1.94444L6.5578 2.1916C6.56974 2.20679 6.57716 2.21617 6.58107 2.22101C6.58186 2.222 6.58365 2.2242 6.58559 2.2265C6.58616 2.22717 6.58715 2.22833 6.58839 2.22974C6.58908 2.23052 6.59222 2.23409 6.59645 2.23836C6.59789 2.23981 6.60397 2.24597 6.61254 2.25293C6.61597 2.25571 6.62705 2.26464 6.643 2.27332C6.65184 2.27784 6.67521 2.28732 6.68991 2.29161C6.71455 2.29617 6.77926 2.29343 6.81732 2.28146C6.86028 2.25631 6.91738 2.18719 6.93175 2.14938C6.93676 2.12437 6.93805 2.08338 6.93634 2.06791C6.93241 2.04176 6.92402 2.02261 6.9223 2.01862C6.91692 2.00612 6.91138 1.99692 6.91043 1.99533C6.90701 1.98958 6.904 1.98522 6.90345 1.98442C6.90233 1.98278 6.9014 1.98147 6.90088 1.98075C6.89982 1.97927 6.89891 1.97804 6.89842 1.97737C6.89735 1.97593 6.89628 1.97451 6.89544 1.97341C6.88954 1.96565 6.87526 1.94728 6.86733 1.93758L6.55754 2.19061ZM6.48649 2.10071C6.50948 2.1292 6.53215 2.15779 6.55402 2.18618L6.87085 1.94202C6.84678 1.91078 6.8222 1.87976 6.79769 1.84941L6.48649 2.10071ZM6.77559 2.12866C6.78329 2.11895 6.79135 2.1088 6.79932 2.09867L6.48486 1.85146C6.47757 1.86073 6.47009 1.87015 6.46229 1.87998L6.77559 2.12866ZM6.7498 2.16129C6.75802 2.1508 6.76656 2.14004 6.77559 2.12866L6.46229 1.87998C6.4534 1.89118 6.44406 1.90294 6.43493 1.9146L6.7498 2.16129ZM6.73529 2.17963C6.73907 2.17497 6.74582 2.16669 6.75246 2.15781L6.43226 1.91808C6.43108 1.91966 6.42934 1.92185 6.42463 1.92765L6.73529 2.17963ZM6.72766 2.1892C6.72885 2.18761 6.73059 2.18543 6.73529 2.17963L6.42464 1.92764C6.42086 1.93231 6.41411 1.94058 6.40747 1.94945L6.72766 2.1892ZM6.7121 2.20768L6.71588 2.2035L6.41925 1.93515L6.41546 1.93934L6.7121 2.20768ZM6.70712 2.21539C6.71234 2.20854 6.71767 2.20155 6.72301 2.19452L6.40455 1.95249C6.39943 1.95922 6.39429 1.96597 6.38903 1.97286L6.70712 2.21539ZM6.63575 2.31138C6.65773 2.2802 6.68111 2.2495 6.70712 2.21539L6.38903 1.97286C6.36377 2.006 6.33583 2.0426 6.30883 2.08089L6.63575 2.31138ZM6.2587 2.92877C6.35475 2.71616 6.48784 2.51511 6.63413 2.31365L6.31045 2.07863C6.15942 2.28663 6.00721 2.51388 5.89417 2.76409L6.2587 2.92877ZM12.48 8.88768V8.88755H12.08V8.88768H12.48ZM12.48 8.88834V8.88768H12.08V8.88834H12.48ZM12.4792 8.92146C12.4797 8.91184 12.4802 8.89908 12.4799 8.88489L12.08 8.89178C12.08 8.89277 12.08 8.89517 12.0797 8.90045L12.4792 8.92146ZM12.1778 9.98939C12.3713 9.66402 12.4721 9.28858 12.4794 8.91486L12.0795 8.90705C12.0735 9.21552 11.99 9.52253 11.834 9.78495L12.1778 9.98939ZM11.8436 10.4153C11.9708 10.2897 12.0834 10.1473 12.1775 9.9898L11.8342 9.78454C11.7577 9.91261 11.6661 10.0285 11.5626 10.1306L11.8436 10.4153ZM11.9031 12.6877V10.273H11.5031V12.6877H11.9031ZM11.7036 13.3675C11.8478 13.1623 11.9031 12.9165 11.9031 12.6877H11.5031C11.5031 12.8563 11.4618 13.0158 11.3763 13.1375L11.7036 13.3675ZM10.7331 13.8878C11.1319 13.8831 11.4797 13.6845 11.7033 13.3678L11.3766 13.1371C11.2217 13.3564 10.99 13.4847 10.7284 13.4878L10.7331 13.8878ZM10.2821 13.8884C10.4311 13.889 10.5817 13.8896 10.7331 13.8878L10.7284 13.4878C10.5806 13.4896 10.4332 13.489 10.2837 13.4884L10.2821 13.8884ZM10.0586 13.8878C10.133 13.8878 10.2074 13.8881 10.2821 13.8884L10.2837 13.4884C10.2091 13.4881 10.1339 13.4878 10.0586 13.4878V13.8878ZM2.57491 13.8878H10.0586V13.4878H2.57491V13.8878ZM1.61351 13.3837C1.83863 13.6911 2.1788 13.8815 2.5717 13.8878L2.57812 13.4879C2.31845 13.4837 2.09219 13.3603 1.93621 13.1474L1.61351 13.3837ZM1.40127 12.4755C1.40126 12.7424 1.39535 13.0853 1.6134 13.3836L1.93632 13.1475C1.80715 12.9708 1.80126 12.764 1.80127 12.4755L1.40127 12.4755ZM1.40127 12.4694L1.40127 12.4755L1.80127 12.4755L1.80127 12.4694L1.40127 12.4694ZM1.40127 10.2953V12.4694H1.80127V10.2953H1.40127ZM1.17388 10.0989C1.25854 10.2196 1.35471 10.334 1.46146 10.4383L1.74108 10.1523C1.65284 10.0661 1.57256 9.97073 1.50139 9.86923L1.17388 10.0989ZM0.808282 9.04939C0.84204 9.41433 0.952517 9.78462 1.17413 10.0992L1.50114 9.86887C1.3286 9.62392 1.23547 9.32484 1.20658 9.01255L0.808282 9.04939ZM1.5163 7.27915C1.02508 7.71042 0.747463 8.3952 0.808291 9.04949L1.20657 9.01246C1.15777 8.48749 1.38393 7.92765 1.78021 7.57974L1.5163 7.27915ZM2.39393 6.7996C2.06286 6.88833 1.76724 7.05903 1.51637 7.27909L1.78015 7.57979C1.9913 7.39457 2.2334 7.25674 2.49747 7.18596L2.39393 6.7996ZM3.07217 6.7248C2.85369 6.7248 2.62348 6.73809 2.39393 6.7996L2.49747 7.18597C2.67774 7.13766 2.86778 7.1248 3.07217 7.1248V6.7248ZM5.39292 6.72624C4.61908 6.72545 3.84531 6.7248 3.07217 6.7248V7.1248C3.8451 7.1248 4.61871 7.12545 5.39251 7.12624L5.39292 6.72624ZM5.19272 5.63442V6.92624H5.59272V5.63442H5.19272ZM5.19243 5.55965C5.19258 5.58502 5.19272 5.60977 5.19272 5.63442H5.59272C5.59272 5.60843 5.59257 5.58253 5.59242 5.55735L5.19243 5.55965ZM5.19275 5.40474C5.19183 5.4571 5.19214 5.50965 5.19243 5.55965L5.59242 5.55735C5.59213 5.50653 5.59186 5.45866 5.59269 5.41175L5.19275 5.40474ZM6.06589 4.52195C5.57877 4.53537 5.20111 4.91909 5.19275 5.40481L5.59269 5.41169C5.59738 5.13913 5.80442 4.92931 6.0769 4.9218L6.06589 4.52195ZM6.59252 4.52043C6.41993 4.51898 6.24342 4.51748 6.06636 4.52194L6.07642 4.92181C6.24566 4.91755 6.41545 4.91896 6.58916 4.92042L6.59252 4.52043ZM6.85056 4.52188C6.76497 4.52188 6.67923 4.52116 6.59252 4.52043L6.58916 4.92042C6.6756 4.92114 6.76301 4.92188 6.85056 4.92188V4.52188ZM6.96748 4.52159C6.92812 4.52173 6.88924 4.52188 6.85056 4.52188V4.92188C6.8901 4.92188 6.92972 4.92173 6.96896 4.92159L6.96748 4.52159ZM7.20648 4.52189C7.12639 4.521 7.04597 4.5213 6.96748 4.52159L6.96896 4.92159C7.04796 4.92129 7.12541 4.92101 7.20203 4.92186L7.20648 4.52189ZM8.09456 5.33479C8.05072 4.87403 7.67652 4.52506 7.20561 4.52188L7.20291 4.92187C7.46705 4.92366 7.67181 5.11463 7.69636 5.37267L8.09456 5.33479ZM8.09859 5.4004C8.09859 5.37477 8.09668 5.35067 8.09387 5.32856L7.69705 5.3789C7.69816 5.38764 7.69859 5.39465 7.69859 5.4004H8.09859ZM8.09859 5.40171V5.4004H7.69859V5.40171H8.09859ZM8.09845 5.4303C8.0989 5.4183 8.0989 5.40626 8.09846 5.39431L7.69873 5.40911C7.69881 5.41128 7.69881 5.41336 7.69874 5.41522L8.09845 5.4303ZM8.09859 6.92833V5.42276H7.69859V6.92833H8.09859ZM8.46008 6.7287C8.27296 6.72858 8.08585 6.72846 7.89873 6.72833L7.89845 7.12833C8.08558 7.12846 8.2727 7.12858 8.45982 7.1287L8.46008 6.7287ZM10.1463 6.73003C9.58418 6.72944 9.02211 6.72907 8.46008 6.7287L8.45982 7.1287C9.02186 7.12907 9.58385 7.12944 10.1458 7.13003L10.1463 6.73003ZM10.7505 6.77395C10.5422 6.7351 10.3403 6.73003 10.1461 6.73003V7.13003C10.3355 7.13003 10.5069 7.13541 10.6771 7.16716L10.7505 6.77395ZM11.5868 7.1413C11.3445 6.95961 11.0497 6.82924 10.7501 6.77389L10.6775 7.16723C10.9156 7.21123 11.1533 7.31619 11.3469 7.46134L11.5868 7.1413ZM12.2323 7.88358C12.0769 7.57964 11.8464 7.33669 11.5871 7.14152L11.3466 7.46112C11.5702 7.6294 11.7548 7.82834 11.8761 8.06565L12.2323 7.88358ZM12.4797 8.87445C12.4762 8.52757 12.3902 8.19012 12.232 7.88302L11.8764 8.06622C12.0069 8.31945 12.0769 8.59569 12.0797 8.87843L12.4797 8.87445ZM12.48 8.88716C12.48 8.88499 12.4801 8.87385 12.4792 8.86168L12.0802 8.89121C12.08 8.88806 12.08 8.8859 12.08 8.88544C12.08 8.88512 12.08 8.8851 12.08 8.88716H12.48ZM12.48 8.88755V8.88716H12.08V8.88755H12.48ZM11.6875 8.71925C11.6865 8.71198 11.6855 8.70467 11.6845 8.69703L11.288 8.75017C11.289 8.7577 11.2901 8.76556 11.2912 8.77347L11.6875 8.71925ZM11.2816 8.70325C11.2851 8.72356 11.2879 8.74471 11.2906 8.76863L11.6881 8.72409C11.685 8.69675 11.6812 8.66639 11.6756 8.63441L11.2816 8.70325ZM11.6845 8.69703C11.6821 8.67912 11.6794 8.65942 11.6764 8.63921L11.2808 8.69845C11.2833 8.71512 11.2855 8.73178 11.288 8.75017L11.6845 8.69703ZM11.4287 8.07195L11.4147 8.05326L11.0943 8.29263L11.1082 8.31133L11.4287 8.07195ZM11.1064 8.30734C11.1086 8.30977 11.1085 8.30982 11.1068 8.30766C11.1066 8.30741 11.1016 8.30111 11.0958 8.29134C11.0933 8.28728 11.0857 8.27434 11.0794 8.25597C11.0762 8.24673 11.0708 8.22916 11.0691 8.20627C11.0675 8.1844 11.068 8.14223 11.0923 8.09694L11.4446 8.28634C11.4691 8.24083 11.4697 8.1984 11.468 8.17619C11.4662 8.15296 11.4608 8.135 11.4574 8.12532C11.4508 8.10606 11.4426 8.09201 11.4394 8.08669C11.4321 8.07438 11.4247 8.06486 11.4218 8.06105C11.4145 8.05176 11.4069 8.04331 11.4026 8.03855L11.1064 8.30734ZM6.91551 5.40171V5.41531H7.31551V5.40171H6.91551ZM6.93526 5.46682C6.92319 5.44566 6.9188 5.42708 6.91707 5.41698C6.91617 5.41174 6.91581 5.4077 6.91566 5.40536C6.91558 5.40415 6.91554 5.40322 6.91552 5.40264C6.91551 5.40205 6.91551 5.40173 6.91551 5.40171H7.31551C7.31551 5.38278 7.31532 5.32579 7.2827 5.26861L6.93526 5.46682ZM7.31376 5.38891C7.31173 5.37364 7.30945 5.35642 7.30688 5.33881L6.91108 5.39663C6.91321 5.41118 6.91511 5.4256 6.91726 5.4417L7.31376 5.38891ZM6.45119 5.71022H7.08418V5.31022H6.45119V5.71022ZM6.31922 5.70826C6.36168 5.70921 6.40656 5.71022 6.45119 5.71022V5.31022C6.4118 5.31022 6.37143 5.30933 6.32816 5.30836L6.31922 5.70826ZM6.17565 5.70643C6.22196 5.7061 6.26903 5.70714 6.31922 5.70826L6.32816 5.30836C6.27897 5.30726 6.22601 5.30606 6.17283 5.30644L6.17565 5.70643ZM6.37485 5.5432C6.37461 5.52973 6.37439 5.51674 6.37422 5.50383L5.97425 5.50903C5.97444 5.52296 5.97468 5.53681 5.97491 5.55014L6.37485 5.5432ZM6.3758 5.62658C6.3758 5.59801 6.37531 5.5696 6.37485 5.5432L5.97491 5.55015C5.97538 5.57714 5.9758 5.60206 5.9758 5.62658H6.3758ZM6.3758 6.92702V5.62658H5.9758V6.92702H6.3758ZM6.55189 6.72741L6.17601 6.72702L6.1756 7.12702L6.55148 7.12741L6.55189 6.72741ZM7.11565 6.72781L6.55182 6.72741L6.55155 7.12741L7.11537 7.1278L7.11565 6.72781ZM6.91551 5.50996V6.9278H7.31551V5.50996H6.91551ZM7.08418 5.71022C7.09422 5.71022 7.10715 5.71023 7.12051 5.7099L7.1105 5.31002C7.10298 5.31021 7.09503 5.31022 7.08418 5.31022V5.71022ZM2.13951 7.77637L2.12215 7.78931L2.36126 8.10998L2.37862 8.09704L2.13951 7.77637ZM2.37891 8.09517C2.38301 8.0913 2.38111 8.09327 2.37712 8.09647C2.37579 8.09753 2.36695 8.10474 2.35342 8.11226C2.34689 8.11589 2.33205 8.12371 2.31142 8.12944C2.29423 8.13422 2.24642 8.14522 2.18983 8.12434L2.3283 7.74907C2.27109 7.72796 2.22248 7.739 2.20434 7.74404C2.18276 7.75003 2.16682 7.75834 2.15906 7.76265C2.14309 7.77153 2.13131 7.78086 2.12679 7.78449C2.1164 7.79282 2.10706 7.80172 2.10451 7.80413L2.37891 8.09517ZM2.60313 12.7303L2.60078 12.7282L2.33474 13.0269L2.33709 13.029L2.60313 12.7303ZM2.54144 12.6928L2.5404 12.6924L2.39982 13.0669L2.40086 13.0672L2.54144 12.6928ZM2.34961 13.0389L2.35301 13.0414L2.58929 12.7186L2.5859 12.7161L2.34961 13.0389ZM2.39498 13.0662L2.39746 13.0673L2.55294 12.6987L2.55046 12.6977L2.39498 13.0662ZM2.67272 12.8821V12.882H2.27272V12.8821H2.67272ZM2.37777 12.7165C2.44662 12.6751 2.5123 12.6899 2.52617 12.6931C2.54818 12.6983 2.56411 12.7061 2.57016 12.7091C2.5836 12.7159 2.59292 12.7226 2.59476 12.724C2.60033 12.728 2.6036 12.7309 2.60225 12.7297L2.34318 13.0345C2.34614 13.037 2.3532 13.043 2.36164 13.049C2.36491 13.0514 2.37544 13.0589 2.38981 13.0661C2.39632 13.0694 2.41265 13.0774 2.43498 13.0826C2.44917 13.0859 2.51509 13.1007 2.58411 13.0592L2.37777 12.7165ZM2.35506 13.0429C2.35607 13.0437 2.35419 13.0423 2.35108 13.0397C2.35025 13.039 2.34465 13.0344 2.33793 13.0275C2.33551 13.0251 2.32597 13.0154 2.3161 13.001C2.31162 12.9945 2.30059 12.9779 2.29221 12.954C2.28571 12.9354 2.26589 12.8708 2.30202 12.7985L2.65986 12.9772C2.696 12.9049 2.67618 12.8402 2.66966 12.8216C2.66126 12.7976 2.6502 12.7809 2.64566 12.7743C2.63568 12.7598 2.62596 12.7499 2.6233 12.7472C2.61608 12.7399 2.60972 12.7346 2.6079 12.733C2.6028 12.7288 2.59798 12.7251 2.59533 12.7231L2.35506 13.0429ZM10.7414 12.6822L10.7393 12.6845L11.0385 12.95L11.0406 12.9476L10.7414 12.6822ZM10.7041 12.7437L10.7037 12.7447L11.0783 12.8851L11.0787 12.884L10.7041 12.7437ZM11.0505 12.9351L11.053 12.9317L10.7299 12.696L10.7274 12.6994L11.0505 12.9351ZM11.0778 12.8897L11.0788 12.8872L10.71 12.7324L10.709 12.7348L11.0778 12.8897ZM10.8935 12.6123H10.8934V13.0123H10.8935V12.6123ZM10.7276 12.9068C10.706 12.8706 10.7004 12.8357 10.6995 12.8122C10.6985 12.7889 10.7019 12.7702 10.7045 12.7588C10.7097 12.7369 10.7174 12.7211 10.7204 12.715C10.7272 12.7016 10.7339 12.6923 10.7352 12.6905C10.7392 12.6849 10.742 12.6817 10.7409 12.683L11.0461 12.9415C11.0486 12.9386 11.0546 12.9315 11.0606 12.9231C11.0629 12.9198 11.0704 12.9093 11.0777 12.895C11.0809 12.8885 11.0888 12.8722 11.094 12.85C11.0973 12.8359 11.1121 12.7702 11.0709 12.7013L10.7276 12.9068ZM11.0545 12.9297C11.0553 12.9287 11.0539 12.9305 11.0513 12.9337C11.0506 12.9345 11.046 12.9401 11.0391 12.9469C11.0367 12.9493 11.0269 12.9589 11.0125 12.9688C11.006 12.9733 10.9893 12.9844 10.9653 12.9928C10.9465 12.9994 10.8817 13.0191 10.8093 12.9827L10.9892 12.6254C10.9168 12.589 10.8519 12.6087 10.8331 12.6153C10.809 12.6237 10.7922 12.6348 10.7856 12.6394C10.7711 12.6494 10.7611 12.6592 10.7584 12.6619C10.7511 12.6691 10.7457 12.6755 10.7442 12.6773C10.74 12.6824 10.7363 12.6873 10.7343 12.6899L11.0545 12.9297ZM10.7187 12.6918C10.7155 12.7061 10.7121 12.7189 10.7084 12.7306L11.0898 12.8511C11.0976 12.8264 11.1039 12.8021 11.1091 12.779L10.7187 12.6918ZM10.7139 12.735V12.7354H11.1139V12.735H10.7139ZM10.7152 12.5312C10.7167 12.602 10.7179 12.6635 10.7142 12.7227L11.1135 12.7473C11.1183 12.6687 11.1165 12.5905 11.1151 12.5226L10.7152 12.5312ZM10.7136 12.422C10.7136 12.4593 10.7144 12.4964 10.7152 12.5312L11.1151 12.5226C11.1143 12.4871 11.1136 12.4542 11.1136 12.422H10.7136ZM10.7136 10.7521V12.422H11.1136V10.7521H10.7136ZM10.8402 10.9787C10.8842 10.9684 10.9279 10.9567 10.9714 10.9436L10.8558 10.5607C10.8205 10.5713 10.7849 10.5808 10.7487 10.5893L10.8402 10.9787ZM10.4339 11.0423C10.5736 11.0337 10.7108 11.0117 10.8438 10.9778L10.7451 10.5902C10.6356 10.6181 10.5232 10.6361 10.4092 10.6431L10.4339 11.0423ZM8.97235 10.5698C9.37896 10.8971 9.91115 11.0753 10.4341 11.0423L10.409 10.6431C9.9902 10.6695 9.55554 10.5258 9.22317 10.2582L8.97235 10.5698ZM8.92268 10.7711C9.02801 10.7135 9.12889 10.6457 9.22309 10.5699L8.97243 10.2582C8.89592 10.3197 8.8146 10.3743 8.73068 10.4202L8.92268 10.7711ZM8.5606 10.9286C8.68492 10.8876 8.80622 10.8351 8.92302 10.7709L8.73035 10.4204C8.63545 10.4725 8.53671 10.5152 8.43523 10.5487L8.5606 10.9286ZM7.40663 10.9941C7.79234 11.0739 8.19056 11.0524 8.56137 10.9283L8.43446 10.549C8.13234 10.6501 7.80594 10.6683 7.48766 10.6024L7.40663 10.9941ZM6.51712 10.5698C6.77427 10.7774 7.08422 10.9285 7.40726 10.9943L7.48703 10.6023C7.23059 10.5501 6.9788 10.4285 6.76845 10.2586L6.51712 10.5698ZM6.4677 10.7711C6.57303 10.7135 6.67385 10.6457 6.76797 10.5701L6.5176 10.2582C6.441 10.3197 6.35963 10.3743 6.27571 10.4202L6.4677 10.7711ZM6.10562 10.9286C6.22994 10.8876 6.35125 10.8351 6.46804 10.7709L6.27537 10.4204C6.18047 10.4725 6.08173 10.5152 5.98026 10.5487L6.10562 10.9286ZM4.95165 10.9941C5.33736 11.0739 5.73558 11.0524 6.10639 10.9283L5.97949 10.549C5.67736 10.6501 5.35097 10.6683 5.03269 10.6024L4.95165 10.9941ZM4.06215 10.5696C4.31927 10.7773 4.62933 10.9285 4.95227 10.9943L5.03207 10.6023C4.77578 10.5501 4.52385 10.4284 4.31347 10.2584L4.06215 10.5696ZM3.92519 10.8155C4.06227 10.7482 4.1926 10.6662 4.31265 10.5703L4.06297 10.2578C3.96636 10.335 3.86072 10.4015 3.74878 10.4565L3.92519 10.8155ZM3.1787 11.0321C3.43566 11.0008 3.6897 10.9328 3.92611 10.8151L3.74786 10.457C3.5588 10.5511 3.35003 10.6083 3.13035 10.635L3.1787 11.0321ZM2.32377 10.9468C2.59564 11.0313 2.8856 11.067 3.1782 11.0322L3.13085 10.635C2.90139 10.6623 2.66825 10.635 2.4426 10.5648L2.32377 10.9468ZM2.58318 12.4822V10.7558H2.18318V12.4822H2.58318ZM2.5822 12.568C2.58268 12.5406 2.58318 12.5113 2.58318 12.4822H2.18318C2.18318 12.5073 2.18275 12.5331 2.18226 12.5611L2.5822 12.568ZM2.58324 12.7283C2.58039 12.6792 2.58118 12.6277 2.5822 12.568L2.18226 12.5611C2.18128 12.6181 2.18004 12.6848 2.18391 12.7515L2.58324 12.7283ZM2.58582 12.7228C2.58314 12.7139 2.58072 12.7047 2.57847 12.695L2.18868 12.7848C2.1927 12.8022 2.19732 12.8199 2.20274 12.8379L2.58582 12.7228ZM2.58776 12.7169C2.58093 12.7048 2.57565 12.6954 2.57074 12.6862L2.21782 12.8745C2.22549 12.8889 2.23329 12.9026 2.2397 12.914L2.58776 12.7169ZM2.59726 12.7337C2.59396 12.7278 2.59071 12.7221 2.58776 12.7169L2.2397 12.914C2.24273 12.9193 2.24549 12.9242 2.2482 12.929L2.59726 12.7337ZM2.57955 12.7071C2.58037 12.7079 2.58048 12.7081 2.57968 12.7072C2.57886 12.7062 2.57765 12.7048 2.57564 12.7025L2.26982 12.9603C2.27529 12.9668 2.28492 12.9781 2.29645 12.9897L2.57955 12.7071ZM2.59227 12.7197C2.58925 12.7168 2.58649 12.7141 2.5845 12.7121C2.58349 12.7111 2.58285 12.7105 2.58257 12.7102C2.58243 12.71 2.58254 12.7101 2.58282 12.7104C2.58291 12.7105 2.58402 12.7117 2.58554 12.7133L2.29046 12.9834C2.29676 12.9903 2.30771 13.001 2.31427 13.0073L2.59227 12.7197ZM2.56038 12.6946L2.55738 12.6928L2.34916 13.0343L2.35217 13.0361L2.56038 12.6946ZM2.58878 12.7113C2.5796 12.7064 2.57162 12.7018 2.56446 12.6972L2.34808 13.0336C2.36573 13.0449 2.38307 13.0549 2.39973 13.0638L2.58878 12.7113ZM2.58948 12.7062C2.57754 12.7035 2.56541 12.7002 2.55305 12.6964L2.43545 13.0787C2.45625 13.0851 2.47779 13.091 2.50004 13.0961L2.58948 12.7062ZM2.57883 12.702C2.57149 12.702 2.5634 12.7017 2.55174 12.7013L2.53778 13.1011C2.54857 13.1014 2.56345 13.102 2.57883 13.102V12.702ZM3.22591 12.7023C3.01003 12.7025 2.79479 12.7028 2.57963 12.702L2.57802 13.102C2.79443 13.1028 3.01075 13.1025 3.22645 13.1023L3.22591 12.7023ZM3.54985 12.702C3.4418 12.702 3.33378 12.7021 3.22591 12.7023L3.22645 13.1023C3.33436 13.1021 3.44212 13.102 3.54985 13.102V12.702ZM10.5192 12.702H3.54985V13.102H10.5192V12.702ZM10.5993 12.703C10.574 12.7025 10.5466 12.702 10.5192 12.702V13.102C10.5421 13.102 10.5657 13.1024 10.5916 13.1029L10.5993 12.703ZM10.7389 12.7023C10.6966 12.7048 10.6523 12.704 10.5993 12.703L10.5916 13.1029C10.6419 13.1039 10.7017 13.1051 10.762 13.1016L10.7389 12.7023ZM10.7337 12.6997C10.7251 12.7023 10.716 12.7047 10.7066 12.7068L10.7943 13.0971C10.8129 13.0929 10.8317 13.088 10.8505 13.0823L10.7337 12.6997ZM10.7283 12.6976C10.7162 12.7044 10.7069 12.7097 10.6977 12.7147L10.8865 13.0673C10.9009 13.0596 10.9146 13.0518 10.9259 13.0454L10.7283 12.6976ZM10.7451 12.6881C10.7392 12.6914 10.7335 12.6947 10.7283 12.6976L10.9259 13.0454C10.9312 13.0423 10.9361 13.0396 10.9409 13.0369L10.7451 12.6881ZM10.7184 12.7059C10.7192 12.7051 10.7194 12.7049 10.7185 12.7058C10.7176 12.7066 10.7162 12.7078 10.7138 12.7098L10.9722 13.0152C10.9786 13.0097 10.99 13.0001 11.0015 12.9885L10.7184 12.7059ZM10.7311 12.6931C10.7281 12.6962 10.7254 12.6989 10.7235 12.7009C10.7225 12.7019 10.7218 12.7026 10.7215 12.7028C10.7214 12.703 10.7215 12.7029 10.7218 12.7026C10.7219 12.7025 10.7231 12.7014 10.7247 12.6998L10.9952 12.9945C11.0021 12.9882 11.0128 12.9772 11.0191 12.9706L10.7311 12.6931ZM10.706 12.725L10.7042 12.728L11.046 12.9358L11.0478 12.9328L10.706 12.725ZM10.7227 12.6966C10.7178 12.7058 10.7132 12.7138 10.7086 12.721L11.0453 12.9368C11.0566 12.9191 11.0666 12.9018 11.0755 12.8851L10.7227 12.6966ZM3.77276 9.99479L3.79116 9.98028L3.54347 9.6662L3.52507 9.68071L3.77276 9.99479ZM3.64904 9.63775H3.64891V10.0378H3.64904V9.63775ZM3.54112 9.66933L3.53799 9.67142L3.7601 10.0041L3.76323 10.002L3.54112 9.66933ZM3.54242 9.66722C3.54249 9.66717 3.54204 9.66755 3.54098 9.66843C3.53999 9.66926 3.53875 9.67028 3.53732 9.67144C3.53442 9.6738 3.53135 9.67625 3.52886 9.6782L3.77549 9.99312C3.78398 9.98647 3.79569 9.97701 3.8037 9.9701L3.54242 9.66722ZM3.79195 9.97966L3.79769 9.97508L3.54842 9.66225L3.54268 9.66682L3.79195 9.97966ZM6.00456 9.66416L6.00094 9.66668L6.22936 9.99504L6.23298 9.99252L6.00456 9.66416ZM5.9962 9.67048L5.99584 9.67058L6.24169 9.9861C6.24771 9.98142 6.25659 9.97432 6.26483 9.96685L5.9962 9.67048ZM6.24941 9.97966L6.25515 9.97508L6.00588 9.66225L6.00014 9.66682L6.24941 9.97966ZM6.23927 9.98768L6.2489 9.98006L6.00065 9.66642L5.99102 9.67404L6.23927 9.98768ZM8.46215 9.66415L8.45853 9.66667L8.68694 9.99504L8.69056 9.99253L8.46215 9.66415ZM8.45569 9.66878C8.45519 9.66919 8.45442 9.66981 8.45343 9.67058L8.69928 9.9861C8.70222 9.98381 8.70524 9.98142 8.70822 9.97899L8.45569 9.66878ZM8.45381 9.67046C8.45588 9.66858 8.45676 9.66791 8.45567 9.66879L8.70824 9.97898C8.712 9.97591 8.71714 9.97164 8.7224 9.96687L8.45381 9.67046ZM8.70699 9.97966L8.71274 9.97508L8.46347 9.66225L8.45773 9.66682L8.70699 9.97966ZM8.69686 9.98768L8.70648 9.98006L8.45824 9.66642L8.44861 9.67403L8.69686 9.98768ZM11.2912 9.01724C11.2759 9.10315 11.2533 9.1864 11.2233 9.26742L11.5984 9.40638C11.6368 9.30279 11.6656 9.19648 11.685 9.08733L11.2912 9.01724ZM11.2881 9.05215V9.05228H11.6881V9.05215H11.2881ZM11.2967 8.88834C11.2967 8.93508 11.2939 8.98269 11.289 9.03313L11.6872 9.07117C11.6928 9.01232 11.6967 8.95142 11.6967 8.88834H11.2967ZM11.2913 8.77737C11.295 8.8144 11.2967 8.85112 11.2967 8.88834H11.6967C11.6967 8.83823 11.6943 8.7884 11.6894 8.7381L11.2913 8.77737ZM11.2195 8.50825C11.2535 8.59894 11.2777 8.69225 11.2928 8.78864L11.6879 8.72682C11.6688 8.60462 11.6379 8.48483 11.5939 8.36765L11.2195 8.50825ZM11.1165 8.32634C11.1576 8.38768 11.1935 8.45301 11.2249 8.52143L11.5884 8.35447C11.5491 8.26888 11.5031 8.18465 11.4489 8.10374L11.1165 8.32634ZM11.0977 8.29971C11.1055 8.31061 11.1117 8.31928 11.1174 8.32766L11.448 8.10242C11.4392 8.08959 11.4303 8.07717 11.423 8.06693L11.0977 8.29971ZM11.0844 8.28101C11.089 8.28754 11.0936 8.29396 11.0977 8.29972L11.423 8.06692C11.4188 8.06099 11.415 8.0557 11.4113 8.0505L11.0844 8.28101ZM11.1059 8.30661L11.1063 8.307L11.3894 8.02451L11.3891 8.02411L11.1059 8.30661ZM11.008 8.19946C11.0383 8.2298 11.0666 8.26045 11.0933 8.29275L11.4016 8.03798C11.3657 7.99444 11.3287 7.9545 11.2911 7.91686L11.008 8.19946ZM10.9124 8.11229C10.9465 8.14094 10.9782 8.16942 11.0078 8.19919L11.2914 7.91712C11.2513 7.87682 11.2104 7.8402 11.1698 7.80609L10.9124 8.11229ZM10.8719 8.08446C10.8903 8.09708 10.9064 8.10826 10.9219 8.11976L11.1604 7.79862C11.1385 7.78241 11.1173 7.7677 11.0983 7.75469L10.8719 8.08446ZM10.6903 7.98452C10.7554 8.01438 10.8171 8.04814 10.8747 8.0863L11.0956 7.75286C11.019 7.70211 10.9389 7.65848 10.8569 7.62088L10.6903 7.98452ZM10.4544 7.92186C10.5399 7.93727 10.6228 7.96002 10.7039 7.99016L10.8433 7.61523C10.7401 7.57687 10.6343 7.54785 10.5255 7.52822L10.4544 7.92186ZM10.1424 7.91534C10.2601 7.91471 10.3669 7.91431 10.4711 7.92415L10.5088 7.52593C10.3814 7.51389 10.2546 7.51473 10.1403 7.51534L10.1424 7.91534ZM10.0612 7.91563C10.0885 7.91563 10.1158 7.91548 10.1424 7.91534L10.1403 7.51534C10.1134 7.51549 10.0873 7.51563 10.0612 7.51563V7.91563ZM9.38254 7.91563H10.0612V7.51563H9.38254V7.91563ZM5.49301 7.91301C6.789 7.91432 8.08511 7.91563 9.38254 7.91563V7.51563C8.08535 7.51563 6.78944 7.51432 5.49341 7.51301L5.49301 7.91301ZM4.60354 7.91236C4.90011 7.91268 5.19682 7.91301 5.49321 7.91301V7.51301C5.19707 7.51301 4.90059 7.51269 4.60398 7.51236L4.60354 7.91236ZM3.7143 7.9117C4.01044 7.9117 4.30692 7.91203 4.60354 7.91236L4.60398 7.51236C4.3074 7.51203 4.0107 7.5117 3.7143 7.5117V7.9117ZM3.16092 7.9117H3.7143V7.5117H3.16092V7.9117ZM3.09689 7.91153C3.11791 7.91162 3.1394 7.9117 3.16092 7.9117V7.5117C3.14036 7.5117 3.11971 7.51162 3.09855 7.51153L3.09689 7.91153ZM2.80843 7.91945C2.8991 7.91087 2.99242 7.9111 3.09689 7.91153L3.09855 7.51153C2.99745 7.51111 2.88436 7.51048 2.77078 7.52122L2.80843 7.91945ZM2.57469 7.98601C2.65577 7.9554 2.73893 7.9326 2.82489 7.9172L2.75433 7.52347C2.64477 7.5431 2.5379 7.57234 2.43339 7.6118L2.57469 7.98601ZM2.3942 8.08813C2.45469 8.04743 2.51916 8.01187 2.58713 7.98083L2.42095 7.61698C2.33491 7.65628 2.25112 7.7023 2.17092 7.75625L2.3942 8.08813ZM2.36667 8.10772C2.37766 8.09985 2.38727 8.09297 2.39667 8.08644L2.16845 7.75794C2.15628 7.76639 2.14433 7.77496 2.13375 7.78254L2.36667 8.10772ZM2.34988 8.11972C2.35563 8.11563 2.36133 8.11155 2.36667 8.10772L2.13375 7.78253C2.12829 7.78644 2.12319 7.7901 2.11813 7.7937L2.34988 8.11972ZM2.35309 8.1174L2.35413 8.11661L2.11388 7.7968L2.11284 7.79758L2.35309 8.1174ZM2.26722 8.19711C2.29729 8.1671 2.32867 8.13892 2.36325 8.10923L2.10268 7.80575C2.06417 7.83881 2.02454 7.87418 1.98466 7.91398L2.26722 8.19711ZM2.18045 8.29262C2.20906 8.25848 2.2375 8.22677 2.26722 8.19711L1.98466 7.91398C1.94443 7.95413 1.90787 7.99511 1.87383 8.03575L2.18045 8.29262ZM2.15266 8.3332C2.16525 8.31479 2.17642 8.29868 2.18791 8.28315L1.86637 8.04522C1.85019 8.06708 1.83552 8.08836 1.82253 8.10734L2.15266 8.3332ZM2.05065 8.51664C2.08015 8.45172 2.1142 8.39017 2.15335 8.33218L1.82184 8.10836C1.76937 8.18607 1.72459 8.2673 1.68648 8.35116L2.05065 8.51664ZM1.98665 8.7565C2.00203 8.66993 2.02491 8.58615 2.05571 8.50445L1.68142 8.36335C1.64175 8.46859 1.61242 8.57621 1.59282 8.68654L1.98665 8.7565ZM1.98884 9.02883C1.97969 8.93229 1.97951 8.83646 1.9888 8.74086L1.59067 8.70217C1.57882 8.82413 1.57916 8.94558 1.59063 9.06658L1.98884 9.02883ZM2.05757 9.27259C2.02606 9.18887 2.00248 9.10181 1.98665 9.01273L1.59282 9.08268C1.61276 9.19494 1.64268 9.30582 1.68321 9.4135L2.05757 9.27259ZM2.15442 9.44447C2.1161 9.38781 2.08225 9.32585 2.05249 9.26033L1.6883 9.42576C1.72588 9.50849 1.77035 9.5906 1.82312 9.6686L2.15442 9.44447ZM2.18065 9.48259C2.17061 9.46842 2.16324 9.45798 2.15651 9.44762L1.82103 9.66545C1.83294 9.68379 1.84504 9.70081 1.85436 9.71396L2.18065 9.48259ZM2.18417 9.48755L2.18067 9.48261L1.85434 9.71393L1.85784 9.71887L2.18417 9.48755ZM2.19276 9.49557C2.18562 9.48745 2.17817 9.479 2.17063 9.47049L1.87138 9.73592C1.87836 9.74379 1.88532 9.75169 1.89254 9.75989L2.19276 9.49557ZM2.26218 9.57222C2.23961 9.54874 2.21793 9.52416 2.19276 9.49557L1.89254 9.75989C1.9168 9.78745 1.94417 9.81858 1.97378 9.84939L2.26218 9.57222ZM2.31532 9.62315C2.29594 9.60562 2.27809 9.58867 2.26173 9.57175L1.97423 9.84986C1.99859 9.87504 2.02329 9.89836 2.04698 9.91979L2.31532 9.62315ZM2.37949 9.66332C2.34786 9.63897 2.31369 9.61596 2.27698 9.59592L2.08532 9.94701C2.10081 9.95547 2.11754 9.96646 2.13551 9.98029L2.37949 9.66332ZM2.39035 9.67048C2.38498 9.66669 2.37654 9.66072 2.3674 9.65471L2.14759 9.9889C2.15038 9.99073 2.15354 9.99293 2.15976 9.99733L2.39035 9.67048ZM2.40355 9.67957C2.40086 9.67786 2.39769 9.67566 2.39034 9.67047L2.15977 9.99733C2.16594 10.0017 2.1763 10.009 2.18767 10.0163L2.40355 9.67957ZM2.40514 9.68061L2.40509 9.68057L2.18613 10.0153L2.18619 10.0154L2.40514 9.68061ZM2.47694 9.72621C2.45448 9.7127 2.43143 9.69772 2.40479 9.68038L2.18654 10.0156C2.21207 10.0322 2.24119 10.0512 2.27089 10.0691L2.47694 9.72621ZM2.59725 9.78848C2.55475 9.76894 2.51439 9.74817 2.47513 9.72513L2.27271 10.0701C2.3248 10.1007 2.37711 10.1275 2.43015 10.1519L2.59725 9.78848ZM2.83706 9.85186C2.75038 9.83643 2.66545 9.8133 2.58354 9.78278L2.44386 10.1576C2.54858 10.1966 2.65681 10.2261 2.76695 10.2457L2.83706 9.85186ZM3.1066 9.85038C3.01278 9.85962 2.91763 9.85923 2.8217 9.84973L2.78231 10.2478C2.90303 10.2597 3.02454 10.2604 3.1458 10.2485L3.1066 9.85038ZM3.22093 9.82365C3.17853 9.83521 3.13547 9.84482 3.09201 9.85236L3.1604 10.2465C3.21639 10.2368 3.27174 10.2244 3.32617 10.2096L3.22093 9.82365ZM3.33309 9.78688C3.29569 9.80093 3.25795 9.81327 3.21959 9.82402L3.32752 10.2092C3.37686 10.1954 3.42552 10.1795 3.47375 10.1613L3.33309 9.78688ZM3.44245 9.72885C3.40398 9.75133 3.36235 9.77275 3.31945 9.79259L3.48738 10.1556C3.54002 10.1313 3.59315 10.1041 3.6442 10.0743L3.44245 9.72885ZM3.51578 9.68294C3.49208 9.69876 3.46786 9.71381 3.44145 9.72944L3.6452 10.0737C3.67622 10.0553 3.70682 10.0364 3.73793 10.0156L3.51578 9.68294ZM3.52566 9.6764C3.52291 9.67821 3.51943 9.6805 3.51578 9.68294L3.73794 10.0156C3.74027 10.014 3.74262 10.0125 3.74557 10.0105L3.52566 9.6764ZM3.53936 9.66712C3.53737 9.66862 3.53477 9.67041 3.52568 9.67639L3.74555 10.0105C3.75309 10.0056 3.76605 9.99712 3.77961 9.98694L3.53936 9.66712ZM3.56211 9.65068C3.55789 9.65384 3.55423 9.65657 3.55121 9.65877C3.55052 9.65928 3.54997 9.65968 3.54954 9.65999C3.54909 9.66031 3.54889 9.66045 3.54889 9.66045C3.5489 9.66044 3.54901 9.66037 3.54919 9.66024C3.54937 9.66012 3.54969 9.6599 3.55013 9.6596C3.55078 9.65917 3.5528 9.65783 3.55568 9.65608L3.76329 9.99798C3.778 9.98905 3.79936 9.97274 3.80162 9.97105L3.56211 9.65068ZM3.56374 9.64947L3.5621 9.65069L3.80163 9.97104L3.80326 9.96982L3.56374 9.64947ZM3.56175 9.65063C3.55924 9.65276 3.55633 9.65523 3.55341 9.65773L3.81359 9.96155C3.81581 9.95965 3.81808 9.95772 3.82075 9.95545L3.56175 9.65063ZM3.57697 9.63751C3.57309 9.64098 3.56863 9.64478 3.56176 9.65062L3.82074 9.95546C3.82685 9.95027 3.83537 9.94305 3.84381 9.9355L3.57697 9.63751ZM3.6328 9.58506C3.61495 9.60294 3.59711 9.6197 3.57794 9.63665L3.84284 9.93636C3.86804 9.91408 3.89196 9.89163 3.91588 9.86766L3.6328 9.58506ZM3.74818 9.45693C3.71243 9.50198 3.67503 9.54391 3.6348 9.58308L3.91387 9.86964C3.96762 9.81731 4.01636 9.76248 4.06152 9.70556L3.74818 9.45693ZM3.96836 9.3054C3.89473 9.33181 3.81188 9.37749 3.74882 9.45613L4.06089 9.70636C4.06387 9.70264 4.07498 9.69211 4.10341 9.68191L3.96836 9.3054ZM4.18365 9.26245C4.11625 9.26526 4.03825 9.27788 3.96283 9.30747L4.10895 9.67983C4.1348 9.66968 4.16749 9.66347 4.20032 9.6621L4.18365 9.26245ZM4.62523 9.45287C4.56714 9.37979 4.48445 9.33331 4.41616 9.30608C4.34623 9.2782 4.26234 9.25892 4.18302 9.26248L4.20095 9.66207C4.20326 9.66197 4.21155 9.66212 4.22532 9.66485C4.23855 9.66747 4.25338 9.6718 4.26799 9.67763C4.28271 9.6835 4.29486 9.68995 4.30361 9.69574C4.31289 9.7019 4.31443 9.70469 4.31212 9.70178L4.62523 9.45287ZM4.73873 9.57916C4.6985 9.53998 4.6611 9.49806 4.62534 9.453L4.31201 9.70164C4.35717 9.75856 4.40591 9.81338 4.45965 9.86572L4.73873 9.57916ZM4.79993 9.63624C4.78085 9.62015 4.76169 9.60214 4.74073 9.58114L4.45765 9.86374C4.48367 9.88981 4.5115 9.91625 4.54202 9.94199L4.79993 9.63624ZM4.81725 9.65064C4.81284 9.64681 4.80288 9.63806 4.79111 9.62922L4.55084 9.94901C4.54986 9.94828 4.54954 9.94799 4.55021 9.94855C4.55103 9.94924 4.55214 9.95019 4.55472 9.95243L4.81725 9.65064ZM4.81575 9.64874C4.81195 9.64593 4.80726 9.64245 4.80373 9.63987L4.56823 9.9632C4.57006 9.96453 4.57308 9.96677 4.57753 9.97007L4.81575 9.64874ZM4.83016 9.65935C4.83036 9.65949 4.83006 9.65928 4.82906 9.65855C4.82814 9.65788 4.82696 9.65703 4.82552 9.65597C4.82261 9.65382 4.81929 9.65137 4.81575 9.64874L4.57754 9.97007C4.58322 9.97428 4.59368 9.98207 4.60053 9.98687L4.83016 9.65935ZM4.84665 9.67051C4.83943 9.6657 4.83451 9.6624 4.83017 9.65935L4.60052 9.98687C4.60924 9.99297 4.61802 9.99883 4.62451 10.0032L4.84665 9.67051ZM4.87063 9.68681C4.86192 9.6807 4.85314 9.67485 4.84665 9.67051L4.62451 10.0032C4.63172 10.008 4.63664 10.0113 4.64098 10.0143L4.87063 9.68681ZM4.93054 9.72462C4.90674 9.71082 4.88792 9.69929 4.87303 9.68852L4.63858 10.0126C4.67067 10.0358 4.70407 10.0557 4.72986 10.0706L4.93054 9.72462ZM5.05465 9.78891C5.01143 9.76909 4.97086 9.74846 4.93201 9.72548L4.72839 10.0698C4.78194 10.1014 4.83535 10.1284 4.88793 10.1525L5.05465 9.78891ZM5.29201 9.85181C5.20616 9.83665 5.12242 9.81385 5.04165 9.7835L4.90093 10.1579C5.00522 10.1971 5.11282 10.2264 5.22247 10.2457L5.29201 9.85181ZM5.56278 9.8497C5.46787 9.8589 5.3723 9.85892 5.27642 9.84968L5.23807 10.2478C5.35936 10.2595 5.48071 10.2595 5.60141 10.2478L5.56278 9.8497ZM5.79736 9.78377C5.71627 9.81409 5.63334 9.83664 5.54737 9.8518L5.61682 10.2457C5.72662 10.2264 5.8332 10.1974 5.93744 10.1584L5.79736 9.78377ZM5.90014 9.72879C5.86324 9.75032 5.8237 9.77079 5.78285 9.78986L5.95195 10.1524C6.00245 10.1288 6.05297 10.1027 6.10169 10.0743L5.90014 9.72879ZM5.97337 9.68294C5.94967 9.69876 5.92545 9.71381 5.89904 9.72944L6.10279 10.0737C6.13381 10.0553 6.1644 10.0364 6.19552 10.0156L5.97337 9.68294ZM5.98324 9.6764C5.98049 9.67822 5.97703 9.68049 5.97339 9.68292L6.19549 10.0156C6.19785 10.014 6.20022 10.0125 6.20316 10.0105L5.98324 9.6764ZM5.99694 9.66713C5.99495 9.66862 5.99237 9.6704 5.98325 9.6764L6.20315 10.0105C6.21067 10.0056 6.22364 9.99712 6.2372 9.98693L5.99694 9.66713ZM6.01971 9.65067C6.01548 9.65383 6.01182 9.65657 6.00881 9.65877C6.00811 9.65927 6.00756 9.65968 6.00713 9.65999C6.00668 9.6603 6.00648 9.66045 6.00648 9.66045C6.00649 9.66044 6.0066 9.66037 6.00678 9.66024C6.00696 9.66012 6.00728 9.6599 6.00772 9.6596C6.00837 9.65917 6.01039 9.65783 6.01327 9.65608L6.22087 9.99798C6.23559 9.98905 6.25696 9.97273 6.25923 9.97104L6.01971 9.65067ZM6.02131 9.64948L6.01968 9.65069L6.25925 9.97102L6.26087 9.96981L6.02131 9.64948ZM6.03455 9.63751C6.0281 9.64329 6.02297 9.64748 6.01098 9.65774L6.27119 9.96154C6.27721 9.95638 6.29062 9.94514 6.3014 9.93549L6.03455 9.63751ZM6.09038 9.58506C6.07254 9.60294 6.0547 9.6197 6.03552 9.63665L6.30042 9.93636C6.32562 9.91408 6.34955 9.89163 6.37347 9.86766L6.09038 9.58506ZM6.20577 9.45693C6.17002 9.50198 6.13262 9.54391 6.09239 9.58308L6.37146 9.86964C6.4252 9.81731 6.47394 9.76248 6.51911 9.70556L6.20577 9.45693ZM6.39909 9.31574C6.33285 9.34311 6.262 9.38696 6.20655 9.45596L6.51833 9.70653C6.52109 9.7031 6.53011 9.6944 6.55184 9.68542L6.39909 9.31574ZM6.6403 9.26243C6.56523 9.26543 6.47698 9.28081 6.3938 9.31801L6.55713 9.68315C6.58385 9.6712 6.61985 9.66357 6.65623 9.66212L6.6403 9.26243ZM7.08152 9.45287C7.02342 9.37979 6.94073 9.33331 6.87244 9.30608C6.80252 9.2782 6.71862 9.25892 6.6393 9.26248L6.65723 9.66207C6.65954 9.66197 6.66784 9.66212 6.6816 9.66485C6.69483 9.66747 6.70966 9.6718 6.72428 9.67763C6.73899 9.6835 6.75114 9.68995 6.75989 9.69574C6.76918 9.7019 6.77072 9.70469 6.7684 9.70178L7.08152 9.45287ZM7.19501 9.57916C7.15478 9.53998 7.11738 9.49806 7.08162 9.453L6.76829 9.70164C6.81345 9.75856 6.86219 9.81338 6.91593 9.86572L7.19501 9.57916ZM7.25621 9.63624C7.23713 9.62015 7.21797 9.60213 7.19701 9.58114L6.91393 9.86374C6.93996 9.88981 6.96778 9.91625 6.9983 9.94199L7.25621 9.63624ZM7.27353 9.65064C7.26913 9.64681 7.25916 9.63806 7.24739 9.62922L7.00712 9.94902C7.00614 9.94828 7.00582 9.94799 7.00649 9.94855C7.00731 9.94924 7.00842 9.95019 7.011 9.95243L7.27353 9.65064ZM7.27204 9.64875C7.2682 9.6459 7.26355 9.64245 7.26003 9.63988L7.0245 9.96319C7.02634 9.96453 7.0294 9.9668 7.03381 9.97007L7.27204 9.64875ZM7.28646 9.65936C7.28665 9.65949 7.28635 9.65928 7.28534 9.65855C7.28442 9.65789 7.28324 9.65703 7.28181 9.65597C7.27889 9.65383 7.27558 9.65137 7.27204 9.64875L7.03381 9.97007C7.03951 9.97429 7.04996 9.98206 7.0568 9.98686L7.28646 9.65936ZM7.30293 9.67051C7.29571 9.66569 7.29079 9.6624 7.28645 9.65936L7.0568 9.98686C7.06552 9.99297 7.0743 9.99883 7.08079 10.0032L7.30293 9.67051ZM7.32691 9.68681C7.3182 9.6807 7.30942 9.67485 7.30293 9.67051L7.08079 10.0032C7.08801 10.008 7.09293 10.0113 7.09726 10.0143L7.32691 9.68681ZM7.38682 9.72462C7.36302 9.71082 7.34421 9.69929 7.32931 9.68852L7.09486 10.0126C7.12696 10.0358 7.16035 10.0557 7.18614 10.0706L7.38682 9.72462ZM7.50915 9.78814C7.46665 9.76856 7.42662 9.74814 7.38827 9.72547L7.18469 10.0698C7.23744 10.101 7.29007 10.1276 7.3418 10.1515L7.50915 9.78814ZM7.74979 9.85197C7.66279 9.83652 7.57812 9.81356 7.49595 9.78262L7.35501 10.157C7.46104 10.1969 7.56953 10.2262 7.67987 10.2458L7.74979 9.85197ZM8.02037 9.84983C7.92545 9.85903 7.82989 9.85905 7.734 9.84981L7.69566 10.248C7.81695 10.2597 7.9383 10.2597 8.05899 10.248L8.02037 9.84983ZM8.25495 9.7839C8.17385 9.81422 8.09093 9.83677 8.00496 9.85193L8.07441 10.2459C8.18421 10.2265 8.29079 10.1975 8.39502 10.1586L8.25495 9.7839ZM8.35773 9.72892C8.32083 9.75045 8.28129 9.77093 8.24043 9.78999L8.40954 10.1525C8.46004 10.1289 8.51055 10.1029 8.55927 10.0744L8.35773 9.72892ZM8.43096 9.68306C8.40726 9.69889 8.38303 9.71394 8.35662 9.72957L8.56038 10.0738C8.5914 10.0554 8.62199 10.0365 8.6531 10.0157L8.43096 9.68306ZM8.44088 9.6765C8.43809 9.67834 8.43462 9.68062 8.43096 9.68307L8.6531 10.0157C8.65546 10.0141 8.65783 10.0126 8.66075 10.0107L8.44088 9.6765ZM8.45452 9.66726C8.45255 9.66875 8.44997 9.67052 8.44088 9.6765L8.66076 10.0106C8.66827 10.0057 8.68124 9.99725 8.6948 9.98706L8.45452 9.66726ZM8.47894 9.64957C8.47441 9.65296 8.47045 9.65593 8.46697 9.65847C8.46527 9.65972 8.46436 9.66037 8.46408 9.66057C8.46396 9.66066 8.46436 9.66037 8.46515 9.65984C8.46572 9.65946 8.46784 9.65804 8.47089 9.65619L8.67843 9.99813C8.69352 9.98898 8.71666 9.97128 8.71841 9.96997L8.47894 9.64957ZM8.47473 9.65263C8.4728 9.65426 8.47072 9.65604 8.46859 9.65786L8.72876 9.96169C8.73033 9.96034 8.73198 9.95894 8.73378 9.9574L8.47473 9.65263ZM8.49214 9.63764C8.48769 9.64163 8.48281 9.64575 8.47472 9.65263L8.73379 9.9574C8.74011 9.95202 8.74975 9.9439 8.75898 9.93563L8.49214 9.63764ZM8.54797 9.58519C8.53013 9.60307 8.51228 9.61983 8.49311 9.63678L8.75802 9.93649C8.78321 9.91422 8.80713 9.89176 8.83105 9.8678L8.54797 9.58519ZM8.66336 9.45706C8.6276 9.50211 8.5902 9.54404 8.54997 9.58321L8.82905 9.86977C8.88279 9.81744 8.93153 9.76261 8.97669 9.70569L8.66336 9.45706ZM8.85668 9.31587C8.79044 9.34324 8.71959 9.38709 8.66413 9.45609L8.97592 9.70667C8.97867 9.70324 8.9877 9.69453 9.00942 9.68556L8.85668 9.31587ZM9.09788 9.26256C9.02281 9.26556 8.93457 9.28094 8.85139 9.31814L9.01472 9.68328C9.04143 9.67133 9.07743 9.6637 9.11382 9.66225L9.09788 9.26256ZM9.5391 9.453C9.48101 9.37992 9.39832 9.33344 9.33003 9.30621C9.2601 9.27833 9.17621 9.25905 9.09689 9.26261L9.11482 9.6622C9.11713 9.6621 9.12542 9.66225 9.13919 9.66498C9.15242 9.6676 9.16725 9.67193 9.18186 9.67776C9.19658 9.68363 9.20873 9.69008 9.21747 9.69587C9.22676 9.70203 9.2283 9.70483 9.22598 9.70191L9.5391 9.453ZM9.6526 9.57929C9.61237 9.54011 9.57497 9.49819 9.53921 9.45313L9.22588 9.70177C9.27104 9.75869 9.31978 9.81351 9.37352 9.86585L9.6526 9.57929ZM9.7138 9.63638C9.69472 9.62028 9.67556 9.60227 9.6546 9.58127L9.37151 9.86387C9.39754 9.88994 9.42536 9.91638 9.45588 9.94212L9.7138 9.63638ZM9.73112 9.65078C9.72672 9.64695 9.71675 9.63819 9.70495 9.62933L9.46473 9.94917C9.46374 9.94843 9.46341 9.94812 9.46408 9.94868C9.4649 9.94937 9.466 9.95031 9.46858 9.95256L9.73112 9.65078ZM9.72958 9.64884C9.72579 9.64603 9.72112 9.64257 9.7176 9.64001L9.4821 9.96333C9.48392 9.96465 9.48693 9.96689 9.49136 9.97017L9.72958 9.64884ZM9.74405 9.6595C9.74424 9.65963 9.74393 9.65941 9.74292 9.65868C9.74199 9.658 9.74081 9.65714 9.73937 9.65608C9.73644 9.65393 9.73312 9.65146 9.72956 9.64883L9.49137 9.97018C9.49707 9.9744 9.50754 9.98219 9.51438 9.98698L9.74405 9.6595ZM9.76051 9.67064C9.75332 9.66584 9.74838 9.66253 9.74403 9.65948L9.5144 9.987C9.5231 9.9931 9.53187 9.99895 9.53838 10.0033L9.76051 9.67064ZM9.7845 9.68694C9.77578 9.68083 9.767 9.67498 9.76051 9.67064L9.53838 10.0033C9.54559 10.0081 9.55052 10.0114 9.55486 10.0145L9.7845 9.68694ZM9.8444 9.72475C9.82061 9.71095 9.8018 9.69943 9.7869 9.68865L9.55245 10.0127C9.58454 10.036 9.61793 10.0558 9.64373 10.0708L9.8444 9.72475ZM9.96674 9.78827C9.92424 9.76869 9.88421 9.74827 9.84586 9.7256L9.64228 10.0699C9.69503 10.1011 9.74766 10.1278 9.79939 10.1516L9.96674 9.78827ZM10.2099 9.85256C10.1219 9.8371 10.0364 9.81402 9.95371 9.78282L9.81243 10.157C9.91954 10.1975 10.0293 10.227 10.1407 10.2465L10.2099 9.85256ZM10.4783 9.84999C10.3833 9.85936 10.2885 9.85975 10.1949 9.85051L10.1556 10.2486C10.2766 10.2605 10.3977 10.2599 10.5175 10.2481L10.4783 9.84999ZM10.7126 9.78395C10.6317 9.81411 10.5483 9.83685 10.4627 9.85215L10.5331 10.2459C10.642 10.2264 10.7486 10.1974 10.8523 10.1588L10.7126 9.78395ZM10.8905 9.68169C10.8305 9.72272 10.7663 9.75835 10.6982 9.78996L10.8666 10.1528C10.9518 10.1133 11.0356 10.067 11.1163 10.0119L10.8905 9.68169ZM10.9014 9.67338C10.8944 9.67877 10.8911 9.68122 10.8884 9.68314L11.1184 10.0104C11.1289 10.003 11.1386 9.99558 11.1445 9.99104L10.9014 9.67338ZM10.9083 9.6681C10.9059 9.66999 10.9034 9.67185 10.9014 9.67339L11.1445 9.99102C11.1467 9.98937 11.1484 9.98804 11.1501 9.98674L10.9083 9.6681ZM10.9237 9.6576C10.9259 9.65573 10.9265 9.65536 10.9248 9.65661C10.9234 9.65761 10.9215 9.65889 10.9195 9.66022L11.139 9.99463C11.1484 9.98848 11.166 9.97658 11.1823 9.96273L10.9237 9.6576ZM10.9285 9.65357L10.9255 9.65606L11.1805 9.96427L11.1835 9.96179L10.9285 9.65357ZM10.9447 9.64148C10.9438 9.64213 10.9433 9.64248 10.9428 9.64281L11.1692 9.97255C11.1704 9.97173 11.1716 9.97092 11.1723 9.97041L10.9447 9.64148ZM10.9472 9.63979C10.9463 9.64038 10.9455 9.64095 10.9447 9.64149L11.1723 9.9704C11.173 9.96995 11.1736 9.96953 11.1742 9.96913L10.9472 9.63979ZM11.1657 9.97473L11.1698 9.97203L10.9515 9.63689L10.9473 9.63959L11.1657 9.97473ZM11.0185 9.57081C10.9869 9.60248 10.9591 9.62893 10.9315 9.65109L11.1816 9.96323C11.227 9.92682 11.2674 9.88764 11.3016 9.85341L11.0185 9.57081ZM11.1029 9.47727C11.0719 9.51341 11.0465 9.54285 11.0187 9.57055L11.3013 9.85368C11.3418 9.8133 11.3769 9.77217 11.4065 9.73768L11.1029 9.47727ZM11.1052 9.47455L11.1029 9.47725L11.4065 9.7377L11.4088 9.735L11.1052 9.47455ZM11.0998 9.48055C11.0977 9.48358 11.0954 9.48684 11.0931 9.49013L11.4209 9.71943C11.4228 9.71664 11.4248 9.71381 11.427 9.71073L11.0998 9.48055ZM11.1211 9.44955C11.1153 9.45854 11.1089 9.46773 11.0998 9.48055L11.427 9.71073C11.4353 9.69891 11.4464 9.68313 11.4574 9.66613L11.1211 9.44955ZM11.2292 9.2533C11.1973 9.32249 11.1621 9.38748 11.1223 9.44761L11.4561 9.66808C11.5088 9.58832 11.5537 9.50505 11.5926 9.42049L11.2292 9.2533Z" fill="#159C2A" mask="url(#path-1-outside-1_993_3769)"/>
</g>
</svg>
