<svg width="28" height="25" viewBox="0 0 28 25" fill="none" xmlns="http://www.w3.org/2000/svg">
<rect x="0.35" y="0.35" width="27.1805" height="24.3" rx="4.65" fill="white"/>
<rect x="0.35" y="0.35" width="27.1805" height="24.3" rx="4.65" fill="#E8F6EA"/>
<rect x="0.35" y="0.35" width="27.1805" height="24.3" rx="4.65" stroke="#1BB21B" stroke-width="0.7"/>
<path fill-rule="evenodd" clip-rule="evenodd" d="M11.3724 12.2672V17.0934C11.3717 17.3344 11.2754 17.5653 11.1046 17.7354C11.0203 17.8195 10.9201 17.8862 10.81 17.9315C10.6998 17.9769 10.5818 18.0001 10.4627 17.9998H8.9064C8.66583 18.0002 8.43494 17.9051 8.26445 17.7354C8.18032 17.651 8.11365 17.5509 8.06828 17.4407C8.0229 17.3306 7.9997 17.2125 8 17.0934V12.2672C7.99975 12.0267 8.09484 11.7959 8.26445 11.6253C8.3488 11.5412 8.44892 11.4745 8.55908 11.4291C8.66924 11.3837 8.78726 11.3605 8.9064 11.3608H10.4614C10.5805 11.3605 10.6985 11.3837 10.8087 11.4291C10.9188 11.4745 11.0189 11.5412 11.1033 11.6253C11.1883 11.7093 11.2558 11.8092 11.302 11.9194C11.3481 12.0296 11.3721 12.1478 11.3724 12.2672Z" fill="white"/>
<path fill-rule="evenodd" clip-rule="evenodd" d="M11.3724 12.2672V17.0934C11.3717 17.3344 11.2754 17.5653 11.1046 17.7354C11.0203 17.8195 10.9201 17.8862 10.81 17.9315C10.6998 17.9769 10.5818 18.0001 10.4627 17.9998H8.9064C8.66583 18.0002 8.43494 17.9051 8.26445 17.7354C8.18032 17.651 8.11365 17.5509 8.06828 17.4407C8.0229 17.3306 7.9997 17.2125 8 17.0934V12.2672C7.99975 12.0267 8.09484 11.7959 8.26445 11.6253C8.3488 11.5412 8.44892 11.4745 8.55908 11.4291C8.66924 11.3837 8.78726 11.3605 8.9064 11.3608H10.4614C10.5805 11.3605 10.6985 11.3837 10.8087 11.4291C10.9188 11.4745 11.0189 11.5412 11.1033 11.6253C11.1883 11.7093 11.2558 11.8092 11.302 11.9194C11.3481 12.0296 11.3721 12.1478 11.3724 12.2672Z" fill="#232323" fill-opacity="0.1"/>
<path fill-rule="evenodd" clip-rule="evenodd" d="M11.3724 12.2672V17.0934C11.3717 17.3344 11.2754 17.5653 11.1046 17.7354C11.0203 17.8195 10.9201 17.8862 10.81 17.9315C10.6998 17.9769 10.5818 18.0001 10.4627 17.9998H8.9064C8.66583 18.0002 8.43494 17.9051 8.26445 17.7354C8.18032 17.651 8.11365 17.5509 8.06828 17.4407C8.0229 17.3306 7.9997 17.2125 8 17.0934V12.2672C7.99975 12.0267 8.09484 11.7959 8.26445 11.6253C8.3488 11.5412 8.44892 11.4745 8.55908 11.4291C8.66924 11.3837 8.78726 11.3605 8.9064 11.3608H10.4614C10.5805 11.3605 10.6985 11.3837 10.8087 11.4291C10.9188 11.4745 11.0189 11.5412 11.1033 11.6253C11.1883 11.7093 11.2558 11.8092 11.302 11.9194C11.3481 12.0296 11.3721 12.1478 11.3724 12.2672Z" stroke="#159C2A" stroke-width="1.2" stroke-linecap="round" stroke-linejoin="round"/>
<path fill-rule="evenodd" clip-rule="evenodd" d="M11.3724 12.2672V17.0934C11.3717 17.3344 11.2754 17.5653 11.1046 17.7354C11.0203 17.8195 10.9201 17.8862 10.81 17.9315C10.6998 17.9769 10.5818 18.0001 10.4627 17.9998H8.9064C8.66583 18.0002 8.43494 17.9051 8.26445 17.7354C8.18032 17.651 8.11365 17.5509 8.06828 17.4407C8.0229 17.3306 7.9997 17.2125 8 17.0934V12.2672C7.99975 12.0267 8.09484 11.7959 8.26445 11.6253C8.3488 11.5412 8.44892 11.4745 8.55908 11.4291C8.66924 11.3837 8.78726 11.3605 8.9064 11.3608H10.4614C10.5805 11.3605 10.6985 11.3837 10.8087 11.4291C10.9188 11.4745 11.0189 11.5412 11.1033 11.6253C11.1883 11.7093 11.2558 11.8092 11.302 11.9194C11.3481 12.0296 11.3721 12.1478 11.3724 12.2672Z" stroke="#232323" stroke-width="1.2" stroke-linecap="round" stroke-linejoin="round"/>
<path fill-rule="evenodd" clip-rule="evenodd" d="M19.7203 13.1565C19.7945 13.4346 19.8058 13.7257 19.7533 14.0087C19.707 14.2621 19.5979 14.4998 19.436 14.7002C19.4682 14.9951 19.4458 15.2934 19.3699 15.5802C19.2932 15.8689 19.1496 16.1354 18.9507 16.3583C18.9028 16.6022 18.8308 16.8407 18.7359 17.0703C18.6426 17.2975 18.5102 17.5066 18.3445 17.6878L18.3399 17.6925C18.253 17.7807 18.1509 17.8524 18.0384 17.904C17.9261 17.9559 17.8058 17.9884 17.6827 17.9999H17.6496H17.4685H12.6423C12.6008 18.0001 12.5597 17.9929 12.5207 17.9787C12.2899 17.9203 12.0712 17.8216 11.8748 17.6872C11.6801 17.5508 11.5213 17.3693 11.412 17.1583C11.3859 17.1085 11.3723 17.0532 11.3723 16.997V12.3903C11.3721 12.32 11.3931 12.2512 11.4327 12.1931C11.4722 12.1349 11.5283 12.09 11.5938 12.0643C12.1892 11.7748 12.645 11.2919 12.961 10.6158C13.2964 9.90138 13.4771 8.97141 13.5031 7.82591C13.5042 7.76924 13.5189 7.71367 13.5461 7.66393C13.7147 7.3261 13.9553 7.14098 14.2568 7.10198C14.5336 7.0654 14.8353 7.16721 15.1619 7.40742L15.1936 7.4332C15.6575 7.87081 15.9751 8.4408 16.1033 9.0655C16.2236 9.60101 16.241 10.2099 16.1555 10.8922L17.8976 10.9259C18.1243 10.9286 18.3503 10.9507 18.5732 10.992C18.7602 11.0253 18.9404 11.0889 19.1068 11.1804L19.1239 11.191C19.5087 11.4264 19.7472 11.7263 19.8393 12.0908C19.9208 12.413 19.8811 12.7682 19.7203 13.1565Z" fill="white"/>
<path fill-rule="evenodd" clip-rule="evenodd" d="M19.7203 13.1565C19.7945 13.4346 19.8058 13.7257 19.7533 14.0087C19.707 14.2621 19.5979 14.4998 19.436 14.7002C19.4682 14.9951 19.4458 15.2934 19.3699 15.5802C19.2932 15.8689 19.1496 16.1354 18.9507 16.3583C18.9028 16.6022 18.8308 16.8407 18.7359 17.0703C18.6426 17.2975 18.5102 17.5066 18.3445 17.6878L18.3399 17.6925C18.253 17.7807 18.1509 17.8524 18.0384 17.904C17.9261 17.9559 17.8058 17.9884 17.6827 17.9999H17.6496H17.4685H12.6423C12.6008 18.0001 12.5597 17.9929 12.5207 17.9787C12.2899 17.9203 12.0712 17.8216 11.8748 17.6872C11.6801 17.5508 11.5213 17.3693 11.412 17.1583C11.3859 17.1085 11.3723 17.0532 11.3723 16.997V12.3903C11.3721 12.32 11.3931 12.2512 11.4327 12.1931C11.4722 12.1349 11.5283 12.09 11.5938 12.0643C12.1892 11.7748 12.645 11.2919 12.961 10.6158C13.2964 9.90138 13.4771 8.97141 13.5031 7.82591C13.5042 7.76924 13.5189 7.71367 13.5461 7.66393C13.7147 7.3261 13.9553 7.14098 14.2568 7.10198C14.5336 7.0654 14.8353 7.16721 15.1619 7.40742L15.1936 7.4332C15.6575 7.87081 15.9751 8.4408 16.1033 9.0655C16.2236 9.60101 16.241 10.2099 16.1555 10.8922L17.8976 10.9259C18.1243 10.9286 18.3503 10.9507 18.5732 10.992C18.7602 11.0253 18.9404 11.0889 19.1068 11.1804L19.1239 11.191C19.5087 11.4264 19.7472 11.7263 19.8393 12.0908C19.9208 12.413 19.8811 12.7682 19.7203 13.1565Z" fill="#232323" fill-opacity="0.15"/>
<path fill-rule="evenodd" clip-rule="evenodd" d="M19.7203 13.1565C19.7945 13.4346 19.8058 13.7257 19.7533 14.0087C19.707 14.2621 19.5979 14.4998 19.436 14.7002C19.4682 14.9951 19.4458 15.2934 19.3699 15.5802C19.2932 15.8689 19.1496 16.1354 18.9507 16.3583C18.9028 16.6022 18.8308 16.8407 18.7359 17.0703C18.6426 17.2975 18.5102 17.5066 18.3445 17.6878L18.3399 17.6925C18.253 17.7807 18.1509 17.8524 18.0384 17.904C17.9261 17.9559 17.8058 17.9884 17.6827 17.9999H17.6496H17.4685H12.6423C12.6008 18.0001 12.5597 17.9929 12.5207 17.9787C12.2899 17.9203 12.0712 17.8216 11.8748 17.6872C11.6801 17.5508 11.5213 17.3693 11.412 17.1583C11.3859 17.1085 11.3723 17.0532 11.3723 16.997V12.3903C11.3721 12.32 11.3931 12.2512 11.4327 12.1931C11.4722 12.1349 11.5283 12.09 11.5938 12.0643C12.1892 11.7748 12.645 11.2919 12.961 10.6158C13.2964 9.90138 13.4771 8.97141 13.5031 7.82591C13.5042 7.76924 13.5189 7.71367 13.5461 7.66393C13.7147 7.3261 13.9553 7.14098 14.2568 7.10198C14.5336 7.0654 14.8353 7.16721 15.1619 7.40742L15.1936 7.4332C15.6575 7.87081 15.9751 8.4408 16.1033 9.0655C16.2236 9.60101 16.241 10.2099 16.1555 10.8922L17.8976 10.9259C18.1243 10.9286 18.3503 10.9507 18.5732 10.992C18.7602 11.0253 18.9404 11.0889 19.1068 11.1804L19.1239 11.191C19.5087 11.4264 19.7472 11.7263 19.8393 12.0908C19.9208 12.413 19.8811 12.7682 19.7203 13.1565Z" stroke="#159C2A" stroke-width="1.2" stroke-linecap="round" stroke-linejoin="round"/>
<path fill-rule="evenodd" clip-rule="evenodd" d="M19.7203 13.1565C19.7945 13.4346 19.8058 13.7257 19.7533 14.0087C19.707 14.2621 19.5979 14.4998 19.436 14.7002C19.4682 14.9951 19.4458 15.2934 19.3699 15.5802C19.2932 15.8689 19.1496 16.1354 18.9507 16.3583C18.9028 16.6022 18.8308 16.8407 18.7359 17.0703C18.6426 17.2975 18.5102 17.5066 18.3445 17.6878L18.3399 17.6925C18.253 17.7807 18.1509 17.8524 18.0384 17.904C17.9261 17.9559 17.8058 17.9884 17.6827 17.9999H17.6496H17.4685H12.6423C12.6008 18.0001 12.5597 17.9929 12.5207 17.9787C12.2899 17.9203 12.0712 17.8216 11.8748 17.6872C11.6801 17.5508 11.5213 17.3693 11.412 17.1583C11.3859 17.1085 11.3723 17.0532 11.3723 16.997V12.3903C11.3721 12.32 11.3931 12.2512 11.4327 12.1931C11.4722 12.1349 11.5283 12.09 11.5938 12.0643C12.1892 11.7748 12.645 11.2919 12.961 10.6158C13.2964 9.90138 13.4771 8.97141 13.5031 7.82591C13.5042 7.76924 13.5189 7.71367 13.5461 7.66393C13.7147 7.3261 13.9553 7.14098 14.2568 7.10198C14.5336 7.0654 14.8353 7.16721 15.1619 7.40742L15.1936 7.4332C15.6575 7.87081 15.9751 8.4408 16.1033 9.0655C16.2236 9.60101 16.241 10.2099 16.1555 10.8922L17.8976 10.9259C18.1243 10.9286 18.3503 10.9507 18.5732 10.992C18.7602 11.0253 18.9404 11.0889 19.1068 11.1804L19.1239 11.191C19.5087 11.4264 19.7472 11.7263 19.8393 12.0908C19.9208 12.413 19.8811 12.7682 19.7203 13.1565Z" stroke="#232323" stroke-width="1.2" stroke-linecap="round" stroke-linejoin="round"/>
</svg>
