<svg width="24" height="28" viewBox="0 0 24 28" fill="none" xmlns="http://www.w3.org/2000/svg">
<g clip-path="url(#clip0_1516_9789)">
<path d="M22.3137 20.0908C21.907 19.6784 21.3772 19.4363 20.8079 19.3997V13.4956C20.8079 10.9741 19.8397 8.60376 18.0816 6.82132C17.1242 5.85075 15.9665 5.1018 14.7038 4.63191V3.74889C14.7038 2.88092 14.3706 2.06494 13.7653 1.45141C13.1599 0.837885 12.3552 0.5 11.5 0.5C9.73352 0.5 8.29619 1.95756 8.29619 3.74889V4.63122C6.64336 5.24817 5.16859 6.34835 4.09447 7.77649C2.85004 9.43172 2.19208 11.4091 2.19208 13.4956V19.3997C0.970249 19.4793 0 20.5128 0 21.7717C0 22.4068 0.243827 23.0035 0.68629 23.4526C1.12909 23.9013 1.71758 24.1485 2.34384 24.1485H7.4116C7.57786 24.945 7.96839 25.6769 8.55047 26.2647C9.33928 27.0612 10.3868 27.5 11.5 27.5C12.6132 27.5 13.6607 27.0612 14.4495 26.2647C15.0316 25.6769 15.4221 24.945 15.5884 24.1485H20.6562C21.9485 24.1485 23 23.0822 23 21.7717C23 21.1366 22.7562 20.5398 22.3137 20.0908ZM9.9824 3.74889C9.9824 2.90042 10.6633 2.20994 11.5 2.20994C11.9054 2.20994 12.2865 2.36999 12.5731 2.66068C12.8598 2.95137 13.0176 3.33782 13.0176 3.74889V4.18185C12.8564 4.15517 12.6945 4.1326 12.532 4.11414C12.474 4.10764 12.416 4.10182 12.3576 4.09635C12.2966 4.09088 12.2355 4.08575 12.1745 4.0813C12.1087 4.07652 12.0433 4.07241 11.9775 4.06899C11.9408 4.06694 11.904 4.06523 11.8673 4.06386C11.845 4.06318 11.8231 4.06215 11.8012 4.06147C11.7644 4.06044 11.728 4.05942 11.6912 4.05873C11.6693 4.05805 11.647 4.05771 11.6248 4.05771C11.5833 4.05702 11.5415 4.05668 11.5 4.05668C11.4585 4.05668 11.4164 4.05702 11.3745 4.05771C11.3526 4.05771 11.3307 4.05771 11.3088 4.05873C11.2717 4.05942 11.2346 4.06044 11.1975 4.06181C11.1773 4.06181 11.1567 4.06318 11.1361 4.06386C11.0983 4.06523 11.0602 4.06694 11.0225 4.06899C10.9068 4.07481 10.7915 4.08301 10.6765 4.09327C10.6633 4.09464 10.6501 4.09567 10.637 4.09704C10.582 4.10217 10.5274 4.10764 10.4728 4.11379C10.3908 4.12303 10.3089 4.13329 10.2269 4.14457C10.1999 4.14833 10.1726 4.15244 10.1453 4.1562C10.091 4.16441 10.0367 4.17296 9.9824 4.18185V3.74889ZM13.8347 24.1485C13.4793 25.1061 12.5654 25.7901 11.5 25.7901C10.4346 25.7901 9.52072 25.1061 9.16526 24.1485C9.1629 24.1427 9.16088 24.1372 9.15886 24.1314H13.8411C13.8391 24.1372 13.8371 24.1427 13.8347 24.1485ZM20.6562 22.4386H2.34384C2.16814 22.4386 2.00289 22.3691 1.87878 22.2433C1.75468 22.1174 1.68622 21.9499 1.68622 21.7717C1.68622 21.4041 1.98131 21.1048 2.34384 21.1048H3.03519C3.50092 21.1048 3.8783 20.7221 3.8783 20.2498V13.4956C3.8783 10.075 6.13817 7.02206 9.37402 6.07099C10.0613 5.86922 10.7766 5.76662 11.5 5.76662C12.2234 5.76662 12.939 5.86922 13.6256 6.07134C13.6267 6.07168 13.6277 6.07202 13.6287 6.07202C14.8539 6.43282 15.9813 7.10996 16.8892 8.03059C18.3288 9.4902 19.1217 11.431 19.1217 13.4956V20.2498C19.1217 20.7221 19.4991 21.1048 19.9648 21.1048H20.6562C20.8319 21.1048 20.9971 21.1742 21.1212 21.3001C21.2453 21.4259 21.3138 21.5935 21.3138 21.7717C21.3138 22.1393 21.0187 22.4386 20.6562 22.4386Z" fill="#646564"/>
<path opacity="0.14" d="M13.841 24.1313C13.839 24.1372 13.8369 24.1426 13.8346 24.1484C13.4791 25.106 12.5652 25.79 11.4998 25.79C10.4345 25.79 9.52055 25.106 9.1651 24.1484C9.16274 24.1426 9.16071 24.1372 9.15869 24.1313H13.841Z" fill="#646564"/>
<path opacity="0.14" d="M13.0176 3.74891V4.18187C12.8564 4.15519 12.6945 4.13262 12.532 4.11415C12.474 4.10766 12.416 4.10184 12.3576 4.09637C12.2966 4.0909 12.2355 4.08577 12.1745 4.08132C12.1087 4.07653 12.0433 4.07243 11.9776 4.06901C11.9408 4.06696 11.904 4.06525 11.8673 4.06388C11.845 4.0632 11.8231 4.06217 11.8012 4.06149C11.7644 4.06046 11.728 4.05944 11.6912 4.05875C11.6693 4.05807 11.6471 4.05773 11.6248 4.05773C11.5833 4.05704 11.5415 4.0567 11.5 4.0567C11.4585 4.0567 11.4164 4.05704 11.3746 4.05773C11.3526 4.05773 11.3307 4.05773 11.3088 4.05875C11.2717 4.05944 11.2346 4.06046 11.1975 4.06183C11.1773 4.06183 11.1567 4.0632 11.1361 4.06388C11.0984 4.06525 11.0603 4.06696 11.0225 4.06901C10.9068 4.07482 10.7915 4.08303 10.6765 4.09329C10.6633 4.09466 10.6502 4.09569 10.637 4.09705C10.582 4.10218 10.5274 4.10766 10.4728 4.11381C10.3908 4.12305 10.3089 4.1333 10.2269 4.14459C10.1999 4.14835 10.1726 4.15246 10.1453 4.15622C10.091 4.16443 10.0367 4.17298 9.98242 4.18187V3.74891C9.98242 2.90044 10.6633 2.20996 11.5 2.20996C11.9054 2.20996 12.2865 2.37001 12.5731 2.6607C12.8598 2.95139 13.0176 3.33784 13.0176 3.74891Z" fill="#646564"/>
<path opacity="0.14" d="M21.3136 21.7717C21.3136 22.1393 21.0185 22.4385 20.656 22.4385H2.34366C2.16796 22.4385 2.00271 22.3691 1.8786 22.2433C1.7545 22.1174 1.68604 21.9498 1.68604 21.7717C1.68604 21.404 1.98112 21.1048 2.34366 21.1048H3.03501C3.50074 21.1048 3.87812 20.7221 3.87812 20.2498V13.4955C3.87812 10.075 6.13798 7.02204 9.37384 6.07097C10.0611 5.8692 10.7764 5.7666 11.4998 5.7666C12.2232 5.7666 12.9388 5.8692 13.6255 6.07131C13.6265 6.07166 13.6275 6.072 13.6285 6.072C14.8537 6.4328 15.9811 7.10993 16.889 8.03057C18.3287 9.49017 19.1215 11.431 19.1215 13.4955V20.2498C19.1215 20.7221 19.4989 21.1048 19.9646 21.1048H20.656C20.8317 21.1048 20.9969 21.1742 21.121 21.3001C21.2451 21.4259 21.3136 21.5935 21.3136 21.7717Z" fill="#646564"/>
</g>
<circle cx="19.5" cy="10.0005" r="4.5" fill="#159C2A"/>
<defs>
<clipPath id="clip0_1516_9789">
<rect width="23" height="27" fill="white" transform="translate(0 0.5)"/>
</clipPath>
</defs>
</svg>
