<svg width="15" height="20" viewBox="0 0 15 20" fill="none" xmlns="http://www.w3.org/2000/svg">
<path d="M10.335 1.01634C10.3594 1.0236 10.3825 1.03354 10.4046 1.0455L10.4066 1.04665M10.335 1.01634L10.3788 0.872883C10.3793 0.873047 10.3797 0.873176 10.3799 0.873243C10.3801 0.873314 10.3801 0.873314 10.3798 0.873206L10.3795 0.873108M10.335 1.01634C10.3324 1.01555 10.3298 1.01463 10.3272 1.01369C10.3235 1.01238 10.3198 1.01106 10.316 1.01007L10.335 1.01634ZM10.3795 0.873108C10.4144 0.883621 10.4465 0.89762 10.4761 0.91365L10.4782 0.914805L10.4782 0.914822L10.4802 0.91596L10.4066 1.04665M10.3795 0.873108L10.3759 0.871817L10.3759 0.8718C10.3722 0.870504 10.3638 0.867507 10.3538 0.864898L10.3538 0.864878L10.3513 0.864286C10.3153 0.855552 10.2761 0.85 10.2354 0.85H1.70588C1.23384 0.85 0.85 1.23407 0.85 1.70612V18.2993C0.85 18.7715 1.23386 19.1554 1.70588 19.1554H13.3529C13.8249 19.1554 14.2088 18.7715 14.2088 18.2993L14.2088 5.3543L14.2088 5.35393C14.2088 5.33563 14.2063 5.31405 14.2052 5.30433L10.3795 0.873108ZM10.4066 1.04665L10.4803 0.915971M10.4066 1.04665L10.4066 1.04666C10.4139 1.05075 10.4211 1.05482 10.428 1.0593C10.4536 1.0761 10.4773 1.09516 10.498 1.11827L10.4803 0.915971M10.4803 0.915971L10.4812 0.916527C10.4879 0.920283 10.4986 0.926317 10.5095 0.933346L10.5105 0.934006L10.5105 0.93401C10.5417 0.954543 10.574 0.97972 10.6039 1.01179M10.4803 0.915971L10.6039 1.01179M10.6039 1.01179L10.6079 1.01539L10.6136 1.02196L14.0841 4.98708C14.0841 4.98709 14.0841 4.98711 14.0841 4.98712L14.0843 4.98736L10.6039 1.01179Z" stroke="#DB1C10" stroke-width="0.3"/>
<path fill-rule="evenodd" clip-rule="evenodd" d="M13.9714 5.08615C14.0281 5.15061 14.0543 5.23217 14.0553 5.31475L14.0565 5.32499C14.0576 5.33476 14.0588 5.34446 14.0588 5.3543V18.2993C14.0588 18.6887 13.742 19.0054 13.3529 19.0054H1.70588C1.31673 19.0054 1 18.6887 1 18.2993V1.70612C1 1.31686 1.31673 1 1.70588 1H10.2354C10.2626 1 10.2898 1.00373 10.316 1.01007C10.3198 1.01106 10.3235 1.01238 10.3272 1.01369L10.335 1.01634C10.3594 1.0236 10.3825 1.03354 10.4046 1.0455L10.4066 1.04665L10.4066 1.04666L10.4066 1.04666C10.4139 1.05075 10.4211 1.05482 10.428 1.0593C10.4536 1.0761 10.4773 1.09516 10.498 1.11827C10.4983 1.11875 10.4988 1.11908 10.4993 1.11942C10.4998 1.11979 10.5004 1.12017 10.5008 1.12075L13.9714 5.08615ZM3.45398 16.6151C4.02577 16.6151 4.51492 16.4751 4.84512 16.1638C5.0994 15.9224 5.23881 15.5666 5.23881 15.147C5.23881 14.7278 5.05508 14.3719 4.78178 14.1558C4.49603 13.9272 4.07038 13.8128 3.47342 13.8128C2.88258 13.8128 2.4631 13.851 2.1647 13.9017V18.1272H3.12385V16.5961C3.21244 16.6085 3.32712 16.6151 3.45398 16.6151ZM6.95501 18.1717C7.79324 18.1717 8.47929 17.9938 8.92978 17.6191C9.34301 17.2694 9.6415 16.704 9.64186 15.8841C9.64186 15.1281 9.36232 14.6007 8.91755 14.2703C8.50445 13.959 7.9771 13.8128 7.16445 13.8128C6.67547 13.8128 6.21155 13.8448 5.85577 13.9017V18.1083C6.09756 18.14 6.45308 18.1717 6.95501 18.1717ZM11.249 14.6389H12.8945V13.8448H10.2774V18.1272H11.249V16.4055H12.7862V15.6173H11.249V14.6389ZM1.70588 1.70612V12.9889H13.3533L13.3529 5.67185H10.2354C10.0403 5.67185 9.88242 5.51366 9.88242 5.3188V1.70612H1.70588ZM10.5873 2.24222L12.8586 4.80757H10.5873V2.24222ZM7.266 14.5568C7.04989 14.5568 6.91031 14.5759 6.82767 14.5949V17.3962C6.91048 17.4153 7.04387 17.4153 7.1644 17.4153C8.0408 17.4215 8.61259 16.939 8.61259 15.9162C8.6188 15.0268 8.09805 14.5568 7.266 14.5568ZM3.12385 14.5813C3.19392 14.5623 3.32731 14.5434 3.52411 14.5434C4.00659 14.5434 4.27989 14.7784 4.27986 15.1722C4.27986 15.6105 3.96241 15.871 3.44748 15.871C3.30826 15.871 3.20656 15.8645 3.12385 15.8455V14.5813Z" fill="#DB1C10"/>
<path d="M5.55786 3.57373L5.55793 3.5738C5.71498 3.74659 5.81346 3.99998 5.86302 4.3186C5.91274 4.63825 5.91465 5.03271 5.87063 5.49773M5.55786 3.57373L12.3981 9.7485C12.4322 9.47413 12.3633 9.22684 12.1989 9.03351C11.8526 8.62627 11.2077 8.59077 11.1498 8.5888L11.159 8.48924C11.1584 8.48918 11.1575 8.48909 11.1562 8.48897C11.1092 8.48469 10.6151 8.44147 9.86829 8.44147C9.63972 8.44147 9.40962 8.44572 9.1821 8.45387C7.72006 7.35386 6.51792 6.2557 5.85419 5.62045C5.86182 5.57309 5.86749 5.53217 5.87063 5.49773M5.55786 3.57373C5.34793 3.34321 5.04107 3.27025 4.73151 3.35466C4.54095 3.40477 4.18297 3.5891 4.06668 3.97668L4.06668 3.9767C3.93765 4.40715 4.15195 4.90171 4.63412 5.43782L4.6341 5.43784L4.63571 5.43955C4.64397 5.44831 4.79288 5.60435 5.0632 5.86952M5.55786 3.57373L5.0632 5.86952M5.87063 5.49773C5.87062 5.4978 5.87061 5.49786 5.87061 5.49793L5.77105 5.4885L5.87064 5.49756C5.87064 5.49761 5.87063 5.49767 5.87063 5.49773ZM2.70028 11.6436C2.56423 11.3114 2.74544 10.8979 2.78335 10.8182L2.79894 10.7851L2.82306 10.7575C3.19116 10.336 3.66665 9.96856 4.23733 9.66354C4.48031 8.71799 4.98109 6.74894 5.1724 5.83648L2.70028 11.6436ZM2.70028 11.6436C2.7624 11.7946 2.87881 11.9049 3.03695 11.9628L2.70028 11.6436ZM5.0632 5.86952C4.86765 6.7869 4.3935 8.65341 4.15137 9.59627C3.58883 9.90198 3.11654 10.2694 2.74777 10.6917C2.74776 10.6917 2.74775 10.6917 2.74774 10.6917L2.72365 10.7193L2.71443 10.7298L2.70846 10.7425L2.69305 10.7752C2.69302 10.7753 2.69299 10.7754 2.69295 10.7754C2.67207 10.8194 2.61399 10.9503 2.57878 11.1153C2.54387 11.279 2.52876 11.4886 2.60774 11.6815L2.6078 11.6816C2.68098 11.8595 2.81904 11.9895 3.00255 12.0567L3.00242 12.0571L3.01095 12.0594L3.05334 12.0708L3.05331 12.0709L3.05819 12.072L3.07933 11.9743L3.05822 12.072L3.05826 12.072L3.05834 12.072L3.0585 12.0721L3.05886 12.0721L3.05976 12.0723L3.06223 12.0728L3.06986 12.0742C3.07611 12.0752 3.08468 12.0765 3.09542 12.0777C3.11689 12.0802 3.14708 12.0825 3.18479 12.0825C3.35017 12.0825 3.62927 12.0387 3.91782 11.8029C4.20557 11.5679 4.49368 11.1493 4.69237 10.4169L4.69238 10.4169L4.69266 10.4158L4.77546 10.0966C6.09779 9.46581 7.74107 9.25478 8.9541 9.19376L5.0632 5.86952ZM3.28203 11.3343C3.28327 11.3227 3.28502 11.3102 3.2873 11.297C3.29666 11.2427 3.31371 11.1824 3.33413 11.1297C3.48266 10.9652 3.65177 10.8096 3.8406 10.6636C3.72094 10.9476 3.59259 11.1137 3.48343 11.2109C3.40508 11.2806 3.33503 11.3161 3.28203 11.3343ZM4.91805 4.06005L4.92238 4.05864C4.96258 4.04787 4.98288 4.04721 4.99363 4.04888C4.9998 4.04984 5.00643 4.05169 5.01821 4.06462C5.05487 4.1049 5.1033 4.20587 5.13594 4.39546C5.16014 4.536 5.17444 4.71784 5.17171 4.9449L5.17165 4.94484L5.17014 4.94327C4.71862 4.44009 4.75471 4.2223 4.7647 4.18781L4.76483 4.18734C4.77515 4.15102 4.80629 4.11903 4.84833 4.09317C4.86811 4.08101 4.88729 4.07211 4.90163 4.06625C4.90871 4.06336 4.91437 4.06131 4.91805 4.06005ZM5.69438 6.47288C6.27057 7.01016 7.08697 7.73744 8.05088 8.50165L8.02951 8.50253L8.06502 8.52932C7.10675 8.62533 6.00884 8.82072 5.00605 9.20518L5.01118 9.18555L5.00877 9.18638C5.21972 8.35749 5.49617 7.25389 5.67774 6.46387L5.69338 6.47878L5.69438 6.47288ZM11.1775 9.83253C10.8498 9.62694 10.5161 9.40675 10.1791 9.17369C10.6975 9.18265 11.0413 9.21131 11.0999 9.2162C11.1042 9.21656 11.107 9.2168 11.1082 9.21688L11.1082 9.21694L11.1116 9.21706C11.1651 9.21905 11.2849 9.2333 11.4103 9.27045C11.5384 9.30843 11.6547 9.36524 11.7195 9.4414L11.7195 9.44141C11.7631 9.49271 11.7839 9.55448 11.7759 9.64897C11.7393 9.77874 11.6909 9.83818 11.6495 9.86749C11.6069 9.89766 11.5564 9.90691 11.4934 9.90691C11.3566 9.90691 11.2199 9.85139 11.1775 9.83253Z" fill="#DB1C10" stroke="#DB1C10" stroke-width="0.2"/>
</svg>
